<?xml version="1.0" encoding="utf-8"?>
<!-- Generator: Adobe Illustrator 21.0.0, SVG Export Plug-In . SVG Version: 6.00 Build 0)  -->
<svg version="1.1" xmlns="http://www.w3.org/2000/svg" xmlns:xlink="http://www.w3.org/1999/xlink" x="0px" y="0px" width="52.9px"
	 height="381px" viewBox="0 0 52.9 381" style="enable-background:new 0 0 52.9 381;" xml:space="preserve">
<style type="text/css">
	.st0{clip-path:url(#SVGID_2_);fill:#B1916C;}
	.st1{clip-path:url(#SVGID_2_);fill:#918960;}
	.st2{clip-path:url(#SVGID_2_);fill:#A38E6B;}
	.st3{clip-path:url(#SVGID_2_);fill:#AB916E;}
	.st4{clip-path:url(#SVGID_2_);fill:#84825E;}
	.st5{clip-path:url(#SVGID_2_);fill:#B39487;}
	.st6{clip-path:url(#SVGID_2_);fill:#B39387;}
	.st7{clip-path:url(#SVGID_2_);fill:#857C5D;}
	.st8{clip-path:url(#SVGID_2_);fill:#8E8664;}
	.st9{clip-path:url(#SVGID_2_);fill:#988966;}
	.st10{clip-path:url(#SVGID_2_);fill:#AF9363;}
	.st11{clip-path:url(#SVGID_2_);fill:#A38D6A;}
	.st12{clip-path:url(#SVGID_2_);fill:#9F8D67;}
	.st13{clip-path:url(#SVGID_2_);fill:#827657;}
	.st14{clip-path:url(#SVGID_2_);fill:#B1936A;}
	.st15{clip-path:url(#SVGID_2_);fill:#B49371;}
	.st16{clip-path:url(#SVGID_2_);fill:#948866;}
	.st17{clip-path:url(#SVGID_2_);fill:#857B5D;}
	.st18{clip-path:url(#SVGID_2_);fill:#B1936D;}
	.st19{clip-path:url(#SVGID_2_);fill:#9F8E64;}
	.st20{clip-path:url(#SVGID_2_);fill:#A28F61;}
	.st21{clip-path:url(#SVGID_2_);fill:#B7988D;}
	.st22{clip-path:url(#SVGID_2_);fill:#AB8F6A;}
</style>
<g id="Layer_1">
	<g>
		<defs>
			
				<rect id="SVGID_1_" x="-163.8" y="164.2" transform="matrix(4.489926e-11 -1 1 4.489926e-11 -164.25 217.0833)" width="380.5" height="53"/>
		</defs>
		<clipPath id="SVGID_2_">
			<use xlink:href="#SVGID_1_"  style="overflow:visible;"/>
		</clipPath>
		<path class="st0" d="M62.4,371.3c-4-0.1-7.3,2.7-7.3,2.7c-19.8,13-40.1-7.5-40.1-7.5C28.9,348.9,62.4,371.3,62.4,371.3z"/>
		<path class="st1" d="M28.2,11.5c0.2,0.4,0.4,0.8,0.7,1.3c0.3,0.5,0.5,1,0.7,1.5c0.2,0.5,0.5,1.1,0.8,1.7c0.3,0.6,0.5,1.2,0.8,1.9
			c0.3,0.6,0.5,1.3,0.8,2c0.3,0.7,0.5,1.4,0.8,2.2c0.3,0.7,0.5,1.5,0.7,2.3c0.2,0.8,0.5,1.6,0.7,2.4c0.2,0.8,0.4,1.7,0.6,2.5
			l0.1,0.6l0.1,0.6c0.1,0.4,0.2,0.9,0.3,1.3c0.2,0.9,0.3,1.8,0.4,2.6c0.1,0.9,0.3,1.8,0.4,2.7c0.1,0.9,0.2,1.8,0.3,2.7
			c0,0.4,0.1,0.9,0.1,1.3c0,0.4,0.1,0.9,0.1,1.3c0.1,0.9,0.1,1.7,0.1,2.6c0,1.7,0,3.3,0,4.9c0,1.5-0.1,3-0.2,4.4
			c-0.2,2.2-0.4,4-0.6,5.5c0,0,0.1-0.1,0.1-0.1c0.3-0.5,0.6-1,0.9-1.5c0.3-0.5,0.7-1,1-1.4c0.6-1,1.3-1.9,2-2.8
			c2.7-3.7,5.4-7.1,7.8-10.5c1.5-2,2.8-3.9,4.1-5.9V39c-1.1,1.7-2.3,3.4-3.5,5.1c-2.5,3.5-5.1,6.9-7.7,10.6
			c-0.6,0.9-1.3,1.8-1.9,2.8c-0.3,0.5-0.6,1-0.9,1.4c-0.3,0.5-0.6,1-0.9,1.5c-0.6,1-1.2,2-1.8,3l-0.2,0.4l-0.2,0.4L34.1,65
			c-0.3,0.5-0.5,1-0.8,1.6c-0.2,0.6-0.5,1.1-0.7,1.7l-0.2,0.4L32.3,69l0,0.1c0,0.1,0,0,0,0.1L31.9,70c-0.2,0.6-0.4,1.1-0.7,1.7
			c-0.2,0.6-0.4,1.2-0.6,1.8c-0.7,2.4-1.4,4.9-1.8,7.4c-0.5,2.5-0.8,5.2-1.1,7.8l-0.1,1l-0.1,1c0,0.7-0.1,1.3-0.1,2
			c-0.1,1.3-0.1,2.7-0.1,4c0,1.4,0,2.7,0,4.1c0,1.4,0,2.7,0.1,4.1c0,1.4,0.1,2.7,0.1,4.1c0,0.7,0.1,1.4,0.1,2.1
			c0,0.7,0.1,1.4,0.1,2.1c0.3,5.5,0.8,11.1,1.7,16.5c0.1,0.7,0.3,1.3,0.4,2c0.1,0.7,0.3,1.3,0.4,2l0.2,1l0.3,1l0.1,0.5l0.1,0.5
			l0.3,1l0.6,1.9c0.2,0.6,0.5,1.3,0.7,1.9c0.2,0.6,0.5,1.3,0.7,1.9l0.8,1.9c2.1,4.9,4.7,9.6,7.4,14c0.9,1.4,1.8,2.9,2.8,4.3
			c0-0.2,0-0.4-0.1-0.6c-0.2-1.6-0.3-3.3-0.4-5.2c0-1-0.1-2-0.1-3c0-0.5,0-1,0-1.6c0-0.5,0-1.1,0-1.6c0-0.6,0-1.1,0.1-1.7
			c0-0.6,0.1-1.1,0.1-1.7c0.1-1.2,0.2-2.3,0.3-3.5c0.3-2.4,0.7-4.8,1.2-7.2c0.1-0.6,0.3-1.2,0.4-1.8l0.2-0.9l0.3-0.9
			c0.2-0.6,0.3-1.2,0.5-1.8c0.2-0.6,0.4-1.2,0.6-1.8l0.3-0.9c0.1-0.3,0.2-0.6,0.3-0.9c0.2-0.6,0.4-1.2,0.7-1.7l0.3-0.9l0.4-0.8
			c0.2-0.6,0.5-1.1,0.7-1.7c0.2-0.6,0.5-1.1,0.8-1.6c0.3-0.5,0.5-1,0.8-1.5v2.8c-0.2,0.4-0.3,0.7-0.4,1.1c-0.2,0.6-0.4,1.1-0.6,1.7
			l-0.3,0.8l-0.3,0.9c-0.2,0.6-0.4,1.1-0.6,1.7c-0.1,0.3-0.2,0.6-0.3,0.9l-0.3,0.9c-0.2,0.6-0.3,1.2-0.5,1.8
			c-0.1,0.6-0.3,1.2-0.4,1.8l-0.2,0.9l-0.2,0.9c-0.1,0.6-0.2,1.2-0.4,1.8c-0.4,2.4-0.7,4.7-0.9,7c-0.1,1.1-0.2,2.3-0.2,3.4
			c0,0.6,0,1.1,0,1.6c0,0.5,0,1.1,0,1.6c0,0.5,0,1,0,1.6c0,0.5,0,1,0.1,1.5c0,1,0.1,1.9,0.2,2.9c0.2,1.8,0.3,3.5,0.6,5
			c0.2,1.5,0.5,2.7,0.7,3.8c0.2,1,0.4,1.8,0.6,2.3c0.1,0.3,0.2,0.5,0.3,0.8c0.2,0.6,0.5,1,0.9,1.4c0.3,0.5,0.7,0.9,1,1.4
			c0.5,0.7,1,1.4,1.5,2.1v5.2c-1.1-1.7-2.3-3.4-3.5-5.2c-0.5-0.7-1-1.4-1.5-2.2c-1.5-2.2-3-4.5-4.5-6.8c-0.9-1.4-1.8-2.8-2.7-4.3
			c-2.8-4.6-5.4-9.4-7.5-14.5l-0.8-1.9c-0.2-0.7-0.5-1.3-0.7-2c-0.2-0.7-0.5-1.3-0.7-2l-0.6-2l-0.3-1l-0.1-0.5l-0.1-0.5l-0.3-1
			l-0.2-1.1c-0.2-0.7-0.3-1.4-0.4-2.1c-0.1-0.7-0.3-1.4-0.4-2.1c-0.9-5.6-1.3-11.3-1.6-16.9c0-0.7-0.1-1.4-0.1-2.1
			c0-0.7,0-1.4-0.1-2.1c0-1.4-0.1-2.8-0.1-4.2c0-1.4,0-2.8,0-4.2c0-1.4,0-2.8,0.1-4.1c0-1.4,0.1-2.7,0.2-4.1c0-0.7,0.1-1.4,0.2-2
			l0.1-1l0.1-1c0.3-2.7,0.7-5.4,1.2-8c0.5-2.6,1.2-5.2,2-7.6c0.2-0.6,0.4-1.2,0.6-1.8c0.2-0.6,0.5-1.2,0.7-1.8l0.4-0.9
			c0,0,0-0.1,0.1-0.1l0-0.1l0.1-0.2l0.2-0.4c0.3-0.6,0.5-1.1,0.8-1.7c0.3-0.6,0.6-1.1,0.8-1.6l0.4-0.8l0.2-0.4l0.2-0.3l0,0
			c0,0,0-0.1,0-0.2c0-0.1,0.1-0.2,0.1-0.4c0.1-0.4,0.2-1,0.3-1.7c0.3-1.5,0.6-3.7,0.9-6.3c0.1-1.3,0.2-2.8,0.3-4.3
			c0.1-1.5,0.1-3.1,0.1-4.8c0-0.8,0-1.7,0-2.5c0-0.4,0-0.9,0-1.3c0-0.4-0.1-0.9-0.1-1.3c0-0.9-0.1-1.7-0.2-2.6
			c-0.1-0.9-0.2-1.8-0.3-2.6c-0.1-0.9-0.2-1.8-0.4-2.6c-0.1-0.4-0.1-0.9-0.2-1.3l-0.1-0.6l-0.1-0.6c-0.2-0.8-0.3-1.7-0.5-2.5
			c-0.2-0.8-0.4-1.6-0.6-2.4c-0.2-0.8-0.4-1.6-0.7-2.3c-0.2-0.7-0.4-1.5-0.7-2.2c-0.3-0.7-0.5-1.4-0.7-2c-0.3-0.6-0.5-1.3-0.7-1.9
			c-0.2-0.6-0.5-1.2-0.7-1.7c-0.2-0.5-0.5-1.1-0.7-1.5C28.5,12.3,28.3,11.9,28.2,11.5c-0.3-0.4-0.4-0.7-0.6-1c-0.7-1.3-1.1-2-1.1-2
			s0.4,0.7,1.2,2C27.8,10.7,27.9,11.1,28.2,11.5z"/>
		<path class="st2" d="M9.8,91.4c5.1,0.7,10.8-1.6,10.8-1.6C52.5,80.2,69,103.4,69,103.4C42.5,118.6,9.8,91.4,9.8,91.4z"/>
		<path class="st3" d="M6.1,21.6c1.8,3.3,5.8,5.3,5.8,5.3C32,39.7,25,62.4,25,62.4C3.8,55.8,6.1,21.6,6.1,21.6z"/>
		<path class="st1" d="M9.8,94.9c2.9-4.4,2.6-10.6,2.6-10.6c2.2-33.1,34.5-39.8,34.5-39.8C53,74.8,9.8,94.9,9.8,94.9z"/>
		<path class="st4" d="M-0.3,8.2C5,8.8,10.4,5.9,10.4,5.9C41.1-6.7,61.3,19.4,61.3,19.4C36.8,38.2-0.3,8.2-0.3,8.2z"/>
		<path class="st5" d="M54.6,43.4c0.3,3.8,3.1,7.2,3.1,7.2c13.3,19.8-2.2,37.8-2.2,37.8C38.8,73.8,54.6,43.4,54.6,43.4z"/>
		<path class="st6" d="M39.8,277.3c0.5,0.2,1,0.4,1.5,0.6c0.5,0.2,1.1,0.3,1.7,0.4c0.3,0.1,0.6,0.1,0.9,0.1c0.3,0,0.6,0.1,0.9,0.1
			c0.6,0,1.3,0,1.9,0c0.2,0,0.3,0,0.5,0c0.2,0,0.3,0,0.5-0.1c0.3,0,0.6-0.1,0.9-0.2c0.3-0.1,0.6-0.2,0.9-0.2
			c0.3-0.1,0.6-0.2,0.9-0.3c0.3-0.1,0.6-0.2,0.9-0.3c0.1-0.1,0.3-0.1,0.4-0.2c0.1-0.1,0.3-0.1,0.4-0.2c0.5-0.2,1-0.5,1.4-0.8
			c0.4-0.3,0.8-0.5,1.1-0.7c0.6-0.5,1-0.7,1-0.7s-0.3,0.3-1,0.7c-0.3,0.2-0.7,0.4-1.1,0.7c-0.4,0.2-0.9,0.5-1.4,0.7
			c-0.1,0.1-0.3,0.1-0.4,0.2c-0.1,0.1-0.3,0.1-0.4,0.2c-0.3,0.1-0.6,0.2-0.8,0.3c-0.3,0.1-0.6,0.2-0.9,0.3c-0.3,0.1-0.6,0.2-0.9,0.2
			c-0.3,0.1-0.6,0.1-0.9,0.1c-0.2,0-0.3,0-0.5,0.1c-0.2,0-0.3,0-0.5,0c-0.6,0-1.2,0-1.9,0c-0.3,0-0.6-0.1-0.9-0.1
			c-0.3-0.1-0.6-0.1-0.9-0.2c-0.6-0.1-1.1-0.3-1.7-0.5c-0.5-0.2-1-0.4-1.5-0.6c-0.5-0.2-0.9-0.4-1.3-0.7c-0.8-0.5-1.4-0.9-1.8-1.2
			c-0.2-0.2-0.4-0.3-0.5-0.4c-0.4-0.8-0.8-1.6-1.3-2.3c-1.3-2.1-2.9-3.8-4.7-5.5c-1.7-1.7-3.6-3.2-5.4-5c-0.4-0.5-0.9-0.9-1.3-1.4
			c-0.2-0.2-0.4-0.5-0.7-0.7c-0.2-0.3-0.4-0.5-0.6-0.8c-0.4-0.5-0.8-1.1-1.2-1.7l-0.2-0.2l-0.1-0.2l-0.3-0.5
			c-0.2-0.3-0.4-0.6-0.6-0.9c-0.2-0.3-0.4-0.7-0.5-1l-0.1-0.3l-0.1-0.1l0-0.1c0,0,0,0,0-0.1l-0.2-0.6c-0.2-0.4-0.3-0.7-0.5-1.1
			c-0.1-0.4-0.3-0.8-0.4-1.2c-0.5-1.7-1-3.4-1.3-5.3c-0.3-1.9-0.6-3.9-0.8-6l-0.1-0.8l-0.1-0.8c0-0.5-0.1-1.1-0.1-1.6
			c-0.1-1.1-0.1-2.2-0.1-3.3c0-1.1,0-2.3-0.1-3.4c0-1.2,0-2.3,0-3.5c0-1.2,0-2.4,0.1-3.6c0-0.6,0-1.2,0.1-1.8c0-0.6,0-1.2,0.1-1.8
			c0.2-4.8,0.4-9.8,1.1-14.8c0.1-0.6,0.2-1.3,0.2-1.9c0.1-0.6,0.2-1.3,0.3-1.9l0.2-1l0.2-1l0.1-0.5l0.1-0.5l0.2-1l0.4-1.9
			c0.1-0.7,0.3-1.3,0.5-2c0.2-0.7,0.3-1.3,0.5-2l0.5-2c1.4-5.3,3.1-10.5,5-15.7c0.6-1.7,1.2-3.4,1.9-5.1c0,0.2,0,0.4,0,0.6
			c-0.1,1.4-0.2,3-0.2,4.7c0,0.8,0,1.7,0,2.6c0,0.4,0,0.9,0,1.3c0,0.4,0,0.9,0,1.4c0,0.5,0,0.9,0.1,1.4c0,0.5,0,0.9,0.1,1.4
			c0.1,0.9,0.1,1.9,0.3,2.8c0.2,1.9,0.5,3.7,0.9,5.5c0.1,0.4,0.2,0.9,0.3,1.3l0.2,0.7l0.2,0.6c0.1,0.4,0.2,0.8,0.4,1.3
			c0.1,0.4,0.3,0.8,0.4,1.2l0.2,0.6c0.1,0.2,0.1,0.4,0.2,0.6c0.2,0.4,0.3,0.8,0.5,1.1l0.2,0.6l0.3,0.5c0.2,0.3,0.3,0.7,0.5,1
			c0.2,0.4,0.4,0.7,0.5,1c0.2,0.3,0.4,0.6,0.5,0.9l0.1,0.2l0.1,0.2c0.1,0.1,0.2,0.3,0.3,0.4c0.2,0.3,0.4,0.6,0.6,0.8l0.1,0.2
			l0.2,0.2c0.1,0.1,0.2,0.2,0.3,0.4c0.2,0.2,0.4,0.5,0.6,0.7c0.1,0.1,0.2,0.2,0.3,0.4c0.1,0.1,0.2,0.2,0.3,0.3
			c0.2,0.2,0.4,0.4,0.6,0.6c0.2,0.2,0.4,0.4,0.6,0.6c0.2,0.2,0.4,0.3,0.6,0.5c0.2,0.2,0.4,0.3,0.6,0.5c0.1,0.1,0.2,0.2,0.3,0.2
			c0.1,0.1,0.2,0.1,0.3,0.2c0.8,0.5,1.5,1,2.2,1.3c0.7,0.3,1.2,0.7,1.7,0.8c1,0.4,1.6,0.6,1.6,0.6s-0.5-0.3-1.5-0.8
			c-0.5-0.2-1-0.6-1.7-1c-0.7-0.4-1.3-1-2.1-1.5c-0.1-0.1-0.2-0.1-0.3-0.2c-0.1-0.1-0.2-0.2-0.3-0.3c-0.2-0.2-0.4-0.4-0.6-0.5
			c-0.2-0.2-0.4-0.4-0.6-0.6c-0.2-0.2-0.4-0.4-0.6-0.6c-0.2-0.2-0.4-0.4-0.6-0.7c-0.1-0.1-0.2-0.2-0.3-0.3c-0.1-0.1-0.2-0.3-0.3-0.4
			c-0.2-0.3-0.4-0.5-0.6-0.8c-0.1-0.1-0.2-0.3-0.3-0.4l-0.1-0.2l-0.1-0.2c-0.2-0.3-0.4-0.6-0.5-0.9c-0.1-0.1-0.2-0.3-0.3-0.4
			l-0.1-0.2l-0.1-0.2c-0.2-0.3-0.3-0.7-0.5-1c-0.2-0.3-0.3-0.7-0.5-1c-0.2-0.4-0.3-0.7-0.5-1.1L31,196l-0.2-0.6
			c-0.1-0.4-0.3-0.8-0.4-1.2c-0.1-0.2-0.1-0.4-0.2-0.6l-0.2-0.6c-0.1-0.4-0.2-0.8-0.4-1.2c-0.1-0.4-0.2-0.9-0.3-1.3l-0.2-0.6
			l-0.1-0.7c-0.1-0.4-0.2-0.9-0.3-1.3c-0.3-1.8-0.5-3.6-0.7-5.5c-0.1-0.9-0.1-1.9-0.2-2.8c0-0.5,0-0.9,0-1.4c0-0.5,0-0.9,0-1.4
			c0-0.5,0-0.9,0-1.3c0-0.4,0-0.9,0-1.3c0-0.9,0.1-1.7,0.1-2.5c0.1-1.6,0.2-3.1,0.4-4.5c0.1-1.4,0.3-2.5,0.4-3.5
			c0.1-1,0.3-1.8,0.4-2.3c0-0.3,0.1-0.5,0.2-0.8c0.1-0.6,0.4-1.1,0.6-1.7c0.2-0.6,0.4-1.1,0.7-1.7c2-5.1,4-10.2,5.9-15.3
			c0.2-0.6,0.5-1.3,0.7-1.9l0.2-0.5l0.1-0.3l0.1-0.2l0.3-1c0.4-1.3,0.9-2.6,1.3-3.8c0.2-0.7,0.4-1.3,0.6-2l-1.7-0.6
			c-1,3.2-2.1,6.4-3.2,9.6c-1.8,5-3.7,10.1-5.7,15.2c-0.3,0.9-0.7,1.7-1,2.6c-1,2.7-2,5.4-3,8c-0.6,1.7-1.2,3.3-1.8,5
			c-1.9,5.3-3.6,10.7-5,16.2l-0.5,2c-0.2,0.7-0.3,1.4-0.5,2c-0.2,0.7-0.3,1.4-0.5,2l-0.4,2l-0.2,1l-0.1,0.5l-0.1,0.5l-0.2,1l-0.2,1
			c-0.1,0.7-0.2,1.3-0.3,2c-0.1,0.7-0.2,1.3-0.2,2c-0.6,5.2-0.8,10.2-0.9,15.1c0,0.6,0,1.2,0,1.8c0,0.6,0,1.2,0,1.8
			c0,1.2,0,2.4,0,3.6c0,1.2,0,2.4,0,3.5c0,1.2,0,2.3,0.1,3.5c0,1.1,0.1,2.3,0.2,3.4c0,0.6,0.1,1.1,0.1,1.6l0.1,0.8l0.1,0.8
			c0.2,2.1,0.5,4.2,0.9,6.1c0.4,2,0.9,3.7,1.4,5.4c0.1,0.4,0.3,0.8,0.4,1.2c0.2,0.4,0.3,0.8,0.5,1.1l0.2,0.6c0,0,0,0.1,0,0.1l0,0.1
			l0.1,0.1l0.1,0.3c0.2,0.3,0.4,0.7,0.5,1c0.2,0.3,0.4,0.6,0.6,1l0.3,0.5l0.2,0.2l0.1,0.2l0,0c0,0,0,0,0,0.1c0,0.1,0,0.2,0.1,0.3
			c0.1,0.3,0.2,0.7,0.3,1.3c0.2,1.1,0.5,2.8,0.7,4.9c0.1,1.1,0.2,2.2,0.3,3.5c0.1,1.2,0.1,2.6,0.1,4c0,0.7,0,1.4,0,2.2
			c0,0.4,0,0.7,0,1.1c0,0.4,0,0.8,0,1.1c0,0.8-0.1,1.5-0.1,2.3c0,0.8-0.1,1.6-0.2,2.4c-0.1,0.8-0.1,1.6-0.2,2.4
			c0,0.4-0.1,0.8-0.1,1.2l-0.1,0.6l-0.1,0.6c-0.1,0.8-0.2,1.6-0.4,2.4c-0.1,0.8-0.2,1.6-0.4,2.4c-0.1,0.8-0.3,1.6-0.4,2.3
			c-0.2,0.8-0.3,1.5-0.5,2.2c-0.2,0.7-0.3,1.4-0.5,2.1c-0.2,0.7-0.3,1.3-0.5,2c-0.2,0.6-0.3,1.2-0.5,1.8c-0.2,0.6-0.3,1.1-0.5,1.6
			c-0.2,0.5-0.3,1-0.4,1.4c-0.1,0.4-0.3,0.9-0.4,1.2c-0.5,1.5-0.8,2.3-0.8,2.3s0.3-0.8,0.8-2.3c0.1-0.4,0.3-0.8,0.4-1.2
			c0.1-0.4,0.3-0.9,0.5-1.4c0.2-0.5,0.3-1.1,0.5-1.6c0.2-0.6,0.4-1.2,0.5-1.8c0.2-0.6,0.3-1.3,0.5-2c0.2-0.7,0.3-1.4,0.5-2.1
			c0.2-0.7,0.3-1.5,0.5-2.2c0.2-0.8,0.3-1.5,0.5-2.3c0.2-0.8,0.3-1.6,0.4-2.4c0.1-0.8,0.3-1.6,0.4-2.4l0.1-0.6l0.1-0.6
			c0.1-0.4,0.1-0.8,0.2-1.2c0.1-0.8,0.2-1.6,0.3-2.5c0.1-0.8,0.2-1.6,0.2-2.4c0.1-0.8,0.1-1.6,0.2-2.4c0-0.4,0-0.8,0.1-1.2
			c0-0.4,0-0.8,0-1.1c0-0.8,0-1.5,0.1-2.2c0-1.4,0-2.8,0-4.1c0-1.3-0.1-2.5-0.2-3.6c-0.1-1.7-0.3-3.2-0.5-4.3c0,0,0,0,0.1,0.1
			c0.2,0.3,0.4,0.5,0.7,0.8c0.2,0.2,0.5,0.5,0.7,0.7c0.4,0.5,0.9,0.9,1.4,1.4c1.9,1.7,3.7,3.2,5.5,4.8c1.7,1.6,3.4,3.3,4.7,5.2
			c2.7,3.9,4.2,9.2,5,14.3c0.8,5.1,1.1,10,1.2,14.2c0.1,4.1,0.1,7.5,0.1,9.7c0,2.3,0,3.5,0,3.5s0-1.2,0.1-3.5c0-2.3,0.1-5.6,0-9.8
			c-0.1-4.2-0.3-9.1-1.1-14.4c-0.1-0.6-0.2-1.3-0.3-2c-0.1-0.6-0.3-1.3-0.4-1.9c0-0.2-0.1-0.3-0.1-0.5c0-0.2-0.1-0.3-0.1-0.5
			c-0.1-0.3-0.2-0.6-0.2-1c-0.1-0.3-0.2-0.7-0.3-1c-0.1-0.3-0.2-0.6-0.3-0.9c-0.4-1.2-0.8-2.4-1.3-3.5c0.4,0.3,1,0.7,1.7,1
			C38.9,276.8,39.3,277,39.8,277.3z"/>
		<path class="st7" d="M54.5,376.2c-0.2-0.4-0.5-0.8-0.8-1.3c-0.3-0.5-0.6-1-0.9-1.5c-0.3-0.5-0.6-1.1-0.9-1.7
			c-0.3-0.6-0.6-1.2-0.9-1.9c-0.3-0.6-0.6-1.3-0.9-2c-0.3-0.7-0.6-1.4-0.9-2.2c-0.3-0.7-0.6-1.5-0.9-2.3c-0.3-0.8-0.5-1.6-0.8-2.4
			c-0.3-0.8-0.5-1.7-0.7-2.5l-0.2-0.6l-0.2-0.6c-0.1-0.4-0.2-0.9-0.3-1.3c-0.2-0.9-0.4-1.7-0.5-2.6c-0.1-0.9-0.3-1.8-0.4-2.6
			c-0.1-0.9-0.2-1.8-0.3-2.6c0-0.4-0.1-0.9-0.1-1.3c0-0.4-0.1-0.9-0.1-1.3c-0.1-0.9-0.1-1.7-0.1-2.6c0-1.7,0-3.3,0-4.8
			c0-1.5,0.2-3,0.3-4.3c0.2-2.2,0.5-4,0.7-5.5c0,0-0.1,0.1-0.1,0.1c-0.4,0.5-0.7,1-1.1,1.5c-0.4,0.5-0.8,1-1.2,1.4
			c-0.8,1-1.6,1.9-2.3,2.8c-3.1,3.6-6.3,7-9.3,10.4c-0.7,0.8-1.4,1.6-2,2.4v-1.6c0.4-0.5,0.8-1,1.3-1.5c2.9-3.4,6.1-6.9,9.1-10.5
			c0.8-0.9,1.5-1.8,2.3-2.8c0.4-0.5,0.7-0.9,1.1-1.4c0.4-0.5,0.7-1,1.1-1.5c0.7-1,1.4-2,2.1-3l0.3-0.4l0.2-0.4l0.5-0.8
			c0.3-0.5,0.6-1,0.9-1.6c0.3-0.6,0.6-1.1,0.9-1.7l0.2-0.4l0.1-0.2l0.1-0.1c0-0.1,0,0,0-0.1l0.4-0.9c0.3-0.6,0.5-1.1,0.8-1.7
			c0.2-0.6,0.5-1.2,0.7-1.8c0.9-2.4,1.6-4.8,2.2-7.4c0.6-2.5,1-5.1,1.3-7.7l0.1-1l0.1-1c0.1-0.7,0.1-1.3,0.2-2
			c0.1-1.3,0.2-2.7,0.2-4c0.1-1.3,0-2.7,0-4c0-1.4,0-2.7-0.1-4.1c0-1.4-0.1-2.7-0.2-4.1c0-0.7-0.1-1.4-0.1-2.1
			c0-0.7-0.1-1.4-0.1-2.1c-0.4-5.5-0.9-11-2.1-16.4c-0.1-0.7-0.3-1.3-0.5-2c-0.2-0.7-0.3-1.3-0.5-2l-0.3-1l-0.3-1l-0.2-0.5l-0.2-0.5
			l-0.3-1l-0.7-1.9c-0.2-0.6-0.5-1.3-0.8-1.9c-0.3-0.6-0.5-1.3-0.8-1.9l-0.9-1.8c-2.5-4.9-5.5-9.5-8.8-13.9
			c-1.1-1.4-2.2-2.9-3.3-4.3c0,0.2,0.1,0.4,0.1,0.6c0.2,1.5,0.4,3.3,0.5,5.2c0,1,0.1,2,0.1,3c0,0.5,0,1,0,1.6c0,0.5,0,1.1,0,1.6
			c0,0.5-0.1,1.1-0.1,1.7c0,0.6-0.1,1.1-0.1,1.7c-0.1,1.1-0.2,2.3-0.4,3.5c-0.3,2.4-0.8,4.8-1.4,7.2c-0.2,0.6-0.3,1.2-0.5,1.8
			l-0.3,0.9l-0.3,0.9c-0.2,0.6-0.4,1.2-0.6,1.8c-0.2,0.6-0.5,1.2-0.7,1.8l-0.3,0.9c-0.1,0.3-0.2,0.6-0.4,0.9
			c-0.3,0.6-0.5,1.1-0.8,1.7l-0.4,0.9l-0.2,0.4v-4.1c0-0.1,0.1-0.3,0.1-0.4l0.3-0.9c0.2-0.6,0.4-1.2,0.6-1.7
			c0.2-0.6,0.3-1.2,0.5-1.8l0.3-0.9l0.2-0.9c0.1-0.6,0.3-1.2,0.4-1.8c0.5-2.4,0.9-4.7,1.1-7c0.1-1.1,0.2-2.3,0.2-3.4
			c0-0.6,0-1.1,0-1.6c0-0.5,0-1.1,0-1.6c0-0.5,0-1,0-1.6c0-0.5,0-1-0.1-1.5c0-1-0.1-1.9-0.2-2.8c-0.2-1.8-0.4-3.5-0.7-4.9
			c-0.3-1.5-0.5-2.7-0.8-3.7c-0.3-1-0.5-1.8-0.7-2.3c-0.1-0.3-0.2-0.5-0.3-0.8c-0.2-0.6-0.6-1-1-1.4c0,0,0,0,0,0v-5
			c0.4,0.5,0.8,1,1.3,1.6c0.6,0.7,1.2,1.4,1.7,2.1c1.8,2.2,3.6,4.5,5.3,6.7c1.1,1.4,2.1,2.8,3.2,4.2c3.3,4.5,6.4,9.3,8.9,14.5
			l0.9,1.9c0.3,0.7,0.6,1.3,0.8,2c0.3,0.7,0.6,1.3,0.8,2l0.7,2l0.3,1l0.2,0.5l0.2,0.5l0.3,1l0.3,1c0.2,0.7,0.3,1.4,0.5,2.1
			c0.1,0.7,0.3,1.4,0.4,2.1c1.1,5.6,1.6,11.2,1.9,16.8c0,0.7,0.1,1.4,0.1,2.1c0,0.7,0.1,1.4,0.1,2.1c0,1.4,0.1,2.8,0.1,4.1
			c0,1.4,0,2.8,0,4.1c0,1.4,0,2.7-0.1,4.1c0,1.4-0.1,2.7-0.2,4.1c-0.1,0.7-0.1,1.4-0.2,2l-0.1,1l-0.1,1c-0.3,2.7-0.8,5.3-1.4,7.9
			c-0.6,2.6-1.4,5.1-2.3,7.6c-0.2,0.6-0.5,1.2-0.7,1.8c-0.3,0.6-0.5,1.2-0.8,1.8l-0.4,0.9c0,0-0.1,0.1-0.1,0.1l-0.1,0.1l-0.1,0.2
			l-0.2,0.4c-0.3,0.6-0.6,1.1-0.9,1.7c-0.3,0.6-0.7,1.1-1,1.6l-0.5,0.8l-0.3,0.4l-0.2,0.3l0,0c0,0,0,0.1,0,0.2
			c0,0.1-0.1,0.2-0.1,0.4c-0.1,0.4-0.3,1-0.4,1.7c-0.3,1.5-0.7,3.7-1,6.3c-0.1,1.3-0.3,2.7-0.4,4.2c-0.1,1.5-0.1,3.1-0.1,4.8
			c0,0.8,0,1.7,0.1,2.5c0,0.4,0,0.9,0.1,1.3c0,0.4,0.1,0.9,0.1,1.3c0,0.9,0.2,1.7,0.2,2.6c0.1,0.9,0.2,1.7,0.3,2.6
			c0.2,0.9,0.3,1.7,0.5,2.6c0.1,0.4,0.2,0.9,0.3,1.3l0.1,0.6l0.2,0.6c0.2,0.8,0.4,1.7,0.6,2.5c0.2,0.8,0.5,1.6,0.7,2.4
			c0.3,0.8,0.5,1.6,0.8,2.3c0.3,0.7,0.5,1.5,0.8,2.2c0.3,0.7,0.6,1.4,0.9,2c0.3,0.6,0.6,1.3,0.9,1.9c0.3,0.6,0.6,1.1,0.9,1.7
			c0.3,0.5,0.5,1,0.8,1.5C54.1,375.3,54.4,375.7,54.5,376.2c0.3,0.3,0.5,0.7,0.7,1c0.8,1.3,1.3,2,1.3,2s-0.5-0.7-1.4-2
			C55,376.9,54.8,376.6,54.5,376.2z"/>
		<path class="st8" d="M70.6,154c-3.9-3.3-10-4.3-10-4.3c-32.2-8.5-34.2-36.9-34.2-36.9C57,113.7,70.6,154,70.6,154z"/>
		<path class="st6" d="M81.1,106.2c-4.2,2.9-6.8,8.5-6.8,8.5C57.6,143.6,29.7,138,29.7,138C38.7,108.8,81.1,106.2,81.1,106.2z"/>
		<path class="st9" d="M12.5,215.8c0.7-4.6-1.3-9.9-1.3-9.9C3,176.5,23.6,162,23.6,162C36.8,186.6,12.5,215.8,12.5,215.8z"/>
		<path class="st10" d="M61.1,335.6c-3.8-1.8-8.2-0.4-8.2-0.4C28.2,339.6,17,311,17,311C37.9,299.5,61.1,335.6,61.1,335.6z"/>
		<path class="st11" d="M17,269.9c4.5-0.2,8.2-3.7,8.2-3.7C47.1,250.1,71,271,71,271C55.9,291.9,17,269.9,17,269.9z"/>
		<path class="st12" d="M62.2,186.1c-2-4.7-7-8.4-7-8.4c-25-22-14-48.3-14-48.3C68.1,144,62.2,186.1,62.2,186.1z"/>
		<path class="st13" d="M23.6,298.5c4.5-0.2,8.2-3.7,8.2-3.7c21.9-16.2,45.8,4.8,45.8,4.8C62.5,320.6,23.6,298.5,23.6,298.5z"/>
		<path class="st14" d="M5.8,254.3c2.9,1.1,6.3-0.1,6.3-0.1c18.8-3.9,27.7,14.8,27.7,14.8C23.9,277.6,5.8,254.3,5.8,254.3z"/>
		<path class="st15" d="M71.9,183.7c-4.4-1.4-10-0.3-10-0.3c-30.3,3.4-41.3-18.2-41.3-18.2C47,156.5,71.9,183.7,71.9,183.7z"/>
		<path class="st16" d="M73.1,172.3c-3.4-0.3-6.9,1.6-6.9,1.6c-20.1,8.2-32.8-7.5-32.8-7.5C49.5,154.4,73.1,172.3,73.1,172.3z"/>
		<path class="st17" d="M42.7,226.7c1,3.4,4.1,6.4,4.1,6.4c15.4,17.5,5.8,34.5,5.8,34.5C35.4,254.9,42.7,226.7,42.7,226.7z"/>
		<path class="st0" d="M42.7,336.2c-1.6,2.3-1.3,5.5-1.3,5.5c-0.5,17-19.5,20.7-19.5,20.7C17.5,346.9,42.7,336.2,42.7,336.2z"/>
		<path class="st18" d="M30.4,198.5c1,3.4,4.1,6.4,4.1,6.4c15.4,17.5,5.8,34.5,5.8,34.5C23.1,226.8,30.4,198.5,30.4,198.5z"/>
		<path class="st19" d="M73.1,206.5c-4.6-0.6-9.9,1.5-9.9,1.5C34.1,217,19,196.8,19,196.8C43.3,183,73.1,206.5,73.1,206.5z"/>
		<path class="st19" d="M61.5,252.9c-2.3-4.1-7.1-7-7.1-7c-24.7-18-17.5-42.2-17.5-42.2C62.4,214.9,61.5,252.9,61.5,252.9z"/>
		<path class="st6" d="M33.1,186.3c2.9,3.7,8.1,5.9,8.1,5.9c27,14.3,23.3,39.2,23.3,39.2C37.5,224,33.1,186.3,33.1,186.3z"/>
		<path class="st20" d="M13.9,256.7c3.6,4,9.7,5.3,9.7,5.3c31.9,10.7,30,44.4,30,44.4C22.3,304.7,13.9,256.7,13.9,256.7z"/>
		<path class="st13" d="M32.2,335.3c-0.7,2.7,0.7,5.6,0.7,5.6c5.5,16.1-11,26.3-11,26.3C12.3,354.2,32.2,335.3,32.2,335.3z"/>
		<path class="st7" d="M6.5,232.9c1.2,3.9,5.1,6.9,5.1,6.9c18.8,18.2,6.9,40.5,6.9,40.5C-2.6,268.5,6.5,232.9,6.5,232.9z"/>
		<path class="st21" d="M69.1,334.8c-4-2.1-8.9-0.9-8.9-0.9c-27.1,3-37.3-27.1-37.3-27.1C46.5,296.2,69.1,334.8,69.1,334.8z"/>
		<path class="st13" d="M36.6,316.1c-2.6,1.1-4.6,3.8-4.6,3.8c-12.1,13.4-26.4,7.3-26.4,7.3C13.7,312.6,36.6,316.1,36.6,316.1z"/>
		<path class="st22" d="M25.2,340.4c-1.8-3.8-6.2-5.5-6.2-5.5c-21.9-12.1-12.6-41.4-12.6-41.4C29.9,297.7,25.2,340.4,25.2,340.4z"/>
		<path class="st21" d="M51.7,344.9c-3.6,2.9-6.2,7.9-6.2,7.9c-15.7,26.5-38,23.4-38,23.4C17.1,349.8,51.7,344.9,51.7,344.9z"/>
	</g>
</g>
<g id="Layer_2">
</g>
</svg>
