<?xml version="1.0" encoding="utf-8"?>
<!-- Generator: Adobe Illustrator 21.0.0, SVG Export Plug-In . SVG Version: 6.00 Build 0)  -->
<svg version="1.1" xmlns="http://www.w3.org/2000/svg" xmlns:xlink="http://www.w3.org/1999/xlink" x="0px" y="0px" width="380.5px"
	 height="53.3px" viewBox="0 0 380.5 53.3" style="enable-background:new 0 0 380.5 53.3;" xml:space="preserve">
<style type="text/css">
	.st0{clip-path:url(#SVGID_2_);fill:#B1916C;}
	.st1{clip-path:url(#SVGID_2_);fill:#918960;}
	.st2{clip-path:url(#SVGID_2_);fill:#A38E6B;}
	.st3{clip-path:url(#SVGID_2_);fill:#AB916E;}
	.st4{clip-path:url(#SVGID_2_);fill:#84825E;}
	.st5{clip-path:url(#SVGID_2_);fill:#B39487;}
	.st6{clip-path:url(#SVGID_2_);fill:#B39387;}
	.st7{clip-path:url(#SVGID_2_);fill:#857C5D;}
	.st8{clip-path:url(#SVGID_2_);fill:#8E8664;}
	.st9{clip-path:url(#SVGID_2_);fill:#988966;}
	.st10{clip-path:url(#SVGID_2_);fill:#AF9363;}
	.st11{clip-path:url(#SVGID_2_);fill:#A38D6A;}
	.st12{clip-path:url(#SVGID_2_);fill:#9F8D67;}
	.st13{clip-path:url(#SVGID_2_);fill:#827657;}
	.st14{clip-path:url(#SVGID_2_);fill:#B1936A;}
	.st15{clip-path:url(#SVGID_2_);fill:#B49371;}
	.st16{clip-path:url(#SVGID_2_);fill:#948866;}
	.st17{clip-path:url(#SVGID_2_);fill:#857B5D;}
	.st18{clip-path:url(#SVGID_2_);fill:#B1936D;}
	.st19{clip-path:url(#SVGID_2_);fill:#9F8E64;}
	.st20{clip-path:url(#SVGID_2_);fill:#A28F61;}
	.st21{clip-path:url(#SVGID_2_);fill:#B7988D;}
	.st22{clip-path:url(#SVGID_2_);fill:#AB8F6A;}
</style>
<g id="Layer_1">
	<g>
		<defs>
			<rect id="SVGID_1_" x="0" y="0.2" width="380.5" height="53"/>
		</defs>
		<clipPath id="SVGID_2_">
			<use xlink:href="#SVGID_1_"  style="overflow:visible;"/>
		</clipPath>
		<path class="st0" d="M9.6,62.6c0.1-4-2.7-7.3-2.7-7.3c-13-19.8,7.5-40.1,7.5-40.1C32,29.2,9.6,62.6,9.6,62.6z"/>
		<path class="st1" d="M369.5,28.4c-0.4,0.2-0.8,0.4-1.3,0.7c-0.5,0.3-1,0.5-1.5,0.7c-0.5,0.2-1.1,0.5-1.7,0.8
			c-0.6,0.3-1.2,0.5-1.9,0.8c-0.6,0.3-1.3,0.5-2,0.8c-0.7,0.3-1.4,0.5-2.2,0.8c-0.7,0.3-1.5,0.5-2.3,0.7c-0.8,0.2-1.6,0.5-2.4,0.7
			c-0.8,0.2-1.7,0.4-2.5,0.6l-0.6,0.1l-0.6,0.1c-0.4,0.1-0.9,0.2-1.3,0.3c-0.9,0.2-1.8,0.3-2.6,0.4c-0.9,0.1-1.8,0.3-2.7,0.4
			c-0.9,0.1-1.8,0.2-2.7,0.3c-0.4,0-0.9,0.1-1.3,0.1c-0.4,0-0.9,0.1-1.3,0.1c-0.9,0.1-1.7,0.1-2.6,0.1c-1.7,0-3.3,0-4.9,0
			c-1.5,0-3-0.1-4.4-0.2c-2.2-0.2-4-0.4-5.5-0.6c0,0,0.1,0.1,0.1,0.1c0.5,0.3,1,0.6,1.5,0.9c0.5,0.3,1,0.7,1.4,1
			c1,0.6,1.9,1.3,2.8,2c3.7,2.7,7.1,5.4,10.5,7.8c2,1.5,3.9,2.8,5.9,4.1h-1.5c-1.7-1.1-3.4-2.3-5.1-3.5c-3.5-2.5-6.9-5.1-10.6-7.7
			c-0.9-0.6-1.8-1.3-2.8-1.9c-0.5-0.3-1-0.6-1.4-0.9c-0.5-0.3-1-0.6-1.5-0.9c-1-0.6-2-1.2-3-1.8l-0.4-0.2l-0.4-0.2l-0.8-0.4
			c-0.5-0.3-1-0.5-1.6-0.8c-0.6-0.2-1.1-0.5-1.7-0.7l-0.4-0.2l-0.2-0.1l-0.1,0c-0.1,0,0,0-0.1,0l-0.9-0.3c-0.6-0.2-1.1-0.4-1.7-0.7
			c-0.6-0.2-1.2-0.4-1.8-0.6c-2.4-0.7-4.9-1.4-7.4-1.8c-2.5-0.5-5.2-0.8-7.8-1.1l-1-0.1l-1-0.1c-0.7,0-1.3-0.1-2-0.1
			c-1.3-0.1-2.7-0.1-4-0.1c-1.4,0-2.7,0-4.1,0c-1.4,0-2.7,0-4.1,0.1c-1.4,0-2.7,0.1-4.1,0.1c-0.7,0-1.4,0.1-2.1,0.1
			c-0.7,0-1.4,0.1-2.1,0.1c-5.5,0.3-11.1,0.8-16.5,1.7c-0.7,0.1-1.3,0.3-2,0.4c-0.7,0.1-1.3,0.3-2,0.4l-1,0.2l-1,0.3l-0.5,0.1
			l-0.5,0.1l-1,0.3l-1.9,0.6c-0.6,0.2-1.3,0.5-1.9,0.7c-0.6,0.2-1.3,0.5-1.9,0.7l-1.9,0.8c-4.9,2.1-9.6,4.7-14,7.4
			c-1.4,0.9-2.9,1.8-4.3,2.8c0.2,0,0.4,0,0.6-0.1c1.6-0.2,3.3-0.3,5.2-0.4c1,0,2-0.1,3-0.1c0.5,0,1,0,1.6,0c0.5,0,1.1,0,1.6,0
			c0.6,0,1.1,0,1.7,0.1c0.6,0,1.1,0.1,1.7,0.1c1.2,0.1,2.3,0.2,3.5,0.3c2.4,0.3,4.8,0.7,7.2,1.2c0.6,0.1,1.2,0.3,1.8,0.4l0.9,0.2
			l0.9,0.3c0.6,0.2,1.2,0.3,1.8,0.5c0.6,0.2,1.2,0.4,1.8,0.6l0.9,0.3c0.3,0.1,0.6,0.2,0.9,0.3c0.6,0.2,1.2,0.4,1.7,0.7l0.9,0.3
			l0.8,0.4c0.6,0.2,1.1,0.5,1.7,0.7c0.6,0.2,1.1,0.5,1.6,0.8c0.5,0.3,1,0.5,1.5,0.8h-2.8c-0.4-0.2-0.7-0.3-1.1-0.4
			c-0.6-0.2-1.1-0.4-1.7-0.6l-0.8-0.3l-0.9-0.3c-0.6-0.2-1.1-0.4-1.7-0.6c-0.3-0.1-0.6-0.2-0.9-0.3l-0.9-0.3
			c-0.6-0.2-1.2-0.3-1.8-0.5c-0.6-0.1-1.2-0.3-1.8-0.4l-0.9-0.2l-0.9-0.2c-0.6-0.1-1.2-0.2-1.8-0.4c-2.4-0.4-4.7-0.7-7-0.9
			c-1.1-0.1-2.3-0.2-3.4-0.2c-0.6,0-1.1,0-1.6,0c-0.5,0-1.1,0-1.6,0c-0.5,0-1,0-1.6,0c-0.5,0-1,0-1.5,0.1c-1,0-1.9,0.1-2.9,0.2
			c-1.8,0.2-3.5,0.3-5,0.6c-1.5,0.2-2.7,0.5-3.8,0.7c-1,0.2-1.8,0.4-2.3,0.6c-0.3,0.1-0.5,0.2-0.8,0.3c-0.6,0.2-1,0.5-1.4,0.9
			c-0.5,0.3-0.9,0.7-1.4,1c-0.7,0.5-1.4,1-2.1,1.5h-5.2c1.7-1.1,3.4-2.3,5.2-3.5c0.7-0.5,1.4-1,2.2-1.5c2.2-1.5,4.5-3,6.8-4.5
			c1.4-0.9,2.8-1.8,4.3-2.7c4.6-2.8,9.4-5.4,14.5-7.5l1.9-0.8c0.7-0.2,1.3-0.5,2-0.7c0.7-0.2,1.3-0.5,2-0.7l2-0.6l1-0.3l0.5-0.1
			l0.5-0.1l1-0.3l1.1-0.2c0.7-0.2,1.4-0.3,2.1-0.4c0.7-0.1,1.4-0.3,2.1-0.4c5.6-0.9,11.3-1.3,16.9-1.6c0.7,0,1.4-0.1,2.1-0.1
			c0.7,0,1.4,0,2.1-0.1c1.4,0,2.8-0.1,4.2-0.1c1.4,0,2.8,0,4.2,0c1.4,0,2.8,0,4.1,0.1c1.4,0,2.7,0.1,4.1,0.2c0.7,0,1.4,0.1,2,0.2
			l1,0.1l1,0.1c2.7,0.3,5.4,0.7,8,1.2c2.6,0.5,5.2,1.2,7.6,2c0.6,0.2,1.2,0.4,1.8,0.6c0.6,0.2,1.2,0.5,1.8,0.7l0.9,0.4
			c0,0,0.1,0,0.1,0.1l0.1,0l0.2,0.1l0.4,0.2c0.6,0.3,1.1,0.5,1.7,0.8c0.6,0.3,1.1,0.6,1.6,0.8l0.8,0.4l0.4,0.2l0.3,0.2l0,0
			c0,0,0.1,0,0.2,0c0.1,0,0.2,0.1,0.4,0.1c0.4,0.1,1,0.2,1.7,0.3c1.5,0.3,3.7,0.6,6.3,0.9c1.3,0.1,2.8,0.2,4.3,0.3
			c1.5,0.1,3.1,0.1,4.8,0.1c0.8,0,1.7,0,2.5,0c0.4,0,0.9,0,1.3,0c0.4,0,0.9-0.1,1.3-0.1c0.9,0,1.7-0.1,2.6-0.2
			c0.9-0.1,1.8-0.2,2.6-0.3c0.9-0.1,1.8-0.2,2.6-0.4c0.4-0.1,0.9-0.1,1.3-0.2l0.6-0.1l0.6-0.1c0.8-0.2,1.7-0.3,2.5-0.5
			c0.8-0.2,1.6-0.4,2.4-0.6c0.8-0.2,1.6-0.4,2.3-0.7c0.7-0.2,1.5-0.4,2.2-0.7c0.7-0.3,1.4-0.5,2-0.7c0.6-0.3,1.3-0.5,1.9-0.7
			c0.6-0.2,1.2-0.5,1.7-0.7c0.5-0.2,1.1-0.5,1.5-0.7C368.6,28.8,369,28.5,369.5,28.4c0.4-0.3,0.7-0.4,1-0.6c1.3-0.7,2-1.1,2-1.1
			s-0.7,0.4-2,1.2C370.2,28,369.9,28.2,369.5,28.4z"/>
		<path class="st2" d="M289.5,10c-0.7,5.1,1.6,10.8,1.6,10.8c9.6,31.9-13.5,48.5-13.5,48.5C262.3,42.7,289.5,10,289.5,10z"/>
		<path class="st3" d="M359.3,6.3c-3.3,1.8-5.3,5.8-5.3,5.8c-12.8,20.1-35.5,13.2-35.5,13.2C325.1,4.1,359.3,6.3,359.3,6.3z"/>
		<path class="st1" d="M286,10c4.4,2.9,10.6,2.6,10.6,2.6c33.1,2.2,39.8,34.5,39.8,34.5C306.1,53.3,286,10,286,10z"/>
		<path class="st4" d="M372.7,0c-0.6,5.2,2.3,10.7,2.3,10.7c12.6,30.7-13.4,50.9-13.4,50.9C342.8,37.1,372.7,0,372.7,0z"/>
		<path class="st5" d="M337.5,54.8c-3.8,0.3-7.2,3.1-7.2,3.1c-19.8,13.3-37.8-2.2-37.8-2.2C307.1,39,337.5,54.8,337.5,54.8z"/>
		<path class="st6" d="M103.7,40c-0.2,0.5-0.4,1-0.6,1.5c-0.2,0.5-0.3,1.1-0.4,1.7c-0.1,0.3-0.1,0.6-0.1,0.9c0,0.3-0.1,0.6-0.1,0.9
			c0,0.6,0,1.3,0,1.9c0,0.2,0,0.3,0,0.5c0,0.2,0,0.3,0.1,0.5c0,0.3,0.1,0.6,0.2,0.9c0.1,0.3,0.2,0.6,0.2,0.9
			c0.1,0.3,0.2,0.6,0.3,0.9c0.1,0.3,0.2,0.6,0.3,0.9c0.1,0.1,0.1,0.3,0.2,0.4c0.1,0.1,0.1,0.3,0.2,0.4c0.2,0.5,0.5,1,0.8,1.4
			c0.3,0.4,0.5,0.8,0.7,1.1c0.5,0.6,0.7,1,0.7,1s-0.3-0.3-0.7-1c-0.2-0.3-0.4-0.7-0.7-1.1c-0.2-0.4-0.5-0.9-0.7-1.4
			c-0.1-0.1-0.1-0.3-0.2-0.4c-0.1-0.1-0.1-0.3-0.2-0.4c-0.1-0.3-0.2-0.6-0.3-0.8c-0.1-0.3-0.2-0.6-0.3-0.9c-0.1-0.3-0.2-0.6-0.2-0.9
			c-0.1-0.3-0.1-0.6-0.1-0.9c0-0.2,0-0.3-0.1-0.5c0-0.2,0-0.3,0-0.5c0-0.6,0-1.2,0-1.9c0-0.3,0.1-0.6,0.1-0.9
			c0.1-0.3,0.1-0.6,0.2-0.9c0.1-0.6,0.3-1.1,0.5-1.7c0.2-0.5,0.4-1,0.6-1.5c0.2-0.5,0.4-0.9,0.7-1.3c0.5-0.8,0.9-1.4,1.2-1.8
			c0.2-0.2,0.3-0.4,0.4-0.5c0.8-0.4,1.6-0.8,2.3-1.3c2.1-1.3,3.8-2.9,5.5-4.7c1.7-1.7,3.2-3.6,5-5.4c0.5-0.4,0.9-0.9,1.4-1.3
			c0.2-0.2,0.5-0.4,0.7-0.7c0.3-0.2,0.5-0.4,0.8-0.6c0.5-0.4,1.1-0.8,1.7-1.2l0.2-0.2l0.2-0.1l0.5-0.3c0.3-0.2,0.6-0.4,0.9-0.6
			c0.3-0.2,0.7-0.4,1-0.5l0.3-0.1l0.1-0.1l0.1,0c0,0,0,0,0.1,0l0.6-0.2c0.4-0.2,0.7-0.3,1.1-0.5c0.4-0.1,0.8-0.3,1.2-0.4
			c1.7-0.5,3.4-1,5.3-1.3c1.9-0.3,3.9-0.6,6-0.8l0.8-0.1L143,16c0.5,0,1.1-0.1,1.6-0.1c1.1-0.1,2.2-0.1,3.3-0.1c1.1,0,2.3,0,3.4-0.1
			c1.2,0,2.3,0,3.5,0c1.2,0,2.4,0,3.6,0.1c0.6,0,1.2,0,1.8,0.1c0.6,0,1.2,0,1.8,0.1c4.8,0.2,9.8,0.4,14.8,1.1
			c0.6,0.1,1.3,0.2,1.9,0.2c0.6,0.1,1.3,0.2,1.9,0.3l1,0.2l1,0.2l0.5,0.1l0.5,0.1l1,0.2l1.9,0.4c0.7,0.1,1.3,0.3,2,0.5
			c0.7,0.2,1.3,0.3,2,0.5l2,0.5c5.3,1.4,10.5,3.1,15.7,5c1.7,0.6,3.4,1.2,5.1,1.9c-0.2,0-0.4,0-0.6,0c-1.4-0.1-3-0.2-4.7-0.2
			c-0.8,0-1.7,0-2.6,0c-0.4,0-0.9,0-1.3,0c-0.4,0-0.9,0-1.4,0c-0.5,0-0.9,0-1.4,0.1c-0.5,0-0.9,0-1.4,0.1c-0.9,0.1-1.9,0.1-2.8,0.3
			c-1.9,0.2-3.7,0.5-5.5,0.9c-0.4,0.1-0.9,0.2-1.3,0.3l-0.7,0.2l-0.6,0.2c-0.4,0.1-0.8,0.2-1.3,0.4c-0.4,0.1-0.8,0.3-1.2,0.4
			l-0.6,0.2c-0.2,0.1-0.4,0.1-0.6,0.2c-0.4,0.2-0.8,0.3-1.1,0.5l-0.6,0.2l-0.5,0.3c-0.3,0.2-0.7,0.3-1,0.5c-0.4,0.2-0.7,0.4-1,0.5
			c-0.3,0.2-0.6,0.4-0.9,0.5l-0.2,0.1l-0.2,0.1c-0.1,0.1-0.3,0.2-0.4,0.3c-0.3,0.2-0.6,0.4-0.8,0.6l-0.2,0.1l-0.2,0.2
			c-0.1,0.1-0.2,0.2-0.4,0.3c-0.2,0.2-0.5,0.4-0.7,0.6c-0.1,0.1-0.2,0.2-0.4,0.3c-0.1,0.1-0.2,0.2-0.3,0.3c-0.2,0.2-0.4,0.4-0.6,0.6
			c-0.2,0.2-0.4,0.4-0.6,0.6c-0.2,0.2-0.3,0.4-0.5,0.6c-0.2,0.2-0.3,0.4-0.5,0.6c-0.1,0.1-0.2,0.2-0.2,0.3c-0.1,0.1-0.1,0.2-0.2,0.3
			c-0.5,0.8-1,1.5-1.3,2.2c-0.3,0.7-0.7,1.2-0.8,1.7c-0.4,1-0.6,1.6-0.6,1.6s0.3-0.5,0.8-1.5c0.2-0.5,0.6-1,1-1.7
			c0.4-0.7,1-1.3,1.5-2.1c0.1-0.1,0.1-0.2,0.2-0.3c0.1-0.1,0.2-0.2,0.3-0.3c0.2-0.2,0.4-0.4,0.5-0.6c0.2-0.2,0.4-0.4,0.6-0.6
			c0.2-0.2,0.4-0.4,0.6-0.6c0.2-0.2,0.4-0.4,0.7-0.6c0.1-0.1,0.2-0.2,0.3-0.3c0.1-0.1,0.3-0.2,0.4-0.3c0.3-0.2,0.5-0.4,0.8-0.6
			c0.1-0.1,0.3-0.2,0.4-0.3l0.2-0.1l0.2-0.1c0.3-0.2,0.6-0.4,0.9-0.5c0.1-0.1,0.3-0.2,0.4-0.3l0.2-0.1l0.2-0.1
			c0.3-0.2,0.7-0.3,1-0.5c0.3-0.2,0.7-0.3,1-0.5c0.4-0.2,0.7-0.3,1.1-0.5l0.5-0.2l0.6-0.2c0.4-0.1,0.8-0.3,1.2-0.4
			c0.2-0.1,0.4-0.1,0.6-0.2l0.6-0.2c0.4-0.1,0.8-0.2,1.2-0.4c0.4-0.1,0.9-0.2,1.3-0.3l0.6-0.2l0.7-0.1c0.4-0.1,0.9-0.2,1.3-0.3
			c1.8-0.3,3.6-0.5,5.5-0.7c0.9-0.1,1.9-0.1,2.8-0.2c0.5,0,0.9,0,1.4,0c0.5,0,0.9,0,1.4,0c0.5,0,0.9,0,1.3,0c0.4,0,0.9,0,1.3,0
			c0.9,0,1.7,0.1,2.5,0.1c1.6,0.1,3.1,0.2,4.5,0.4c1.4,0.1,2.5,0.3,3.5,0.4c1,0.1,1.8,0.3,2.3,0.4c0.3,0,0.5,0.1,0.8,0.2
			c0.6,0.1,1.1,0.4,1.7,0.6c0.6,0.2,1.1,0.4,1.7,0.7c5.1,2,10.2,4,15.3,5.9c0.6,0.2,1.3,0.5,1.9,0.7l0.5,0.2l0.3,0.1l0.2,0.1l1,0.3
			c1.3,0.4,2.6,0.9,3.8,1.3c0.7,0.2,1.3,0.4,2,0.6l0.6-1.7c-3.2-1-6.4-2.1-9.6-3.2c-5-1.8-10.1-3.7-15.2-5.7c-0.9-0.3-1.7-0.7-2.6-1
			c-2.7-1-5.4-2-8-3c-1.7-0.6-3.3-1.2-5-1.8c-5.3-1.9-10.7-3.6-16.2-5l-2-0.5c-0.7-0.2-1.4-0.3-2-0.5c-0.7-0.2-1.4-0.3-2-0.5l-2-0.4
			l-1-0.2l-0.5-0.1l-0.5-0.1l-1-0.2l-1-0.2c-0.7-0.1-1.3-0.2-2-0.3c-0.7-0.1-1.3-0.2-2-0.2c-5.2-0.6-10.2-0.8-15.1-0.9
			c-0.6,0-1.2,0-1.8,0c-0.6,0-1.2,0-1.8,0c-1.2,0-2.4,0-3.6,0c-1.2,0-2.4,0-3.5,0c-1.2,0-2.3,0-3.5,0.1c-1.1,0-2.3,0.1-3.4,0.2
			c-0.6,0-1.1,0.1-1.6,0.1l-0.8,0.1l-0.8,0.1c-2.1,0.2-4.2,0.5-6.1,0.9c-2,0.4-3.7,0.9-5.4,1.4c-0.4,0.1-0.8,0.3-1.2,0.4
			c-0.4,0.2-0.8,0.3-1.1,0.5l-0.6,0.2c0,0-0.1,0-0.1,0l-0.1,0l-0.1,0.1l-0.3,0.1c-0.3,0.2-0.7,0.4-1,0.5c-0.3,0.2-0.6,0.4-1,0.6
			l-0.5,0.3l-0.2,0.2l-0.2,0.1l0,0c0,0,0,0-0.1,0c-0.1,0-0.2,0-0.3,0.1c-0.3,0.1-0.7,0.2-1.3,0.3c-1.1,0.2-2.8,0.5-4.9,0.7
			c-1.1,0.1-2.2,0.2-3.5,0.3c-1.2,0.1-2.6,0.1-4,0.1c-0.7,0-1.4,0-2.2,0c-0.4,0-0.7,0-1.1,0c-0.4,0-0.8,0-1.1,0
			c-0.8,0-1.5-0.1-2.3-0.1c-0.8,0-1.6-0.1-2.4-0.2c-0.8-0.1-1.6-0.1-2.4-0.2c-0.4,0-0.8-0.1-1.2-0.1l-0.6-0.1L94.5,21
			c-0.8-0.1-1.6-0.2-2.4-0.4c-0.8-0.1-1.6-0.2-2.4-0.4c-0.8-0.1-1.6-0.3-2.3-0.4c-0.8-0.2-1.5-0.3-2.2-0.5c-0.7-0.2-1.4-0.3-2.1-0.5
			c-0.7-0.2-1.3-0.3-2-0.5c-0.6-0.2-1.2-0.3-1.8-0.5c-0.6-0.2-1.1-0.3-1.6-0.5c-0.5-0.2-1-0.3-1.4-0.4c-0.4-0.1-0.9-0.3-1.2-0.4
			c-1.5-0.5-2.3-0.8-2.3-0.8s0.8,0.3,2.3,0.8c0.4,0.1,0.8,0.3,1.2,0.4c0.4,0.1,0.9,0.3,1.4,0.5c0.5,0.2,1.1,0.3,1.6,0.5
			c0.6,0.2,1.2,0.4,1.8,0.5c0.6,0.2,1.3,0.3,2,0.5c0.7,0.2,1.4,0.3,2.1,0.5c0.7,0.2,1.5,0.3,2.2,0.5c0.8,0.2,1.5,0.3,2.3,0.5
			c0.8,0.2,1.6,0.3,2.4,0.4c0.8,0.1,1.6,0.3,2.4,0.4l0.6,0.1l0.6,0.1c0.4,0.1,0.8,0.1,1.2,0.2c0.8,0.1,1.6,0.2,2.5,0.3
			c0.8,0.1,1.6,0.2,2.4,0.2c0.8,0.1,1.6,0.1,2.4,0.2c0.4,0,0.8,0,1.2,0.1c0.4,0,0.8,0,1.1,0c0.8,0,1.5,0,2.2,0.1c1.4,0,2.8,0,4.1,0
			c1.3,0,2.5-0.1,3.6-0.2c1.7-0.1,3.2-0.3,4.3-0.5c0,0,0,0-0.1,0.1c-0.3,0.2-0.5,0.4-0.8,0.7c-0.2,0.2-0.5,0.5-0.7,0.7
			c-0.5,0.4-0.9,0.9-1.4,1.4c-1.7,1.9-3.2,3.7-4.8,5.5c-1.6,1.7-3.3,3.4-5.2,4.7c-3.9,2.7-9.2,4.2-14.3,5c-5.1,0.8-10,1.1-14.2,1.2
			c-4.1,0.1-7.5,0.1-9.7,0.1c-2.3,0-3.5,0-3.5,0s1.2,0,3.5,0.1c2.3,0,5.6,0.1,9.8,0c4.2-0.1,9.1-0.3,14.4-1.1c0.6-0.1,1.3-0.2,2-0.3
			c0.6-0.1,1.3-0.3,1.9-0.4c0.2,0,0.3-0.1,0.5-0.1c0.2,0,0.3-0.1,0.5-0.1c0.3-0.1,0.6-0.2,1-0.2c0.3-0.1,0.7-0.2,1-0.3
			c0.3-0.1,0.6-0.2,0.9-0.3c1.2-0.4,2.4-0.8,3.5-1.3c-0.3,0.4-0.7,1-1,1.7C104.1,39.1,103.9,39.6,103.7,40z"/>
		<path class="st7" d="M4.7,54.8C5.1,54.5,5.6,54.3,6,54c0.5-0.3,1-0.6,1.5-0.9c0.5-0.3,1.1-0.6,1.7-0.9c0.6-0.3,1.2-0.6,1.9-0.9
			c0.6-0.3,1.3-0.6,2-0.9c0.7-0.3,1.4-0.6,2.2-0.9c0.7-0.3,1.5-0.6,2.3-0.9c0.8-0.3,1.6-0.5,2.4-0.8c0.8-0.3,1.7-0.5,2.5-0.7
			l0.6-0.2l0.6-0.2c0.4-0.1,0.9-0.2,1.3-0.3c0.9-0.2,1.7-0.4,2.6-0.5c0.9-0.1,1.8-0.3,2.6-0.4c0.9-0.1,1.8-0.2,2.6-0.3
			c0.4,0,0.9-0.1,1.3-0.1c0.4,0,0.9-0.1,1.3-0.1c0.9-0.1,1.7-0.1,2.6-0.1c1.7,0,3.3,0,4.8,0c1.5,0,3,0.2,4.3,0.3
			c2.2,0.2,4,0.5,5.5,0.7c0,0-0.1-0.1-0.1-0.1c-0.5-0.4-1-0.7-1.5-1.1c-0.5-0.4-1-0.8-1.4-1.2c-1-0.8-1.9-1.6-2.8-2.3
			c-3.6-3.1-7-6.3-10.4-9.3c-0.8-0.7-1.6-1.4-2.4-2h1.6c0.5,0.4,1,0.8,1.5,1.3c3.4,2.9,6.9,6.1,10.5,9.1c0.9,0.8,1.8,1.5,2.8,2.3
			c0.5,0.4,0.9,0.7,1.4,1.1c0.5,0.4,1,0.7,1.5,1.1c1,0.7,2,1.4,3,2.1l0.4,0.3l0.4,0.2l0.8,0.5c0.5,0.3,1,0.6,1.6,0.9
			c0.6,0.3,1.1,0.6,1.7,0.9l0.4,0.2l0.2,0.1L62,50c0.1,0,0,0,0.1,0l0.9,0.4c0.6,0.3,1.1,0.5,1.7,0.8c0.6,0.2,1.2,0.5,1.8,0.7
			c2.4,0.9,4.8,1.6,7.4,2.2c2.5,0.6,5.1,1,7.7,1.3l1,0.1l1,0.1c0.7,0.1,1.3,0.1,2,0.2c1.3,0.1,2.7,0.2,4,0.2c1.3,0.1,2.7,0,4,0
			c1.4,0,2.7,0,4.1-0.1c1.4,0,2.7-0.1,4.1-0.2c0.7,0,1.4-0.1,2.1-0.1c0.7,0,1.4-0.1,2.1-0.1c5.5-0.4,11-0.9,16.4-2.1
			c0.7-0.1,1.3-0.3,2-0.5c0.7-0.2,1.3-0.3,2-0.5l1-0.3l1-0.3l0.5-0.2l0.5-0.2l1-0.3l1.9-0.7c0.6-0.2,1.3-0.5,1.9-0.8
			c0.6-0.3,1.3-0.5,1.9-0.8l1.8-0.9c4.9-2.5,9.5-5.5,13.9-8.8c1.4-1.1,2.9-2.2,4.3-3.3c-0.2,0-0.4,0.1-0.6,0.1
			c-1.5,0.2-3.3,0.4-5.2,0.5c-1,0-2,0.1-3,0.1c-0.5,0-1,0-1.6,0c-0.5,0-1.1,0-1.6,0c-0.5,0-1.1-0.1-1.7-0.1c-0.6,0-1.1-0.1-1.7-0.1
			c-1.1-0.1-2.3-0.2-3.5-0.4c-2.4-0.3-4.8-0.8-7.2-1.4c-0.6-0.2-1.2-0.3-1.8-0.5l-0.9-0.3l-0.9-0.3c-0.6-0.2-1.2-0.4-1.8-0.6
			c-0.6-0.2-1.2-0.5-1.8-0.7l-0.9-0.3c-0.3-0.1-0.6-0.2-0.9-0.4c-0.6-0.3-1.1-0.5-1.7-0.8l-0.9-0.4l-0.4-0.2h4.1
			c0.1,0,0.3,0.1,0.4,0.1l0.9,0.3c0.6,0.2,1.2,0.4,1.7,0.6c0.6,0.2,1.2,0.3,1.8,0.5l0.9,0.3l0.9,0.2c0.6,0.1,1.2,0.3,1.8,0.4
			c2.4,0.5,4.7,0.9,7,1.1c1.1,0.1,2.3,0.2,3.4,0.2c0.6,0,1.1,0,1.6,0c0.5,0,1.1,0,1.6,0c0.5,0,1,0,1.6,0c0.5,0,1,0,1.5-0.1
			c1,0,1.9-0.1,2.8-0.2c1.8-0.2,3.5-0.4,4.9-0.7c1.5-0.3,2.7-0.5,3.7-0.8c1-0.3,1.8-0.5,2.3-0.7c0.3-0.1,0.5-0.2,0.8-0.3
			c0.6-0.2,1-0.6,1.4-1c0,0,0,0,0,0h5c-0.5,0.4-1,0.8-1.6,1.3c-0.7,0.6-1.4,1.2-2.1,1.7c-2.2,1.8-4.5,3.6-6.7,5.3
			c-1.4,1.1-2.8,2.1-4.2,3.2c-4.5,3.3-9.3,6.4-14.5,8.9l-1.9,0.9c-0.7,0.3-1.3,0.6-2,0.8c-0.7,0.3-1.3,0.6-2,0.8l-2,0.7l-1,0.3
			l-0.5,0.2l-0.5,0.2l-1,0.3l-1,0.3c-0.7,0.2-1.4,0.3-2.1,0.5c-0.7,0.1-1.4,0.3-2.1,0.4c-5.6,1.1-11.2,1.6-16.8,1.9
			c-0.7,0-1.4,0.1-2.1,0.1c-0.7,0-1.4,0.1-2.1,0.1c-1.4,0-2.8,0.1-4.1,0.1c-1.4,0-2.8,0-4.1,0c-1.4,0-2.7,0-4.1-0.1
			c-1.4,0-2.7-0.1-4.1-0.2c-0.7-0.1-1.4-0.1-2-0.2l-1-0.1l-1-0.1c-2.7-0.3-5.3-0.8-7.9-1.4c-2.6-0.6-5.1-1.4-7.6-2.3
			c-0.6-0.2-1.2-0.5-1.8-0.7c-0.6-0.3-1.2-0.5-1.8-0.8l-0.9-0.4c0,0-0.1-0.1-0.1-0.1l-0.1-0.1l-0.2-0.1l-0.4-0.2
			c-0.6-0.3-1.1-0.6-1.7-0.9c-0.6-0.3-1.1-0.7-1.6-1l-0.8-0.5L56,48.2L55.7,48l0,0c0,0-0.1,0-0.2,0c-0.1,0-0.2-0.1-0.4-0.1
			c-0.4-0.1-1-0.3-1.7-0.4c-1.5-0.3-3.7-0.7-6.3-1c-1.3-0.1-2.7-0.3-4.2-0.4c-1.5-0.1-3.1-0.1-4.8-0.1c-0.8,0-1.7,0-2.5,0.1
			c-0.4,0-0.9,0-1.3,0.1c-0.4,0-0.9,0.1-1.3,0.1c-0.9,0-1.7,0.2-2.6,0.2c-0.9,0.1-1.7,0.2-2.6,0.3c-0.9,0.2-1.7,0.3-2.6,0.5
			c-0.4,0.1-0.9,0.2-1.3,0.3l-0.6,0.1l-0.6,0.2c-0.8,0.2-1.7,0.4-2.5,0.6c-0.8,0.2-1.6,0.5-2.4,0.7c-0.8,0.3-1.6,0.5-2.3,0.8
			c-0.7,0.3-1.5,0.5-2.2,0.8c-0.7,0.3-1.4,0.6-2,0.9c-0.6,0.3-1.3,0.6-1.9,0.9c-0.6,0.3-1.1,0.6-1.7,0.9c-0.5,0.3-1,0.5-1.5,0.8
			C5.6,54.4,5.2,54.6,4.7,54.8c-0.3,0.3-0.7,0.5-1,0.7c-1.3,0.8-2,1.3-2,1.3s0.7-0.5,2-1.4C4,55.3,4.3,55,4.7,54.8z"/>
		<path class="st8" d="M226.9,70.9c3.3-3.9,4.3-10,4.3-10c8.5-32.2,36.9-34.2,36.9-34.2C267.2,57.3,226.9,70.9,226.9,70.9z"/>
		<path class="st6" d="M274.7,81.4c-2.9-4.2-8.5-6.8-8.5-6.8C237.3,57.9,242.9,30,242.9,30C272.1,39,274.7,81.4,274.7,81.4z"/>
		<path class="st9" d="M165.1,12.8c4.6,0.7,9.9-1.3,9.9-1.3c29.4-8.2,43.9,12.4,43.9,12.4C194.3,37.1,165.1,12.8,165.1,12.8z"/>
		<path class="st10" d="M45.3,61.3c1.8-3.8,0.4-8.2,0.4-8.2c-4.4-24.6,24.3-35.9,24.3-35.9C81.4,38.1,45.3,61.3,45.3,61.3z"/>
		<path class="st11" d="M111,17.2c0.2,4.5,3.7,8.2,3.7,8.2c16.2,21.9-4.8,45.8-4.8,45.8C89,56.1,111,17.2,111,17.2z"/>
		<path class="st12" d="M194.8,62.5c4.7-2,8.4-7,8.4-7c22-25,48.3-14,48.3-14C236.9,68.3,194.8,62.5,194.8,62.5z"/>
		<path class="st13" d="M82.4,23.9c0.2,4.5,3.7,8.2,3.7,8.2c16.2,21.9-4.8,45.8-4.8,45.8C60.4,62.8,82.4,23.9,82.4,23.9z"/>
		<path class="st14" d="M126.6,6c-1.1,2.9,0.1,6.3,0.1,6.3c3.9,18.8-14.8,27.7-14.8,27.7C103.4,24.1,126.6,6,126.6,6z"/>
		<path class="st15" d="M197.2,72.1c1.4-4.4,0.3-10,0.3-10c-3.4-30.3,18.2-41.3,18.2-41.3C224.4,47.3,197.2,72.1,197.2,72.1z"/>
		<path class="st16" d="M208.6,73.4c0.3-3.4-1.6-6.9-1.6-6.9c-8.2-20.1,7.5-32.8,7.5-32.8C226.5,49.8,208.6,73.4,208.6,73.4z"/>
		<path class="st17" d="M154.3,42.9c-3.4,1-6.4,4.1-6.4,4.1c-17.5,15.4-34.5,5.8-34.5,5.8C126,35.6,154.3,42.9,154.3,42.9z"/>
		<path class="st0" d="M44.7,42.9c-2.3-1.6-5.5-1.3-5.5-1.3c-17-0.5-20.7-19.5-20.7-19.5C34,17.7,44.7,42.9,44.7,42.9z"/>
		<path class="st18" d="M182.4,30.7c-3.4,1-6.4,4.1-6.4,4.1c-17.5,15.4-34.5,5.8-34.5,5.8C154.1,23.4,182.4,30.7,182.4,30.7z"/>
		<path class="st19" d="M174.4,73.4c0.6-4.6-1.5-9.9-1.5-9.9c-9-29.2,11.3-44.2,11.3-44.2C198,43.6,174.4,73.4,174.4,73.4z"/>
		<path class="st19" d="M128,61.7c4.1-2.3,7-7.1,7-7.1C153,29.9,177.2,37,177.2,37C166,62.7,128,61.7,128,61.7z"/>
		<path class="st6" d="M194.6,33.4c-3.7,2.9-5.9,8.1-5.9,8.1c-14.3,27-39.2,23.3-39.2,23.3C156.9,37.8,194.6,33.4,194.6,33.4z"/>
		<path class="st20" d="M124.2,14.2c-4,3.6-5.3,9.7-5.3,9.7c-10.7,31.9-44.4,30-44.4,30C76.3,22.5,124.2,14.2,124.2,14.2z"/>
		<path class="st13" d="M45.6,32.4c-2.7-0.7-5.6,0.7-5.6,0.7c-16.1,5.5-26.3-11-26.3-11C26.7,12.6,45.6,32.4,45.6,32.4z"/>
		<path class="st7" d="M148,6.8c-3.9,1.2-6.9,5.1-6.9,5.1c-18.2,18.8-40.5,6.9-40.5,6.9C112.4-2.4,148,6.8,148,6.8z"/>
		<path class="st21" d="M46.1,69.4c2.1-4,0.9-8.9,0.9-8.9c-3-27.1,27.1-37.3,27.1-37.3C84.7,46.7,46.1,69.4,46.1,69.4z"/>
		<path class="st13" d="M64.8,36.9c-1.1-2.6-3.8-4.6-3.8-4.6C47.6,20.1,53.8,5.9,53.8,5.9C68.3,14,64.8,36.9,64.8,36.9z"/>
		<path class="st22" d="M40.5,25.5c3.8-1.8,5.5-6.2,5.5-6.2C58.1-2.6,87.4,6.7,87.4,6.7C83.2,30.2,40.5,25.5,40.5,25.5z"/>
		<path class="st21" d="M36.1,51.9c-2.9-3.6-7.9-6.2-7.9-6.2C1.7,30,4.7,7.8,4.7,7.8C31.1,17.3,36.1,51.9,36.1,51.9z"/>
	</g>
</g>
<g id="Layer_2">
</g>
</svg>
