<?xml version="1.0" encoding="utf-8"?>
<!-- Generator: Adobe Illustrator 21.0.0, SVG Export Plug-In . SVG Version: 6.00 Build 0)  -->
<svg version="1.1" xmlns="http://www.w3.org/2000/svg" xmlns:xlink="http://www.w3.org/1999/xlink" x="0px" y="0px" width="380.5px"
	 height="81px" viewBox="0 0 380.5 81" style="enable-background:new 0 0 380.5 81;" xml:space="preserve">
<style type="text/css">
	.st0{fill:#B1916C;}
	.st1{fill:#918960;}
	.st2{fill:#A38E6B;}
	.st3{fill:#AB916E;}
	.st4{fill:#84825E;}
	.st5{fill:#B39487;}
	.st6{fill:#B39387;}
	.st7{fill:#857C5D;}
	.st8{fill:#8E8664;}
	.st9{fill:#988966;}
	.st10{fill:#AF9363;}
	.st11{fill:#A38D6A;}
	.st12{fill:#9F8D67;}
	.st13{fill:#827657;}
	.st14{fill:#B1936A;}
	.st15{fill:#B49371;}
	.st16{fill:#948866;}
	.st17{fill:#857B5D;}
	.st18{fill:#B1936D;}
	.st19{fill:#9F8E64;}
	.st20{fill:#A28F61;}
	.st21{fill:#B7988D;}
	.st22{fill:#AB8F6A;}
	.st23{fill:none;}
</style>
<g id="Layer_1">
	<path class="st0" d="M12.3,64.4c0,0-20.4-20.3-7.5-40.1c0,0,2.9-3.3,2.7-7.3C7.6,17,30,50.5,12.3,64.4z"/>
	<path class="st0" d="M196.3,65.4c0,0-20.4-20.3-7.5-40.1c0,0,2.9-3.3,2.7-7.3C191.6,18,214,51.5,196.3,65.4z"/>
	<path class="st1" d="M369.5,52.6c-0.4-0.2-0.8-0.4-1.3-0.7c-0.5-0.3-1-0.5-1.5-0.7c-0.5-0.2-1.1-0.5-1.7-0.8
		c-0.6-0.3-1.2-0.5-1.9-0.8c-0.6-0.3-1.3-0.5-2-0.8c-0.7-0.3-1.4-0.5-2.2-0.8c-0.7-0.3-1.5-0.5-2.3-0.7c-0.8-0.2-1.6-0.5-2.4-0.7
		c-0.8-0.2-1.7-0.4-2.5-0.6l-0.6-0.1l-0.6-0.1c-0.4-0.1-0.9-0.2-1.3-0.3c-0.9-0.2-1.8-0.3-2.6-0.4c-0.9-0.1-1.8-0.3-2.7-0.4
		c-0.9-0.1-1.8-0.2-2.7-0.3c-0.4,0-0.9-0.1-1.3-0.1c-0.4,0-0.9-0.1-1.3-0.1c-0.9-0.1-1.7-0.1-2.6-0.1c-1.7,0-3.3,0-4.9,0
		c-1.5,0-3,0.1-4.4,0.2c-2.2,0.2-4,0.4-5.5,0.6c0,0,0.1-0.1,0.1-0.1c0.5-0.3,1-0.6,1.5-0.9c0.5-0.3,1-0.7,1.4-1c1-0.6,1.9-1.3,2.8-2
		c3.7-2.7,7.1-5.4,10.5-7.8c2-1.5,3.9-2.8,5.9-4.1h-1.5c-1.7,1.1-3.4,2.3-5.1,3.5c-3.5,2.5-6.9,5.1-10.6,7.7
		c-0.9,0.6-1.8,1.3-2.8,1.9c-0.5,0.3-1,0.6-1.4,0.9c-0.5,0.3-1,0.6-1.5,0.9c-1,0.6-2,1.2-3,1.8l-0.4,0.2l-0.4,0.2l-0.8,0.4
		c-0.5,0.3-1,0.5-1.6,0.8c-0.6,0.2-1.1,0.5-1.7,0.7l-0.4,0.2l-0.2,0.1l-0.1,0c-0.1,0,0,0-0.1,0l-0.9,0.3c-0.6,0.2-1.1,0.4-1.7,0.7
		c-0.6,0.2-1.2,0.4-1.8,0.6c-2.4,0.7-4.9,1.4-7.4,1.8c-2.5,0.5-5.2,0.8-7.8,1.1l-1,0.1l-1,0.1c-0.7,0-1.3,0.1-2,0.1
		c-1.3,0.1-2.7,0.1-4,0.1c-1.4,0-2.7,0-4.1,0c-1.4,0-2.7,0-4.1-0.1c-1.4,0-2.7-0.1-4.1-0.1c-0.7,0-1.4-0.1-2.1-0.1
		c-0.7,0-1.4-0.1-2.1-0.1c-5.5-0.3-11.1-0.8-16.5-1.7c-0.7-0.1-1.3-0.3-2-0.4c-0.7-0.1-1.3-0.3-2-0.4l-1-0.2l-1-0.3l-0.5-0.1
		l-0.5-0.1l-1-0.3l-1.9-0.6c-0.6-0.2-1.3-0.5-1.9-0.7c-0.6-0.2-1.3-0.5-1.9-0.7l-1.9-0.8c-4.9-2.1-9.6-4.7-14-7.4
		c-1.4-0.9-2.9-1.8-4.3-2.8c0.2,0,0.4,0,0.6,0.1c1.6,0.2,3.3,0.3,5.2,0.4c1,0,2,0.1,3,0.1c0.5,0,1,0,1.6,0c0.5,0,1.1,0,1.6,0
		c0.6,0,1.1,0,1.7-0.1c0.6,0,1.1-0.1,1.7-0.1c1.2-0.1,2.3-0.2,3.5-0.3c2.4-0.3,4.8-0.7,7.2-1.2c0.6-0.1,1.2-0.3,1.8-0.4l0.9-0.2
		l0.9-0.3c0.6-0.2,1.2-0.3,1.8-0.5c0.6-0.2,1.2-0.4,1.8-0.6l0.9-0.3c0.3-0.1,0.6-0.2,0.9-0.3c0.6-0.2,1.2-0.4,1.7-0.7l0.9-0.3
		l0.8-0.4c0.6-0.2,1.1-0.5,1.7-0.7c0.6-0.2,1.1-0.5,1.6-0.8c0.5-0.3,1-0.5,1.5-0.8h-2.8c-0.4,0.2-0.7,0.3-1.1,0.4
		c-0.6,0.2-1.1,0.4-1.7,0.6l-0.8,0.3l-0.9,0.3c-0.6,0.2-1.1,0.4-1.7,0.6c-0.3,0.1-0.6,0.2-0.9,0.3l-0.9,0.3
		c-0.6,0.2-1.2,0.3-1.8,0.5c-0.6,0.1-1.2,0.3-1.8,0.4l-0.9,0.2l-0.9,0.2c-0.6,0.1-1.2,0.2-1.8,0.4c-2.4,0.4-4.7,0.7-7,0.9
		c-1.1,0.1-2.3,0.2-3.4,0.2c-0.6,0-1.1,0-1.6,0c-0.5,0-1.1,0-1.6,0c-0.5,0-1,0-1.6,0c-0.5,0-1,0-1.5-0.1c-1,0-1.9-0.1-2.9-0.2
		c-1.8-0.2-3.5-0.3-5-0.6c-1.5-0.2-2.7-0.5-3.8-0.7c-1-0.2-1.8-0.4-2.3-0.6c-0.3-0.1-0.5-0.2-0.8-0.3c-0.6-0.2-1-0.5-1.4-0.9
		c-0.5-0.3-0.9-0.7-1.4-1c-0.7-0.5-1.4-1-2.1-1.5h-5.2c1.7,1.1,3.4,2.3,5.2,3.5c0.7,0.5,1.4,1,2.2,1.5c2.2,1.5,4.5,3,6.8,4.5
		c1.4,0.9,2.8,1.8,4.3,2.7c4.6,2.8,9.4,5.4,14.5,7.5l1.9,0.8c0.7,0.2,1.3,0.5,2,0.7c0.7,0.2,1.3,0.5,2,0.7l2,0.6l1,0.3l0.5,0.1
		l0.5,0.1l1,0.3l1.1,0.2c0.7,0.2,1.4,0.3,2.1,0.4c0.7,0.1,1.4,0.3,2.1,0.4c5.6,0.9,11.3,1.3,16.9,1.6c0.7,0,1.4,0.1,2.1,0.1
		c0.7,0,1.4,0,2.1,0.1c1.4,0,2.8,0.1,4.2,0.1c1.4,0,2.8,0,4.2,0c1.4,0,2.8,0,4.1-0.1c1.4,0,2.7-0.1,4.1-0.2c0.7,0,1.4-0.1,2-0.2
		l1-0.1l1-0.1c2.7-0.3,5.4-0.7,8-1.2c2.6-0.5,5.2-1.2,7.6-2c0.6-0.2,1.2-0.4,1.8-0.6c0.6-0.2,1.2-0.5,1.8-0.7l0.9-0.4
		c0,0,0.1,0,0.1-0.1l0.1,0l0.2-0.1l0.4-0.2c0.6-0.3,1.1-0.5,1.7-0.8c0.6-0.3,1.1-0.6,1.6-0.8l0.8-0.4l0.4-0.2l0.3-0.2l0,0
		c0,0,0.1,0,0.2,0c0.1,0,0.2-0.1,0.4-0.1c0.4-0.1,1-0.2,1.7-0.3c1.5-0.3,3.7-0.6,6.3-0.9c1.3-0.1,2.8-0.2,4.3-0.3
		c1.5-0.1,3.1-0.1,4.8-0.1c0.8,0,1.7,0,2.5,0c0.4,0,0.9,0,1.3,0c0.4,0,0.9,0.1,1.3,0.1c0.9,0,1.7,0.1,2.6,0.2
		c0.9,0.1,1.8,0.2,2.6,0.3c0.9,0.1,1.8,0.2,2.6,0.4c0.4,0.1,0.9,0.1,1.3,0.2l0.6,0.1l0.6,0.1c0.8,0.2,1.7,0.3,2.5,0.5
		c0.8,0.2,1.6,0.4,2.4,0.6c0.8,0.2,1.6,0.4,2.3,0.7c0.7,0.2,1.5,0.4,2.2,0.7c0.7,0.3,1.4,0.5,2,0.7c0.6,0.3,1.3,0.5,1.9,0.7
		c0.6,0.2,1.2,0.5,1.7,0.7c0.5,0.2,1.1,0.5,1.5,0.7C368.6,52.2,369,52.5,369.5,52.6c0.4,0.3,0.7,0.4,1,0.6c1.3,0.7,2,1.1,2,1.1
		s-0.7-0.4-2-1.2C370.2,53,369.9,52.8,369.5,52.6z"/>
	<path class="st2" d="M277.5,11.7c0,0,23.2,16.6,13.5,48.5c0,0-2.3,5.7-1.6,10.8C289.5,71,262.3,38.3,277.5,11.7z"/>
	<path class="st3" d="M318.5,55.7c0,0,22.7-6.9,35.5,13.2c0,0,2,4,5.3,5.8C359.3,74.7,325.1,76.9,318.5,55.7z"/>
	<path class="st1" d="M336.4,33.8c0,0-6.7,32.3-39.8,34.5c0,0-6.2-0.2-10.6,2.6C286,71,306.1,27.7,336.4,33.8z"/>
	<path class="st4" d="M363.6,6.4c0,0,26.1,20.2,13.4,50.9c0,0-2.9,5.4-2.3,10.7C374.7,68,344.8,30.9,363.6,6.4z"/>
	<path class="st4" d="M122.2,9.1c0,0,26.1,20.2,13.4,50.9c0,0-2.9,5.4-2.3,10.7C133.4,70.7,103.4,33.6,122.2,9.1z"/>
	<path class="st4" d="M33.6,7.4c0,0,26.1,20.2,13.4,50.9c0,0-2.9,5.4-2.3,10.7C44.7,69,14.8,31.9,33.6,7.4z"/>
	<path class="st5" d="M210.6,19.5c0,0-4.3,23.3-28.1,25.4c0,0-4.4-0.1-7.6,2.1C175,47,188.8,15.6,210.6,19.5z"/>
	<path class="st6" d="M103.7,41c-0.2-0.5-0.4-1-0.6-1.5c-0.2-0.5-0.3-1.1-0.4-1.7c-0.1-0.3-0.1-0.6-0.1-0.9c0-0.3-0.1-0.6-0.1-0.9
		c0-0.6,0-1.3,0-1.9c0-0.2,0-0.3,0-0.5c0-0.2,0-0.3,0.1-0.5c0-0.3,0.1-0.6,0.2-0.9c0.1-0.3,0.2-0.6,0.2-0.9c0.1-0.3,0.2-0.6,0.3-0.9
		c0.1-0.3,0.2-0.6,0.3-0.9c0.1-0.1,0.1-0.3,0.2-0.4c0.1-0.1,0.1-0.3,0.2-0.4c0.2-0.5,0.5-1,0.8-1.4c0.3-0.4,0.5-0.8,0.7-1.1
		c0.5-0.6,0.7-1,0.7-1s-0.3,0.3-0.7,1c-0.2,0.3-0.4,0.7-0.7,1.1c-0.2,0.4-0.5,0.9-0.7,1.4c-0.1,0.1-0.1,0.3-0.2,0.4
		c-0.1,0.1-0.1,0.3-0.2,0.4c-0.1,0.3-0.2,0.6-0.3,0.8c-0.1,0.3-0.2,0.6-0.3,0.9c-0.1,0.3-0.2,0.6-0.2,0.9c-0.1,0.3-0.1,0.6-0.1,0.9
		c0,0.2,0,0.3-0.1,0.5c0,0.2,0,0.3,0,0.5c0,0.6,0,1.2,0,1.9c0,0.3,0.1,0.6,0.1,0.9c0.1,0.3,0.1,0.6,0.2,0.9c0.1,0.6,0.3,1.1,0.5,1.7
		c0.2,0.5,0.4,1,0.6,1.5c0.2,0.5,0.4,0.9,0.7,1.3c0.5,0.8,0.9,1.4,1.2,1.8c0.2,0.2,0.3,0.4,0.4,0.5c0.8,0.4,1.6,0.8,2.3,1.3
		c2.1,1.3,3.8,2.9,5.5,4.7c1.7,1.7,3.2,3.6,5,5.4c0.5,0.4,0.9,0.9,1.4,1.3c0.2,0.2,0.5,0.4,0.7,0.7c0.3,0.2,0.5,0.4,0.8,0.6
		c0.5,0.4,1.1,0.8,1.7,1.2l0.2,0.2l0.2,0.1l0.5,0.3c0.3,0.2,0.6,0.4,0.9,0.6c0.3,0.2,0.7,0.4,1,0.5l0.3,0.1l0.1,0.1l0.1,0
		c0,0,0,0,0.1,0l0.6,0.2c0.4,0.2,0.7,0.3,1.1,0.5c0.4,0.1,0.8,0.3,1.2,0.4c1.7,0.5,3.4,1,5.3,1.3c1.9,0.3,3.9,0.6,6,0.8l0.8,0.1
		L143,65c0.5,0,1.1,0.1,1.6,0.1c1.1,0.1,2.2,0.1,3.3,0.1c1.1,0,2.3,0,3.4,0.1c1.2,0,2.3,0,3.5,0c1.2,0,2.4,0,3.6-0.1
		c0.6,0,1.2,0,1.8-0.1c0.6,0,1.2,0,1.8-0.1c4.8-0.2,9.8-0.4,14.8-1.1c0.6-0.1,1.3-0.2,1.9-0.2c0.6-0.1,1.3-0.2,1.9-0.3l1-0.2l1-0.2
		l0.5-0.1l0.5-0.1l1-0.2l1.9-0.4c0.7-0.1,1.3-0.3,2-0.5c0.7-0.2,1.3-0.3,2-0.5l2-0.5c5.3-1.4,10.5-3.1,15.7-5
		c1.7-0.6,3.4-1.2,5.1-1.9c-0.2,0-0.4,0-0.6,0c-1.4,0.1-3,0.2-4.7,0.2c-0.8,0-1.7,0-2.6,0c-0.4,0-0.9,0-1.3,0c-0.4,0-0.9,0-1.4,0
		c-0.5,0-0.9,0-1.4-0.1c-0.5,0-0.9,0-1.4-0.1c-0.9-0.1-1.9-0.1-2.8-0.3c-1.9-0.2-3.7-0.5-5.5-0.9c-0.4-0.1-0.9-0.2-1.3-0.3l-0.7-0.2
		l-0.6-0.2c-0.4-0.1-0.8-0.2-1.3-0.4c-0.4-0.1-0.8-0.3-1.2-0.4l-0.6-0.2c-0.2-0.1-0.4-0.1-0.6-0.2c-0.4-0.2-0.8-0.3-1.1-0.5
		l-0.6-0.2l-0.5-0.3c-0.3-0.2-0.7-0.3-1-0.5c-0.4-0.2-0.7-0.4-1-0.5c-0.3-0.2-0.6-0.4-0.9-0.5l-0.2-0.1l-0.2-0.1
		c-0.1-0.1-0.3-0.2-0.4-0.3c-0.3-0.2-0.6-0.4-0.8-0.6l-0.2-0.1l-0.2-0.2c-0.1-0.1-0.2-0.2-0.4-0.3c-0.2-0.2-0.5-0.4-0.7-0.6
		c-0.1-0.1-0.2-0.2-0.4-0.3c-0.1-0.1-0.2-0.2-0.3-0.3c-0.2-0.2-0.4-0.4-0.6-0.6c-0.2-0.2-0.4-0.4-0.6-0.6c-0.2-0.2-0.3-0.4-0.5-0.6
		c-0.2-0.2-0.3-0.4-0.5-0.6c-0.1-0.1-0.2-0.2-0.2-0.3c-0.1-0.1-0.1-0.2-0.2-0.3c-0.5-0.8-1-1.5-1.3-2.2c-0.3-0.7-0.7-1.2-0.8-1.7
		c-0.4-1-0.6-1.6-0.6-1.6s0.3,0.5,0.8,1.5c0.2,0.5,0.6,1,1,1.7c0.4,0.7,1,1.3,1.5,2.1c0.1,0.1,0.1,0.2,0.2,0.3
		c0.1,0.1,0.2,0.2,0.3,0.3c0.2,0.2,0.4,0.4,0.5,0.6c0.2,0.2,0.4,0.4,0.6,0.6c0.2,0.2,0.4,0.4,0.6,0.6c0.2,0.2,0.4,0.4,0.7,0.6
		c0.1,0.1,0.2,0.2,0.3,0.3c0.1,0.1,0.3,0.2,0.4,0.3c0.3,0.2,0.5,0.4,0.8,0.6c0.1,0.1,0.3,0.2,0.4,0.3l0.2,0.1l0.2,0.1
		c0.3,0.2,0.6,0.4,0.9,0.5c0.1,0.1,0.3,0.2,0.4,0.3l0.2,0.1l0.2,0.1c0.3,0.2,0.7,0.3,1,0.5c0.3,0.2,0.7,0.3,1,0.5
		c0.4,0.2,0.7,0.3,1.1,0.5l0.5,0.2l0.6,0.2c0.4,0.1,0.8,0.3,1.2,0.4c0.2,0.1,0.4,0.1,0.6,0.2l0.6,0.2c0.4,0.1,0.8,0.2,1.2,0.4
		c0.4,0.1,0.9,0.2,1.3,0.3l0.6,0.2l0.7,0.1c0.4,0.1,0.9,0.2,1.3,0.3c1.8,0.3,3.6,0.5,5.5,0.7c0.9,0.1,1.9,0.1,2.8,0.2
		c0.5,0,0.9,0,1.4,0c0.5,0,0.9,0,1.4,0c0.5,0,0.9,0,1.3,0c0.4,0,0.9,0,1.3,0c0.9,0,1.7-0.1,2.5-0.1c1.6-0.1,3.1-0.2,4.5-0.4
		c1.4-0.1,2.5-0.3,3.5-0.4c1-0.1,1.8-0.3,2.3-0.4c0.3,0,0.5-0.1,0.8-0.2c0.6-0.1,1.1-0.4,1.7-0.6c0.6-0.2,1.1-0.4,1.7-0.7
		c5.1-2,10.2-4,15.3-5.9c0.6-0.2,1.3-0.5,1.9-0.7l0.5-0.2l0.3-0.1l0.2-0.1l1-0.3c1.3-0.4,2.6-0.9,3.8-1.3c0.7-0.2,1.3-0.4,2-0.6
		l0.6,1.7c-3.2,1-6.4,2.1-9.6,3.2c-5,1.8-10.1,3.7-15.2,5.7c-0.9,0.3-1.7,0.7-2.6,1c-2.7,1-5.4,2-8,3c-1.7,0.6-3.3,1.2-5,1.8
		c-5.3,1.9-10.7,3.6-16.2,5l-2,0.5c-0.7,0.2-1.4,0.3-2,0.5c-0.7,0.2-1.4,0.3-2,0.5l-2,0.4l-1,0.2l-0.5,0.1l-0.5,0.1l-1,0.2l-1,0.2
		c-0.7,0.1-1.3,0.2-2,0.3c-0.7,0.1-1.3,0.2-2,0.2c-5.2,0.6-10.2,0.8-15.1,0.9c-0.6,0-1.2,0-1.8,0c-0.6,0-1.2,0-1.8,0
		c-1.2,0-2.4,0-3.6,0c-1.2,0-2.4,0-3.5,0c-1.2,0-2.3,0-3.5-0.1c-1.1,0-2.3-0.1-3.4-0.2c-0.6,0-1.1-0.1-1.6-0.1l-0.8-0.1l-0.8-0.1
		c-2.1-0.2-4.2-0.5-6.1-0.9c-2-0.4-3.7-0.9-5.4-1.4c-0.4-0.1-0.8-0.3-1.2-0.4c-0.4-0.2-0.8-0.3-1.1-0.5l-0.6-0.2c0,0-0.1,0-0.1,0
		l-0.1,0l-0.1-0.1l-0.3-0.1c-0.3-0.2-0.7-0.4-1-0.5c-0.3-0.2-0.6-0.4-1-0.6l-0.5-0.3l-0.2-0.2l-0.2-0.1l0,0c0,0,0,0-0.1,0
		c-0.1,0-0.2,0-0.3-0.1c-0.3-0.1-0.7-0.2-1.3-0.3c-1.1-0.2-2.8-0.5-4.9-0.7c-1.1-0.1-2.2-0.2-3.5-0.3c-1.2-0.1-2.6-0.1-4-0.1
		c-0.7,0-1.4,0-2.2,0c-0.4,0-0.7,0-1.1,0c-0.4,0-0.8,0-1.1,0c-0.8,0-1.5,0.1-2.3,0.1c-0.8,0-1.6,0.1-2.4,0.2
		c-0.8,0.1-1.6,0.1-2.4,0.2c-0.4,0-0.8,0.1-1.2,0.1l-0.6,0.1L94.5,60c-0.8,0.1-1.6,0.2-2.4,0.4c-0.8,0.1-1.6,0.2-2.4,0.4
		c-0.8,0.1-1.6,0.3-2.3,0.4c-0.8,0.2-1.5,0.3-2.2,0.5c-0.7,0.2-1.4,0.3-2.1,0.5c-0.7,0.2-1.3,0.3-2,0.5c-0.6,0.2-1.2,0.3-1.8,0.5
		c-0.6,0.2-1.1,0.3-1.6,0.5c-0.5,0.2-1,0.3-1.4,0.4c-0.4,0.1-0.9,0.3-1.2,0.4c-1.5,0.5-2.3,0.8-2.3,0.8s0.8-0.3,2.3-0.8
		c0.4-0.1,0.8-0.3,1.2-0.4c0.4-0.1,0.9-0.3,1.4-0.5c0.5-0.2,1.1-0.3,1.6-0.5c0.6-0.2,1.2-0.4,1.8-0.5c0.6-0.2,1.3-0.3,2-0.5
		c0.7-0.2,1.4-0.3,2.1-0.5c0.7-0.2,1.5-0.3,2.2-0.5c0.8-0.2,1.5-0.3,2.3-0.5c0.8-0.2,1.6-0.3,2.4-0.4c0.8-0.1,1.6-0.3,2.4-0.4
		l0.6-0.1l0.6-0.1c0.4-0.1,0.8-0.1,1.2-0.2c0.8-0.1,1.6-0.2,2.5-0.3c0.8-0.1,1.6-0.2,2.4-0.2c0.8-0.1,1.6-0.1,2.4-0.2
		c0.4,0,0.8,0,1.2-0.1c0.4,0,0.8,0,1.1,0c0.8,0,1.5,0,2.2-0.1c1.4,0,2.8,0,4.1,0c1.3,0,2.5,0.1,3.6,0.2c1.7,0.1,3.2,0.3,4.3,0.5
		c0,0,0,0-0.1-0.1c-0.3-0.2-0.5-0.4-0.8-0.7c-0.2-0.2-0.5-0.5-0.7-0.7c-0.5-0.4-0.9-0.9-1.4-1.4c-1.7-1.9-3.2-3.7-4.8-5.5
		c-1.6-1.7-3.3-3.4-5.2-4.7c-3.9-2.7-9.2-4.2-14.3-5c-5.1-0.8-10-1.1-14.2-1.2c-4.1-0.1-7.5-0.1-9.7-0.1c-2.3,0-3.5,0-3.5,0
		s1.2,0,3.5-0.1c2.3,0,5.6-0.1,9.8,0c4.2,0.1,9.1,0.3,14.4,1.1c0.6,0.1,1.3,0.2,2,0.3c0.6,0.1,1.3,0.3,1.9,0.4
		c0.2,0,0.3,0.1,0.5,0.1c0.2,0,0.3,0.1,0.5,0.1c0.3,0.1,0.6,0.2,1,0.2c0.3,0.1,0.7,0.2,1,0.3c0.3,0.1,0.6,0.2,0.9,0.3
		c1.2,0.4,2.4,0.8,3.5,1.3c-0.3-0.4-0.7-1-1-1.7C104.1,41.9,103.9,41.4,103.7,41z"/>
	<path class="st7" d="M4.7,26.2C5.1,26.5,5.6,26.7,6,27c0.5,0.3,1,0.6,1.5,0.9c0.5,0.3,1.1,0.6,1.7,0.9c0.6,0.3,1.2,0.6,1.9,0.9
		c0.6,0.3,1.3,0.6,2,0.9c0.7,0.3,1.4,0.6,2.2,0.9c0.7,0.3,1.5,0.6,2.3,0.9c0.8,0.3,1.6,0.5,2.4,0.8c0.8,0.3,1.7,0.5,2.5,0.7l0.6,0.2
		l0.6,0.2c0.4,0.1,0.9,0.2,1.3,0.3c0.9,0.2,1.7,0.4,2.6,0.5c0.9,0.1,1.8,0.3,2.6,0.4c0.9,0.1,1.8,0.2,2.6,0.3c0.4,0,0.9,0.1,1.3,0.1
		c0.4,0,0.9,0.1,1.3,0.1c0.9,0.1,1.7,0.1,2.6,0.1c1.7,0,3.3,0,4.8,0c1.5,0,3-0.2,4.3-0.3c2.2-0.2,4-0.5,5.5-0.7c0,0-0.1,0.1-0.1,0.1
		c-0.5,0.4-1,0.7-1.5,1.1c-0.5,0.4-1,0.8-1.4,1.2c-1,0.8-1.9,1.6-2.8,2.3c-3.6,3.1-7,6.3-10.4,9.3c-0.8,0.7-1.6,1.4-2.4,2h1.6
		c0.5-0.4,1-0.8,1.5-1.3c3.4-2.9,6.9-6.1,10.5-9.1c0.9-0.8,1.8-1.5,2.8-2.3c0.5-0.4,0.9-0.7,1.4-1.1c0.5-0.4,1-0.7,1.5-1.1
		c1-0.7,2-1.4,3-2.1l0.4-0.3l0.4-0.2l0.8-0.5c0.5-0.3,1-0.6,1.6-0.9c0.6-0.3,1.1-0.6,1.7-0.9l0.4-0.2l0.2-0.1L62,31c0.1,0,0,0,0.1,0
		l0.9-0.4c0.6-0.3,1.1-0.5,1.7-0.8c0.6-0.2,1.2-0.5,1.8-0.7c2.4-0.9,4.8-1.6,7.4-2.2c2.5-0.6,5.1-1,7.7-1.3l1-0.1l1-0.1
		c0.7-0.1,1.3-0.1,2-0.2c1.3-0.1,2.7-0.2,4-0.2c1.3-0.1,2.7,0,4,0c1.4,0,2.7,0,4.1,0.1c1.4,0,2.7,0.1,4.1,0.2c0.7,0,1.4,0.1,2.1,0.1
		c0.7,0,1.4,0.1,2.1,0.1c5.5,0.4,11,0.9,16.4,2.1c0.7,0.1,1.3,0.3,2,0.5c0.7,0.2,1.3,0.3,2,0.5l1,0.3l1,0.3l0.5,0.2l0.5,0.2l1,0.3
		l1.9,0.7c0.6,0.2,1.3,0.5,1.9,0.8c0.6,0.3,1.3,0.5,1.9,0.8l1.8,0.9c4.9,2.5,9.5,5.5,13.9,8.8c1.4,1.1,2.9,2.2,4.3,3.3
		c-0.2,0-0.4-0.1-0.6-0.1c-1.5-0.2-3.3-0.4-5.2-0.5c-1,0-2-0.1-3-0.1c-0.5,0-1,0-1.6,0c-0.5,0-1.1,0-1.6,0c-0.5,0-1.1,0.1-1.7,0.1
		c-0.6,0-1.1,0.1-1.7,0.1c-1.1,0.1-2.3,0.2-3.5,0.4c-2.4,0.3-4.8,0.8-7.2,1.4c-0.6,0.2-1.2,0.3-1.8,0.5l-0.9,0.3l-0.9,0.3
		c-0.6,0.2-1.2,0.4-1.8,0.6c-0.6,0.2-1.2,0.5-1.8,0.7l-0.9,0.3c-0.3,0.1-0.6,0.2-0.9,0.4c-0.6,0.3-1.1,0.5-1.7,0.8l-0.9,0.4
		l-0.4,0.2h4.1c0.1,0,0.3-0.1,0.4-0.1l0.9-0.3c0.6-0.2,1.2-0.4,1.7-0.6c0.6-0.2,1.2-0.3,1.8-0.5l0.9-0.3l0.9-0.2
		c0.6-0.1,1.2-0.3,1.8-0.4c2.4-0.5,4.7-0.9,7-1.1c1.1-0.1,2.3-0.2,3.4-0.2c0.6,0,1.1,0,1.6,0c0.5,0,1.1,0,1.6,0c0.5,0,1,0,1.6,0
		c0.5,0,1,0,1.5,0.1c1,0,1.9,0.1,2.8,0.2c1.8,0.2,3.5,0.4,4.9,0.7c1.5,0.3,2.7,0.5,3.7,0.8c1,0.3,1.8,0.5,2.3,0.7
		c0.3,0.1,0.5,0.2,0.8,0.3c0.6,0.2,1,0.6,1.4,1c0,0,0,0,0,0h5c-0.5-0.4-1-0.8-1.6-1.3c-0.7-0.6-1.4-1.2-2.1-1.7
		c-2.2-1.8-4.5-3.6-6.7-5.3c-1.4-1.1-2.8-2.1-4.2-3.2c-4.5-3.3-9.3-6.4-14.5-8.9l-1.9-0.9c-0.7-0.3-1.3-0.6-2-0.8
		c-0.7-0.3-1.3-0.6-2-0.8l-2-0.7l-1-0.3l-0.5-0.2l-0.5-0.2l-1-0.3l-1-0.3c-0.7-0.2-1.4-0.3-2.1-0.5c-0.7-0.1-1.4-0.3-2.1-0.4
		c-5.6-1.1-11.2-1.6-16.8-1.9c-0.7,0-1.4-0.1-2.1-0.1c-0.7,0-1.4-0.1-2.1-0.1c-1.4,0-2.8-0.1-4.1-0.1c-1.4,0-2.8,0-4.1,0
		c-1.4,0-2.7,0-4.1,0.1c-1.4,0-2.7,0.1-4.1,0.2c-0.7,0.1-1.4,0.1-2,0.2l-1,0.1l-1,0.1c-2.7,0.3-5.3,0.8-7.9,1.4
		c-2.6,0.6-5.1,1.4-7.6,2.3c-0.6,0.2-1.2,0.5-1.8,0.7c-0.6,0.3-1.2,0.5-1.8,0.8l-0.9,0.4c0,0-0.1,0.1-0.1,0.1l-0.1,0.1l-0.2,0.1
		l-0.4,0.2c-0.6,0.3-1.1,0.6-1.7,0.9c-0.6,0.3-1.1,0.7-1.6,1l-0.8,0.5L56,32.8L55.7,33l0,0c0,0-0.1,0-0.2,0c-0.1,0-0.2,0.1-0.4,0.1
		c-0.4,0.1-1,0.3-1.7,0.4c-1.5,0.3-3.7,0.7-6.3,1c-1.3,0.1-2.7,0.3-4.2,0.4c-1.5,0.1-3.1,0.1-4.8,0.1c-0.8,0-1.7,0-2.5-0.1
		c-0.4,0-0.9,0-1.3-0.1c-0.4,0-0.9-0.1-1.3-0.1c-0.9,0-1.7-0.2-2.6-0.2c-0.9-0.1-1.7-0.2-2.6-0.3c-0.9-0.2-1.7-0.3-2.6-0.5
		c-0.4-0.1-0.9-0.2-1.3-0.3l-0.6-0.1l-0.6-0.2c-0.8-0.2-1.7-0.4-2.5-0.6c-0.8-0.2-1.6-0.5-2.4-0.7c-0.8-0.3-1.6-0.5-2.3-0.8
		c-0.7-0.3-1.5-0.5-2.2-0.8c-0.7-0.3-1.4-0.6-2-0.9c-0.6-0.3-1.3-0.6-1.9-0.9c-0.6-0.3-1.1-0.6-1.7-0.9c-0.5-0.3-1-0.5-1.5-0.8
		C5.6,26.6,5.2,26.4,4.7,26.2c-0.3-0.3-0.7-0.5-1-0.7c-1.3-0.8-2-1.3-2-1.3s0.7,0.5,2,1.4C4,25.7,4.3,26,4.7,26.2z"/>
	<path class="st8" d="M268.2,54.3c0,0-28.4-2-36.9-34.2c0,0-1-6.1-4.3-10C226.9,10.1,267.2,23.7,268.2,54.3z"/>
	<path class="st6" d="M242.9,51c0,0-5.6-27.9,23.3-44.6c0,0,5.6-2.6,8.5-6.8C274.7-0.4,272.1,42,242.9,51z"/>
	<path class="st9" d="M218.9,57.1c0,0-14.6,20.6-43.9,12.4c0,0-5.3-2-9.9-1.3C165.1,68.2,194.3,43.9,218.9,57.1z"/>
	<path class="st10" d="M69.9,63.8c0,0-28.6-11.2-24.3-35.9c0,0,1.4-4.4-0.4-8.2C45.3,19.7,81.4,42.9,69.9,63.8z"/>
	<path class="st11" d="M109.9,9.8c0,0,20.9,23.9,4.8,45.8c0,0-3.5,3.7-3.7,8.2C111,63.8,89,24.9,109.9,9.8z"/>
	<path class="st12" d="M253.8,47.3c0,0-26.3,10.9-48.3-14c0,0-3.6-5-8.4-7C197.2,26.2,239.3,20.4,253.8,47.3z"/>
	<path class="st13" d="M81.3,3.1c0,0,20.9,23.9,4.8,45.8c0,0-3.5,3.7-3.7,8.2C82.4,57.1,60.4,18.2,81.3,3.1z"/>
	<path class="st13" d="M295.6,14.5c0,0,20.9,23.9,4.8,45.8c0,0-3.5,3.7-3.7,8.2C296.7,68.5,274.7,29.6,295.6,14.5z"/>
	<path class="st13" d="M96,8.5c0,0,20.9,23.9,4.8,45.8c0,0-3.5,3.7-3.7,8.2C97.1,62.5,75,23.6,96,8.5z"/>
	<path class="st13" d="M370.8,39.5c0,0-21.5,23.4-45,9.7c0,0-4-3.1-8.5-2.8C317.2,46.5,353.5,20.4,370.8,39.5z"/>
	<path class="st14" d="M111.8,41c0,0,18.7,8.9,14.8,27.7c0,0-1.1,3.4-0.1,6.3C126.6,75,103.4,56.9,111.8,41z"/>
	<path class="st15" d="M215.6,60.2c0,0-21.6-11-18.2-41.3c0,0,1.1-5.5-0.3-10C197.2,8.9,224.4,33.7,215.6,60.2z"/>
	<path class="st16" d="M214.6,47.4c0,0-15.7-12.7-7.5-32.8c0,0,1.9-3.6,1.6-6.9C208.6,7.6,226.5,31.2,214.6,47.4z"/>
	<path class="st17" d="M133.4,30.1c0,0,16.9-9.5,34.5,5.8c0,0,3,3.1,6.4,4.1C174.3,40.1,146,47.4,133.4,30.1z"/>
	<path class="st17" d="M272,35.5c0,0,24.5-14.8,48.4,6.3c0,0,4,4.3,8.8,5.6C329.2,47.3,288.7,59.5,272,35.5z"/>
	<path class="st0" d="M18.5,58.9c0,0,3.7-19,20.7-19.5c0,0,3.2,0.3,5.5-1.3C44.7,38.1,34,63.3,18.5,58.9z"/>
	<path class="st18" d="M141.5,40.4c0,0,16.9-9.5,34.5,5.8c0,0,3,3.1,6.4,4.1C182.4,50.3,154.1,57.6,141.5,40.4z"/>
	<path class="st19" d="M184.2,61.7c0,0-20.2-15.1-11.3-44.2c0,0,2.1-5.2,1.5-9.9C174.4,7.6,198,37.4,184.2,61.7z"/>
	<path class="st19" d="M165.5,54c0,0-24.2,7.1-42.2-17.5c0,0-2.9-4.8-7-7.1C116.4,29.3,154.3,28.3,165.5,54z"/>
	<path class="st19" d="M336.8,43c0,0-24.2,7.1-42.2-17.5c0,0-2.9-4.8-7-7.1C287.7,18.3,325.7,17.3,336.8,43z"/>
	<path class="st6" d="M149.5,16.2c0,0,25-3.6,39.2,23.3c0,0,2.2,5.2,5.9,8.1C194.6,47.6,156.9,43.2,149.5,16.2z"/>
	<path class="st6" d="M369.2,26.4c0,0-16.9,18.7-45.1,7c0,0-5-2.6-9.7-2.5C314.4,30.9,346.3,10.3,369.2,26.4z"/>
	<path class="st20" d="M69.8,28.9c0,0,33.7-1.9,44.4,30c0,0,1.3,6.1,5.3,9.7C119.5,68.5,71.6,60.1,69.8,28.9z"/>
	<path class="st20" d="M46.8,10.5c0,0,33.7-1.9,44.4,30c0,0,1.3,6.1,5.3,9.7C96.5,50.2,48.6,41.8,46.8,10.5z"/>
	<path class="st13" d="M13.7,58.9c0,0,10.1-16.5,26.3-11c0,0,2.9,1.4,5.6,0.7C45.6,48.6,26.7,68.4,13.7,58.9z"/>
	<path class="st7" d="M100.5,62.2c0,0,22.4-11.9,40.5,6.9c0,0,3,3.8,6.9,5.1C148,74.2,112.4,83.4,100.5,62.2z"/>
	<path class="st21" d="M74.1,57.8c0,0-30.1-10.2-27.1-37.3c0,0,1.2-4.9-0.9-8.9C46.1,11.6,84.7,34.3,74.1,57.8z"/>
	<path class="st21" d="M283.1,59.5c0,0-30.1-10.2-27.1-37.3c0,0,1.2-4.9-0.9-8.9C255.1,13.3,293.7,35.9,283.1,59.5z"/>
	<path class="st13" d="M53.8,75.1c0,0-6.2-14.3,7.3-26.4c0,0,2.7-2,3.8-4.6C64.8,44.1,68.3,67,53.8,75.1z"/>
	<path class="st22" d="M87.4,74.3c0,0-29.3,9.3-41.4-12.6c0,0-1.7-4.3-5.5-6.2C40.5,55.5,83.2,50.8,87.4,74.3z"/>
	<path class="st21" d="M4.4,64.6c0,0-3.1-22.2,23.4-38c0,0,5.1-2.5,7.9-6.2C35.7,20.4,30.7,55,4.4,64.6z"/>
	<rect y="27.8" class="st23" width="380.5" height="53"/>
	<path class="st14" d="M12.8,13.6c0,0,18.7,8.9,14.8,27.7c0,0-1.1,3.4-0.1,6.3C27.6,47.6,4.4,29.5,12.8,13.6z"/>
</g>
<g id="Layer_2">
</g>
</svg>
