<?xml version="1.0" encoding="utf-8"?>
<!-- Generator: Adobe Illustrator 21.0.0, SVG Export Plug-In . SVG Version: 6.00 Build 0)  -->
<svg version="1.1" xmlns="http://www.w3.org/2000/svg" xmlns:xlink="http://www.w3.org/1999/xlink" x="0px" y="0px" width="52.9px"
	 height="381px" viewBox="0 0 52.9 381" style="enable-background:new 0 0 52.9 381;" xml:space="preserve">
<style type="text/css">
	.st0{clip-path:url(#SVGID_2_);fill:#B1916C;}
	.st1{clip-path:url(#SVGID_2_);fill:#918960;}
	.st2{clip-path:url(#SVGID_2_);fill:#A38E6B;}
	.st3{clip-path:url(#SVGID_2_);fill:#AB916E;}
	.st4{clip-path:url(#SVGID_2_);fill:#84825E;}
	.st5{clip-path:url(#SVGID_2_);fill:#B39487;}
	.st6{clip-path:url(#SVGID_2_);fill:#B39387;}
	.st7{clip-path:url(#SVGID_2_);fill:#857C5D;}
	.st8{clip-path:url(#SVGID_2_);fill:#8E8664;}
	.st9{clip-path:url(#SVGID_2_);fill:#988966;}
	.st10{clip-path:url(#SVGID_2_);fill:#AF9363;}
	.st11{clip-path:url(#SVGID_2_);fill:#A38D6A;}
	.st12{clip-path:url(#SVGID_2_);fill:#9F8D67;}
	.st13{clip-path:url(#SVGID_2_);fill:#827657;}
	.st14{clip-path:url(#SVGID_2_);fill:#B1936A;}
	.st15{clip-path:url(#SVGID_2_);fill:#B49371;}
	.st16{clip-path:url(#SVGID_2_);fill:#948866;}
	.st17{clip-path:url(#SVGID_2_);fill:#857B5D;}
	.st18{clip-path:url(#SVGID_2_);fill:#B1936D;}
	.st19{clip-path:url(#SVGID_2_);fill:#9F8E64;}
	.st20{clip-path:url(#SVGID_2_);fill:#A28F61;}
	.st21{clip-path:url(#SVGID_2_);fill:#B7988D;}
	.st22{clip-path:url(#SVGID_2_);fill:#AB8F6A;}
</style>
<g id="Layer_1">
	<g>
		<defs>
			
				<rect id="SVGID_1_" x="-163.8" y="164.2" transform="matrix(-1.836970e-16 1 -1 -1.836970e-16 217.0833 164.25)" width="380.5" height="53"/>
		</defs>
		<clipPath id="SVGID_2_">
			<use xlink:href="#SVGID_1_"  style="overflow:visible;"/>
		</clipPath>
		<path class="st0" d="M-9.5,10c4,0.1,7.3-2.7,7.3-2.7c19.8-13,40.1,7.5,40.1,7.5C23.9,32.5-9.5,10-9.5,10z"/>
		<path class="st1" d="M24.7,369.9c-0.2-0.4-0.4-0.8-0.7-1.3c-0.3-0.5-0.5-1-0.7-1.5c-0.2-0.5-0.5-1.1-0.8-1.7
			c-0.3-0.6-0.5-1.2-0.8-1.9c-0.3-0.6-0.5-1.3-0.8-2c-0.3-0.7-0.5-1.4-0.8-2.2c-0.3-0.7-0.5-1.5-0.7-2.3c-0.2-0.8-0.5-1.6-0.7-2.4
			c-0.2-0.8-0.4-1.7-0.6-2.5l-0.1-0.6l-0.1-0.6c-0.1-0.4-0.2-0.9-0.3-1.3c-0.2-0.9-0.3-1.8-0.4-2.6c-0.1-0.9-0.3-1.8-0.4-2.7
			c-0.1-0.9-0.2-1.8-0.3-2.7c0-0.4-0.1-0.9-0.1-1.3c0-0.4-0.1-0.9-0.1-1.3c-0.1-0.9-0.1-1.7-0.1-2.6c0-1.7,0-3.3,0-4.9
			c0-1.5,0.1-3,0.2-4.4c0.2-2.2,0.4-4,0.6-5.5c0,0-0.1,0.1-0.1,0.1c-0.3,0.5-0.6,1-0.9,1.5c-0.3,0.5-0.7,1-1,1.4
			c-0.6,1-1.3,1.9-2,2.8c-2.7,3.7-5.4,7.1-7.8,10.5c-1.5,2-2.8,3.9-4.1,5.9v-1.5c1.1-1.7,2.3-3.4,3.5-5.1c2.5-3.5,5.1-6.9,7.7-10.6
			c0.6-0.9,1.3-1.8,1.9-2.8c0.3-0.5,0.6-1,0.9-1.4c0.3-0.5,0.6-1,0.9-1.5c0.6-1,1.2-2,1.8-3l0.2-0.4l0.2-0.4l0.4-0.8
			c0.3-0.5,0.5-1,0.8-1.6c0.2-0.6,0.5-1.1,0.7-1.7l0.2-0.4l0.1-0.2l0-0.1c0-0.1,0,0,0-0.1l0.3-0.9c0.2-0.6,0.4-1.1,0.7-1.7
			c0.2-0.6,0.4-1.2,0.6-1.8c0.7-2.4,1.4-4.9,1.8-7.4c0.5-2.5,0.8-5.2,1.1-7.8l0.1-1l0.1-1c0-0.7,0.1-1.3,0.1-2
			c0.1-1.3,0.1-2.7,0.1-4c0-1.4,0-2.7,0-4.1c0-1.4,0-2.7-0.1-4.1c0-1.4-0.1-2.7-0.1-4.1c0-0.7-0.1-1.4-0.1-2.1
			c0-0.7-0.1-1.4-0.1-2.1c-0.3-5.5-0.8-11.1-1.7-16.5c-0.1-0.7-0.3-1.3-0.4-2c-0.1-0.7-0.3-1.3-0.4-2l-0.2-1l-0.3-1l-0.1-0.5
			l-0.1-0.5l-0.3-1l-0.6-1.9c-0.2-0.6-0.5-1.3-0.7-1.9c-0.2-0.6-0.5-1.3-0.7-1.9l-0.8-1.9c-2.1-4.9-4.7-9.6-7.4-14
			c-0.9-1.4-1.8-2.9-2.8-4.3c0,0.2,0,0.4,0.1,0.6c0.2,1.6,0.3,3.3,0.4,5.2c0,1,0.1,2,0.1,3c0,0.5,0,1,0,1.6c0,0.5,0,1.1,0,1.6
			c0,0.6,0,1.1-0.1,1.7c0,0.6-0.1,1.1-0.1,1.7c-0.1,1.2-0.2,2.3-0.3,3.5c-0.3,2.4-0.7,4.8-1.2,7.2c-0.1,0.6-0.3,1.2-0.4,1.8
			l-0.2,0.9l-0.3,0.9c-0.2,0.6-0.3,1.2-0.5,1.8c-0.2,0.6-0.4,1.2-0.6,1.8l-0.3,0.9c-0.1,0.3-0.2,0.6-0.3,0.9
			c-0.2,0.6-0.4,1.2-0.7,1.7l-0.3,0.9l-0.4,0.8c-0.2,0.6-0.5,1.1-0.7,1.7c-0.2,0.6-0.5,1.1-0.8,1.6c-0.3,0.5-0.5,1-0.8,1.5v-2.8
			c0.2-0.4,0.3-0.7,0.4-1.1c0.2-0.6,0.4-1.1,0.6-1.7l0.3-0.8l0.3-0.9c0.2-0.6,0.4-1.1,0.6-1.7c0.1-0.3,0.2-0.6,0.3-0.9l0.3-0.9
			c0.2-0.6,0.3-1.2,0.5-1.8c0.1-0.6,0.3-1.2,0.4-1.8l0.2-0.9l0.2-0.9c0.1-0.6,0.2-1.2,0.4-1.8c0.4-2.4,0.7-4.7,0.9-7
			c0.1-1.1,0.2-2.3,0.2-3.4c0-0.6,0-1.1,0-1.6c0-0.5,0-1.1,0-1.6c0-0.5,0-1,0-1.6c0-0.5,0-1-0.1-1.5c0-1-0.1-1.9-0.2-2.9
			c-0.2-1.8-0.3-3.5-0.6-5c-0.2-1.5-0.5-2.7-0.7-3.8c-0.2-1-0.4-1.8-0.6-2.3c-0.1-0.3-0.2-0.5-0.3-0.8c-0.2-0.6-0.5-1-0.9-1.4
			c-0.3-0.5-0.7-0.9-1-1.4c-0.5-0.7-1-1.4-1.5-2.1v-5.2c1.1,1.7,2.3,3.4,3.5,5.2c0.5,0.7,1,1.4,1.5,2.2c1.5,2.2,3,4.5,4.5,6.8
			c0.9,1.4,1.8,2.8,2.7,4.3c2.8,4.6,5.4,9.4,7.5,14.5l0.8,1.9c0.2,0.7,0.5,1.3,0.7,2c0.2,0.7,0.5,1.3,0.7,2l0.6,2l0.3,1l0.1,0.5
			l0.1,0.5l0.3,1l0.2,1.1c0.2,0.7,0.3,1.4,0.4,2.1c0.1,0.7,0.3,1.4,0.4,2.1c0.9,5.6,1.3,11.3,1.6,16.9c0,0.7,0.1,1.4,0.1,2.1
			c0,0.7,0,1.4,0.1,2.1c0,1.4,0.1,2.8,0.1,4.2c0,1.4,0,2.8,0,4.2c0,1.4,0,2.8-0.1,4.1c0,1.4-0.1,2.7-0.2,4.1c0,0.7-0.1,1.4-0.2,2
			l-0.1,1l-0.1,1c-0.3,2.7-0.7,5.4-1.2,8c-0.5,2.6-1.2,5.2-2,7.6c-0.2,0.6-0.4,1.2-0.6,1.8c-0.2,0.6-0.5,1.2-0.7,1.8l-0.4,0.9
			c0,0,0,0.1-0.1,0.1l0,0.1l-0.1,0.2l-0.2,0.4c-0.3,0.6-0.5,1.1-0.8,1.7c-0.3,0.6-0.6,1.1-0.8,1.6l-0.4,0.8l-0.2,0.4l-0.2,0.3l0,0
			c0,0,0,0.1,0,0.2c0,0.1-0.1,0.2-0.1,0.4c-0.1,0.4-0.2,1-0.3,1.7c-0.3,1.5-0.6,3.7-0.9,6.3c-0.1,1.3-0.2,2.8-0.3,4.3
			c-0.1,1.5-0.1,3.1-0.1,4.8c0,0.8,0,1.7,0,2.5c0,0.4,0,0.9,0,1.3c0,0.4,0.1,0.9,0.1,1.3c0,0.9,0.1,1.7,0.2,2.6
			c0.1,0.9,0.2,1.8,0.3,2.6c0.1,0.9,0.2,1.8,0.4,2.6c0.1,0.4,0.1,0.9,0.2,1.3l0.1,0.6l0.1,0.6c0.2,0.8,0.3,1.7,0.5,2.5
			c0.2,0.8,0.4,1.6,0.6,2.4c0.2,0.8,0.4,1.6,0.7,2.3c0.2,0.7,0.4,1.5,0.7,2.2c0.3,0.7,0.5,1.4,0.7,2c0.3,0.6,0.5,1.3,0.7,1.9
			c0.2,0.6,0.5,1.2,0.7,1.7c0.2,0.5,0.5,1.1,0.7,1.5C24.3,369,24.5,369.4,24.7,369.9c0.3,0.4,0.4,0.7,0.6,1c0.7,1.3,1.1,2,1.1,2
			s-0.4-0.7-1.2-2C25.1,370.6,24.9,370.3,24.7,369.9z"/>
		<path class="st2" d="M43,289.9c-5.1-0.7-10.8,1.6-10.8,1.6c-31.9,9.6-48.5-13.5-48.5-13.5C10.4,262.8,43,289.9,43,289.9z"/>
		<path class="st3" d="M46.8,359.7c-1.8-3.3-5.8-5.3-5.8-5.3c-20.1-12.8-13.2-35.5-13.2-35.5C49,325.5,46.8,359.7,46.8,359.7z"/>
		<path class="st1" d="M43,286.4c-2.9,4.4-2.6,10.6-2.6,10.6c-2.2,33.1-34.5,39.8-34.5,39.8C-0.2,306.5,43,286.4,43,286.4z"/>
		<path class="st4" d="M53.1,373.1c-5.2-0.6-10.7,2.3-10.7,2.3C11.7,388-8.5,362-8.5,362C16,343.2,53.1,373.1,53.1,373.1z"/>
		<path class="st5" d="M-1.7,337.9c-0.3-3.8-3.1-7.2-3.1-7.2c-13.3-19.8,2.2-37.8,2.2-37.8C14.1,307.5-1.7,337.9-1.7,337.9z"/>
		<path class="st6" d="M13,104.1c-0.5-0.2-1-0.4-1.5-0.6c-0.5-0.2-1.1-0.3-1.7-0.4c-0.3-0.1-0.6-0.1-0.9-0.1c-0.3,0-0.6-0.1-0.9-0.1
			c-0.6,0-1.3,0-1.9,0c-0.2,0-0.3,0-0.5,0c-0.2,0-0.3,0-0.5,0.1c-0.3,0-0.6,0.1-0.9,0.2c-0.3,0.1-0.6,0.2-0.9,0.2
			c-0.3,0.1-0.6,0.2-0.9,0.3c-0.3,0.1-0.6,0.2-0.9,0.3c-0.1,0.1-0.3,0.1-0.4,0.2c-0.1,0.1-0.3,0.1-0.4,0.2c-0.5,0.2-1,0.5-1.4,0.8
			c-0.4,0.3-0.8,0.5-1.1,0.7c-0.6,0.5-1,0.7-1,0.7s0.3-0.3,1-0.7c0.3-0.2,0.7-0.4,1.1-0.7c0.4-0.2,0.9-0.5,1.4-0.7
			c0.1-0.1,0.3-0.1,0.4-0.2c0.1-0.1,0.3-0.1,0.4-0.2c0.3-0.1,0.6-0.2,0.8-0.3c0.3-0.1,0.6-0.2,0.9-0.3c0.3-0.1,0.6-0.2,0.9-0.2
			c0.3-0.1,0.6-0.1,0.9-0.1c0.2,0,0.3,0,0.5-0.1c0.2,0,0.3,0,0.5,0c0.6,0,1.2,0,1.9,0c0.3,0,0.6,0.1,0.9,0.1
			c0.3,0.1,0.6,0.1,0.9,0.2c0.6,0.1,1.1,0.3,1.7,0.5c0.5,0.2,1,0.4,1.5,0.6c0.5,0.2,0.9,0.4,1.3,0.7c0.8,0.5,1.4,0.9,1.8,1.2
			c0.2,0.2,0.4,0.3,0.5,0.4c0.4,0.8,0.8,1.6,1.3,2.3c1.3,2.1,2.9,3.8,4.7,5.5c1.7,1.7,3.6,3.2,5.4,5c0.4,0.5,0.9,0.9,1.3,1.4
			c0.2,0.2,0.4,0.5,0.7,0.7c0.2,0.3,0.4,0.5,0.6,0.8c0.4,0.5,0.8,1.1,1.2,1.7l0.2,0.2l0.1,0.2l0.3,0.5c0.2,0.3,0.4,0.6,0.6,0.9
			c0.2,0.3,0.4,0.7,0.5,1l0.1,0.3l0.1,0.1l0,0.1c0,0,0,0,0,0.1l0.2,0.6c0.2,0.4,0.3,0.7,0.5,1.1c0.1,0.4,0.3,0.8,0.4,1.2
			c0.5,1.7,1,3.4,1.3,5.3c0.3,1.9,0.6,3.9,0.8,6l0.1,0.8l0.1,0.8c0,0.5,0.1,1.1,0.1,1.6c0.1,1.1,0.1,2.2,0.1,3.3
			c0,1.1,0,2.3,0.1,3.4c0,1.2,0,2.3,0,3.5c0,1.2,0,2.4-0.1,3.6c0,0.6,0,1.2-0.1,1.8c0,0.6,0,1.2-0.1,1.8c-0.2,4.8-0.4,9.8-1.1,14.8
			c-0.1,0.6-0.2,1.3-0.2,1.9c-0.1,0.6-0.2,1.3-0.3,1.9l-0.2,1l-0.2,1l-0.1,0.5l-0.1,0.5l-0.2,1l-0.4,1.9c-0.1,0.7-0.3,1.3-0.5,2
			c-0.2,0.7-0.3,1.3-0.5,2l-0.5,2c-1.4,5.3-3.1,10.5-5,15.7c-0.6,1.7-1.2,3.4-1.9,5.1c0-0.2,0-0.4,0-0.6c0.1-1.4,0.2-3,0.2-4.7
			c0-0.8,0-1.7,0-2.6c0-0.4,0-0.9,0-1.3c0-0.4,0-0.9,0-1.4c0-0.5,0-0.9-0.1-1.4c0-0.5,0-0.9-0.1-1.4c-0.1-0.9-0.1-1.9-0.3-2.8
			c-0.2-1.9-0.5-3.7-0.9-5.5c-0.1-0.4-0.2-0.9-0.3-1.3l-0.2-0.7l-0.2-0.6c-0.1-0.4-0.2-0.8-0.4-1.3c-0.1-0.4-0.3-0.8-0.4-1.2
			l-0.2-0.6c-0.1-0.2-0.1-0.4-0.2-0.6c-0.2-0.4-0.3-0.8-0.5-1.1l-0.2-0.6l-0.3-0.5c-0.2-0.3-0.3-0.7-0.5-1c-0.2-0.4-0.4-0.7-0.5-1
			c-0.2-0.3-0.4-0.6-0.5-0.9l-0.1-0.2l-0.1-0.2c-0.1-0.1-0.2-0.3-0.3-0.4c-0.2-0.3-0.4-0.6-0.6-0.8l-0.1-0.2l-0.2-0.2
			c-0.1-0.1-0.2-0.2-0.3-0.4c-0.2-0.2-0.4-0.5-0.6-0.7c-0.1-0.1-0.2-0.2-0.3-0.4c-0.1-0.1-0.2-0.2-0.3-0.3c-0.2-0.2-0.4-0.4-0.6-0.6
			c-0.2-0.2-0.4-0.4-0.6-0.6c-0.2-0.2-0.4-0.3-0.6-0.5c-0.2-0.2-0.4-0.3-0.6-0.5c-0.1-0.1-0.2-0.2-0.3-0.2c-0.1-0.1-0.2-0.1-0.3-0.2
			c-0.8-0.5-1.5-1-2.2-1.3c-0.7-0.3-1.2-0.7-1.7-0.8c-1-0.4-1.6-0.6-1.6-0.6s0.5,0.3,1.5,0.8c0.5,0.2,1,0.6,1.7,1
			c0.7,0.4,1.3,1,2.1,1.5c0.1,0.1,0.2,0.1,0.3,0.2c0.1,0.1,0.2,0.2,0.3,0.3c0.2,0.2,0.4,0.4,0.6,0.5c0.2,0.2,0.4,0.4,0.6,0.6
			c0.2,0.2,0.4,0.4,0.6,0.6c0.2,0.2,0.4,0.4,0.6,0.7c0.1,0.1,0.2,0.2,0.3,0.3c0.1,0.1,0.2,0.3,0.3,0.4c0.2,0.3,0.4,0.5,0.6,0.8
			c0.1,0.1,0.2,0.3,0.3,0.4l0.1,0.2l0.1,0.2c0.2,0.3,0.4,0.6,0.5,0.9c0.1,0.1,0.2,0.3,0.3,0.4l0.1,0.2l0.1,0.2
			c0.2,0.3,0.3,0.7,0.5,1c0.2,0.3,0.3,0.7,0.5,1c0.2,0.4,0.3,0.7,0.5,1.1l0.2,0.5l0.2,0.6c0.1,0.4,0.3,0.8,0.4,1.2
			c0.1,0.2,0.1,0.4,0.2,0.6l0.2,0.6c0.1,0.4,0.2,0.8,0.4,1.2c0.1,0.4,0.2,0.9,0.3,1.3l0.2,0.6l0.1,0.7c0.1,0.4,0.2,0.9,0.3,1.3
			c0.3,1.8,0.5,3.6,0.7,5.5c0.1,0.9,0.1,1.9,0.2,2.8c0,0.5,0,0.9,0,1.4c0,0.5,0,0.9,0,1.4c0,0.5,0,0.9,0,1.3c0,0.4,0,0.9,0,1.3
			c0,0.9-0.1,1.7-0.1,2.5c-0.1,1.6-0.2,3.1-0.4,4.5c-0.1,1.4-0.3,2.5-0.4,3.5c-0.1,1-0.3,1.8-0.4,2.3c0,0.3-0.1,0.5-0.2,0.8
			c-0.1,0.6-0.4,1.1-0.6,1.7c-0.2,0.6-0.4,1.1-0.7,1.7c-2,5.1-4,10.2-5.9,15.3c-0.2,0.6-0.5,1.3-0.7,1.9l-0.2,0.5l-0.1,0.3l-0.1,0.2
			l-0.3,1c-0.4,1.3-0.9,2.6-1.3,3.8c-0.2,0.7-0.4,1.3-0.6,2l1.7,0.6c1-3.2,2.1-6.4,3.2-9.6c1.8-5,3.7-10.1,5.7-15.2
			c0.3-0.9,0.7-1.7,1-2.6c1-2.7,2-5.4,3-8c0.6-1.7,1.2-3.3,1.8-5c1.9-5.3,3.6-10.7,5-16.2l0.5-2c0.2-0.7,0.3-1.4,0.5-2
			c0.2-0.7,0.3-1.4,0.5-2l0.4-2l0.2-1l0.1-0.5l0.1-0.5l0.2-1l0.2-1c0.1-0.7,0.2-1.3,0.3-2c0.1-0.7,0.2-1.3,0.2-2
			c0.6-5.2,0.8-10.2,0.9-15.1c0-0.6,0-1.2,0-1.8c0-0.6,0-1.2,0-1.8c0-1.2,0-2.4,0-3.6c0-1.2,0-2.4,0-3.5c0-1.2,0-2.3-0.1-3.5
			c0-1.1-0.1-2.3-0.2-3.4c0-0.6-0.1-1.1-0.1-1.6l-0.1-0.8l-0.1-0.8c-0.2-2.1-0.5-4.2-0.9-6.1c-0.4-2-0.9-3.7-1.4-5.4
			c-0.1-0.4-0.3-0.8-0.4-1.2c-0.2-0.4-0.3-0.8-0.5-1.1l-0.2-0.6c0,0,0-0.1,0-0.1l0-0.1l-0.1-0.1l-0.1-0.3c-0.2-0.3-0.4-0.7-0.5-1
			c-0.2-0.3-0.4-0.6-0.6-1l-0.3-0.5l-0.2-0.2l-0.1-0.2l0,0c0,0,0,0,0-0.1c0-0.1,0-0.2-0.1-0.3c-0.1-0.3-0.2-0.7-0.3-1.3
			c-0.2-1.1-0.5-2.8-0.7-4.9c-0.1-1.1-0.2-2.2-0.3-3.5c-0.1-1.2-0.1-2.6-0.1-4c0-0.7,0-1.4,0-2.2c0-0.4,0-0.7,0-1.1
			c0-0.4,0-0.8,0-1.1c0-0.8,0.1-1.5,0.1-2.3c0-0.8,0.1-1.6,0.2-2.4c0.1-0.8,0.1-1.6,0.2-2.4c0-0.4,0.1-0.8,0.1-1.2l0.1-0.6L32,95
			c0.1-0.8,0.2-1.6,0.4-2.4c0.1-0.8,0.2-1.6,0.4-2.4c0.1-0.8,0.3-1.6,0.4-2.3c0.2-0.8,0.3-1.5,0.5-2.2c0.2-0.7,0.3-1.4,0.5-2.1
			c0.2-0.7,0.3-1.3,0.5-2c0.2-0.6,0.3-1.2,0.5-1.8c0.2-0.6,0.3-1.1,0.5-1.6c0.2-0.5,0.3-1,0.4-1.4c0.1-0.4,0.3-0.9,0.4-1.2
			c0.5-1.5,0.8-2.3,0.8-2.3s-0.3,0.8-0.8,2.3c-0.1,0.4-0.3,0.8-0.4,1.2c-0.1,0.4-0.3,0.9-0.5,1.4c-0.2,0.5-0.3,1.1-0.5,1.6
			c-0.2,0.6-0.4,1.2-0.5,1.8c-0.2,0.6-0.3,1.3-0.5,2c-0.2,0.7-0.3,1.4-0.5,2.1c-0.2,0.7-0.3,1.5-0.5,2.2c-0.2,0.8-0.3,1.5-0.5,2.3
			c-0.2,0.8-0.3,1.6-0.4,2.4c-0.1,0.8-0.3,1.6-0.4,2.4l-0.1,0.6l-0.1,0.6c-0.1,0.4-0.1,0.8-0.2,1.2c-0.1,0.8-0.2,1.6-0.3,2.5
			c-0.1,0.8-0.2,1.6-0.2,2.4c-0.1,0.8-0.1,1.6-0.2,2.4c0,0.4,0,0.8-0.1,1.2c0,0.4,0,0.8,0,1.1c0,0.8,0,1.5-0.1,2.2
			c0,1.4,0,2.8,0,4.1c0,1.3,0.1,2.5,0.2,3.6c0.1,1.7,0.3,3.2,0.5,4.3c0,0,0,0-0.1-0.1c-0.2-0.3-0.4-0.5-0.7-0.8
			c-0.2-0.2-0.5-0.5-0.7-0.7c-0.4-0.5-0.9-0.9-1.4-1.4c-1.9-1.7-3.7-3.2-5.5-4.8c-1.7-1.6-3.4-3.3-4.7-5.2c-2.7-3.9-4.2-9.2-5-14.3
			c-0.8-5.1-1.1-10-1.2-14.2c-0.1-4.1-0.1-7.5-0.1-9.7c0-2.3,0-3.5,0-3.5s0,1.2-0.1,3.5c0,2.3-0.1,5.6,0,9.8
			c0.1,4.2,0.3,9.1,1.1,14.4c0.1,0.6,0.2,1.3,0.3,2c0.1,0.6,0.3,1.3,0.4,1.9c0,0.2,0.1,0.3,0.1,0.5c0,0.2,0.1,0.3,0.1,0.5
			c0.1,0.3,0.2,0.6,0.2,1c0.1,0.3,0.2,0.7,0.3,1c0.1,0.3,0.2,0.6,0.3,0.9c0.4,1.2,0.8,2.4,1.3,3.5c-0.4-0.3-1-0.7-1.7-1
			C14,104.5,13.5,104.3,13,104.1z"/>
		<path class="st7" d="M-1.7,5.2C-1.5,5.5-1.2,6-0.9,6.4c0.3,0.5,0.6,1,0.9,1.5C0.2,8.4,0.6,9,0.9,9.6c0.3,0.6,0.6,1.2,0.9,1.9
			c0.3,0.6,0.6,1.3,0.9,2c0.3,0.7,0.6,1.4,0.9,2.2c0.3,0.7,0.6,1.5,0.9,2.3c0.3,0.8,0.5,1.6,0.8,2.4C5.5,21.2,5.8,22,6,22.8l0.2,0.6
			l0.2,0.6c0.1,0.4,0.2,0.9,0.3,1.3C6.8,26.3,7,27.2,7.1,28c0.1,0.9,0.3,1.8,0.4,2.6c0.1,0.9,0.2,1.8,0.3,2.6c0,0.4,0.1,0.9,0.1,1.3
			c0,0.4,0.1,0.9,0.1,1.3c0.1,0.9,0.1,1.7,0.1,2.6c0,1.7,0,3.3,0,4.8c0,1.5-0.2,3-0.3,4.3c-0.2,2.2-0.5,4-0.7,5.5
			c0,0,0.1-0.1,0.1-0.1c0.4-0.5,0.7-1,1.1-1.5c0.4-0.5,0.8-1,1.2-1.4c0.8-1,1.6-1.9,2.3-2.8c3.1-3.6,6.3-7,9.3-10.4
			c0.7-0.8,1.4-1.6,2-2.4v1.6c-0.4,0.5-0.8,1-1.3,1.5c-2.9,3.4-6.1,6.9-9.1,10.5c-0.8,0.9-1.5,1.8-2.3,2.8c-0.4,0.5-0.7,0.9-1.1,1.4
			c-0.4,0.5-0.7,1-1.1,1.5c-0.7,1-1.4,2-2.1,3L6,57.2l-0.2,0.4l-0.5,0.8c-0.3,0.5-0.6,1-0.9,1.6c-0.3,0.6-0.6,1.1-0.9,1.7l-0.2,0.4
			l-0.1,0.2l-0.1,0.1c0,0.1,0,0,0,0.1l-0.4,0.9c-0.3,0.6-0.5,1.1-0.8,1.7c-0.2,0.6-0.5,1.2-0.7,1.8c-0.9,2.4-1.6,4.8-2.2,7.4
			c-0.6,2.5-1,5.1-1.3,7.7l-0.1,1l-0.1,1c-0.1,0.7-0.1,1.3-0.2,2c-0.1,1.3-0.2,2.7-0.2,4c-0.1,1.3,0,2.7,0,4c0,1.4,0,2.7,0.1,4.1
			c0,1.4,0.1,2.7,0.2,4.1c0,0.7,0.1,1.4,0.1,2.1c0,0.7,0.1,1.4,0.1,2.1c0.4,5.5,0.9,11,2.1,16.4c0.1,0.7,0.3,1.3,0.5,2
			c0.2,0.7,0.3,1.3,0.5,2l0.3,1l0.3,1l0.2,0.5l0.2,0.5l0.3,1l0.7,1.9c0.2,0.6,0.5,1.3,0.8,1.9c0.3,0.6,0.5,1.3,0.8,1.9l0.9,1.8
			c2.5,4.9,5.5,9.5,8.8,13.9c1.1,1.4,2.2,2.9,3.3,4.3c0-0.2-0.1-0.4-0.1-0.6c-0.2-1.5-0.4-3.3-0.5-5.2c0-1-0.1-2-0.1-3
			c0-0.5,0-1,0-1.6c0-0.5,0-1.1,0-1.6c0-0.5,0.1-1.1,0.1-1.7c0-0.6,0.1-1.1,0.1-1.7c0.1-1.1,0.2-2.3,0.4-3.5
			c0.3-2.4,0.8-4.8,1.4-7.2c0.2-0.6,0.3-1.2,0.5-1.8l0.3-0.9l0.3-0.9c0.2-0.6,0.4-1.2,0.6-1.8c0.2-0.6,0.5-1.2,0.7-1.8l0.3-0.9
			c0.1-0.3,0.2-0.6,0.4-0.9c0.3-0.6,0.5-1.1,0.8-1.7l0.4-0.9l0.2-0.4v4.1c0,0.1-0.1,0.3-0.1,0.4l-0.3,0.9c-0.2,0.6-0.4,1.2-0.6,1.7
			c-0.2,0.6-0.3,1.2-0.5,1.8l-0.3,0.9l-0.2,0.9c-0.1,0.6-0.3,1.2-0.4,1.8c-0.5,2.4-0.9,4.7-1.1,7c-0.1,1.1-0.2,2.3-0.2,3.4
			c0,0.6,0,1.1,0,1.6c0,0.5,0,1.1,0,1.6c0,0.5,0,1,0,1.6c0,0.5,0,1,0.1,1.5c0,1,0.1,1.9,0.2,2.8c0.2,1.8,0.4,3.5,0.7,4.9
			c0.3,1.5,0.5,2.7,0.8,3.7c0.3,1,0.5,1.8,0.7,2.3c0.1,0.3,0.2,0.5,0.3,0.8c0.2,0.6,0.6,1,1,1.4c0,0,0,0,0,0v5
			c-0.4-0.5-0.8-1-1.3-1.6c-0.6-0.7-1.2-1.4-1.7-2.1c-1.8-2.2-3.6-4.5-5.3-6.7c-1.1-1.4-2.1-2.8-3.2-4.2c-3.3-4.5-6.4-9.3-8.9-14.5
			l-0.9-1.9c-0.3-0.7-0.6-1.3-0.8-2c-0.3-0.7-0.6-1.3-0.8-2l-0.7-2l-0.3-1l-0.2-0.5l-0.2-0.5l-0.3-1l-0.3-1
			c-0.2-0.7-0.3-1.4-0.5-2.1c-0.1-0.7-0.3-1.4-0.4-2.1c-1.1-5.6-1.6-11.2-1.9-16.8c0-0.7-0.1-1.4-0.1-2.1c0-0.7-0.1-1.4-0.1-2.1
			c0-1.4-0.1-2.8-0.1-4.1c0-1.4,0-2.8,0-4.1c0-1.4,0-2.7,0.1-4.1c0-1.4,0.1-2.7,0.2-4.1c0.1-0.7,0.1-1.4,0.2-2l0.1-1l0.1-1
			c0.3-2.7,0.8-5.3,1.4-7.9c0.6-2.6,1.4-5.1,2.3-7.6C0,65.6,0.3,65,0.5,64.4c0.3-0.6,0.5-1.2,0.8-1.8l0.4-0.9c0,0,0.1-0.1,0.1-0.1
			l0.1-0.1L2,61.3l0.2-0.4c0.3-0.6,0.6-1.1,0.9-1.7c0.3-0.6,0.7-1.1,1-1.6l0.5-0.8l0.3-0.4l0.2-0.3l0,0c0,0,0-0.1,0-0.2
			c0-0.1,0.1-0.2,0.1-0.4c0.1-0.4,0.3-1,0.4-1.7c0.3-1.5,0.7-3.7,1-6.3c0.1-1.3,0.3-2.7,0.4-4.2c0.1-1.5,0.1-3.1,0.1-4.8
			c0-0.8,0-1.7-0.1-2.5c0-0.4,0-0.9-0.1-1.3c0-0.4-0.1-0.9-0.1-1.3c0-0.9-0.2-1.7-0.2-2.6c-0.1-0.9-0.2-1.7-0.3-2.6
			c-0.2-0.9-0.3-1.7-0.5-2.6c-0.1-0.4-0.2-0.9-0.3-1.3l-0.1-0.6L5.4,23c-0.2-0.8-0.4-1.7-0.6-2.5c-0.2-0.8-0.5-1.6-0.7-2.4
			c-0.3-0.8-0.5-1.6-0.8-2.3C3,15,2.7,14.3,2.4,13.6c-0.3-0.7-0.6-1.4-0.9-2c-0.3-0.6-0.6-1.3-0.9-1.9C0.4,9.1,0.1,8.5-0.2,8
			C-0.5,7.5-0.7,7-1,6.5C-1.3,6-1.6,5.6-1.7,5.2c-0.3-0.3-0.5-0.7-0.7-1c-0.8-1.3-1.3-2-1.3-2s0.5,0.7,1.4,2C-2.2,4.4-2,4.8-1.7,5.2
			z"/>
		<path class="st8" d="M-17.8,227.3c3.9,3.3,10,4.3,10,4.3c32.2,8.5,34.2,36.9,34.2,36.9C-4.2,267.6-17.8,227.3-17.8,227.3z"/>
		<path class="st6" d="M-28.3,275.1c4.2-2.9,6.8-8.5,6.8-8.5c16.7-28.8,44.6-23.3,44.6-23.3C14.1,272.6-28.3,275.1-28.3,275.1z"/>
		<path class="st9" d="M40.3,165.5c-0.7,4.6,1.3,9.9,1.3,9.9c8.2,29.4-12.4,43.9-12.4,43.9C16,194.7,40.3,165.5,40.3,165.5z"/>
		<path class="st10" d="M-8.2,45.7c3.8,1.8,8.2,0.4,8.2,0.4c24.6-4.4,35.9,24.3,35.9,24.3C15,81.8-8.2,45.7-8.2,45.7z"/>
		<path class="st11" d="M35.8,111.4c-4.5,0.2-8.2,3.7-8.2,3.7c-21.9,16.2-45.8-4.8-45.8-4.8C-3.1,89.4,35.8,111.4,35.8,111.4z"/>
		<path class="st12" d="M-9.4,195.2c2,4.7,7,8.4,7,8.4c25,22,14,48.3,14,48.3C-15.2,237.3-9.4,195.2-9.4,195.2z"/>
		<path class="st13" d="M29.2,82.8C24.7,83,21,86.5,21,86.5c-21.9,16.2-45.8-4.8-45.8-4.8C-9.7,60.8,29.2,82.8,29.2,82.8z"/>
		<path class="st14" d="M47.1,127c-2.9-1.1-6.3,0.1-6.3,0.1c-18.8,3.9-27.7-14.8-27.7-14.8C28.9,103.8,47.1,127,47.1,127z"/>
		<path class="st15" d="M-19,197.6c4.4,1.4,10,0.3,10,0.3c30.3-3.4,41.3,18.2,41.3,18.2C5.8,224.8-19,197.6-19,197.6z"/>
		<path class="st16" d="M-20.3,209.1c3.4,0.3,6.9-1.6,6.9-1.6c20.1-8.2,32.8,7.5,32.8,7.5C3.3,226.9-20.3,209.1-20.3,209.1z"/>
		<path class="st17" d="M10.2,154.7c-1-3.4-4.1-6.4-4.1-6.4c-15.4-17.5-5.8-34.5-5.8-34.5C17.4,126.4,10.2,154.7,10.2,154.7z"/>
		<path class="st0" d="M10.2,45.1c1.6-2.3,1.3-5.5,1.3-5.5C12,22.7,31,19,31,19C35.3,34.4,10.2,45.1,10.2,45.1z"/>
		<path class="st18" d="M22.4,182.8c-1-3.4-4.1-6.4-4.1-6.4c-15.4-17.5-5.8-34.5-5.8-34.5C29.7,154.5,22.4,182.8,22.4,182.8z"/>
		<path class="st19" d="M-20.3,174.8c4.6,0.6,9.9-1.5,9.9-1.5c29.2-9,44.2,11.3,44.2,11.3C9.5,198.4-20.3,174.8-20.3,174.8z"/>
		<path class="st19" d="M-8.6,128.5c2.3,4.1,7.1,7,7.1,7c24.7,18,17.5,42.2,17.5,42.2C-9.6,166.4-8.6,128.5-8.6,128.5z"/>
		<path class="st6" d="M19.7,195.1c-2.9-3.7-8.1-5.9-8.1-5.9c-27-14.3-23.3-39.2-23.3-39.2C15.3,157.4,19.7,195.1,19.7,195.1z"/>
		<path class="st20" d="M38.9,124.6c-3.6-4-9.7-5.3-9.7-5.3c-31.9-10.7-30-44.4-30-44.4C30.6,76.7,38.9,124.6,38.9,124.6z"/>
		<path class="st13" d="M20.7,46c0.7-2.7-0.7-5.6-0.7-5.6c-5.5-16.1,11-26.3,11-26.3C40.5,27.1,20.7,46,20.7,46z"/>
		<path class="st7" d="M46.3,148.4c-1.2-3.9-5.1-6.9-5.1-6.9c-18.8-18.2-6.9-40.5-6.9-40.5C55.5,112.8,46.3,148.4,46.3,148.4z"/>
		<path class="st21" d="M-16.3,46.6c4,2.1,8.9,0.9,8.9,0.9c27.1-3,37.3,27.1,37.3,27.1C6.4,85.1-16.3,46.6-16.3,46.6z"/>
		<path class="st13" d="M16.2,65.2c2.6-1.1,4.6-3.8,4.6-3.8c12.1-13.4,26.4-7.3,26.4-7.3C39.1,68.8,16.2,65.2,16.2,65.2z"/>
		<path class="st22" d="M27.6,40.9c1.8,3.8,6.2,5.5,6.2,5.5c21.9,12.1,12.6,41.4,12.6,41.4C22.9,83.6,27.6,40.9,27.6,40.9z"/>
		<path class="st21" d="M1.1,36.5c3.6-2.9,6.2-7.9,6.2-7.9c15.7-26.5,38-23.4,38-23.4C35.8,31.5,1.1,36.5,1.1,36.5z"/>
	</g>
</g>
<g id="Layer_2">
</g>
</svg>
