<?xml version="1.0" encoding="utf-8"?>
<!-- Generator: Adobe Illustrator 21.0.0, SVG Export Plug-In . SVG Version: 6.00 Build 0)  -->
<svg version="1.1" xmlns="http://www.w3.org/2000/svg" xmlns:xlink="http://www.w3.org/1999/xlink" x="0px" y="0px" width="380.5px"
	 height="53.3px" viewBox="0 0 380.5 53.3" style="enable-background:new 0 0 380.5 53.3;" xml:space="preserve">
<style type="text/css">
	.st0{clip-path:url(#SVGID_2_);fill:#B1916C;}
	.st1{clip-path:url(#SVGID_2_);fill:#918960;}
	.st2{clip-path:url(#SVGID_2_);fill:#A38E6B;}
	.st3{clip-path:url(#SVGID_2_);fill:#AB916E;}
	.st4{clip-path:url(#SVGID_2_);fill:#84825E;}
	.st5{clip-path:url(#SVGID_2_);fill:#B39487;}
	.st6{clip-path:url(#SVGID_2_);fill:#B39387;}
	.st7{clip-path:url(#SVGID_2_);fill:#857C5D;}
	.st8{clip-path:url(#SVGID_2_);fill:#8E8664;}
	.st9{clip-path:url(#SVGID_2_);fill:#988966;}
	.st10{clip-path:url(#SVGID_2_);fill:#AF9363;}
	.st11{clip-path:url(#SVGID_2_);fill:#A38D6A;}
	.st12{clip-path:url(#SVGID_2_);fill:#9F8D67;}
	.st13{clip-path:url(#SVGID_2_);fill:#827657;}
	.st14{clip-path:url(#SVGID_2_);fill:#B1936A;}
	.st15{clip-path:url(#SVGID_2_);fill:#B49371;}
	.st16{clip-path:url(#SVGID_2_);fill:#948866;}
	.st17{clip-path:url(#SVGID_2_);fill:#857B5D;}
	.st18{clip-path:url(#SVGID_2_);fill:#B1936D;}
	.st19{clip-path:url(#SVGID_2_);fill:#9F8E64;}
	.st20{clip-path:url(#SVGID_2_);fill:#A28F61;}
	.st21{clip-path:url(#SVGID_2_);fill:#B7988D;}
	.st22{clip-path:url(#SVGID_2_);fill:#AB8F6A;}
</style>
<g id="Layer_1">
	<g>
		<defs>
			<rect id="SVGID_1_" y="0.2" width="380.5" height="53"/>
		</defs>
		<clipPath id="SVGID_2_">
			<use xlink:href="#SVGID_1_"  style="overflow:visible;"/>
		</clipPath>
		<path class="st0" d="M14.3,38.1c0,0-20.4-20.3-7.5-40.1c0,0,2.9-3.3,2.7-7.3C9.6-9.3,32,24.2,14.3,38.1z"/>
		<path class="st1" d="M369.5,24.9c-0.4-0.2-0.8-0.4-1.3-0.7c-0.5-0.3-1-0.5-1.5-0.7c-0.5-0.2-1.1-0.5-1.7-0.8
			c-0.6-0.3-1.2-0.5-1.9-0.8c-0.6-0.3-1.3-0.5-2-0.8c-0.7-0.3-1.4-0.5-2.2-0.8c-0.7-0.3-1.5-0.5-2.3-0.7c-0.8-0.2-1.6-0.5-2.4-0.7
			c-0.8-0.2-1.7-0.4-2.5-0.6l-0.6-0.1l-0.6-0.1c-0.4-0.1-0.9-0.2-1.3-0.3c-0.9-0.2-1.8-0.3-2.6-0.4c-0.9-0.1-1.8-0.3-2.7-0.4
			c-0.9-0.1-1.8-0.2-2.7-0.3c-0.4,0-0.9-0.1-1.3-0.1c-0.4,0-0.9-0.1-1.3-0.1c-0.9-0.1-1.7-0.1-2.6-0.1c-1.7,0-3.3,0-4.9,0
			c-1.5,0-3,0.1-4.4,0.2c-2.2,0.2-4,0.4-5.5,0.6c0,0,0.1-0.1,0.1-0.1c0.5-0.3,1-0.6,1.5-0.9c0.5-0.3,1-0.7,1.4-1
			c1-0.6,1.9-1.3,2.8-2c3.7-2.7,7.1-5.4,10.5-7.8c2-1.5,3.9-2.8,5.9-4.1h-1.5c-1.7,1.1-3.4,2.3-5.1,3.5c-3.5,2.5-6.9,5.1-10.6,7.7
			c-0.9,0.6-1.8,1.3-2.8,1.9c-0.5,0.3-1,0.6-1.4,0.9c-0.5,0.3-1,0.6-1.5,0.9c-1,0.6-2,1.2-3,1.8l-0.4,0.2l-0.4,0.2l-0.8,0.4
			c-0.5,0.3-1,0.5-1.6,0.8c-0.6,0.2-1.1,0.5-1.7,0.7l-0.4,0.2l-0.2,0.1l-0.1,0c-0.1,0,0,0-0.1,0l-0.9,0.3c-0.6,0.2-1.1,0.4-1.7,0.7
			c-0.6,0.2-1.2,0.4-1.8,0.6c-2.4,0.7-4.9,1.4-7.4,1.8c-2.5,0.5-5.2,0.8-7.8,1.1l-1,0.1l-1,0.1c-0.7,0-1.3,0.1-2,0.1
			c-1.3,0.1-2.7,0.1-4,0.1c-1.4,0-2.7,0-4.1,0c-1.4,0-2.7,0-4.1-0.1c-1.4,0-2.7-0.1-4.1-0.1c-0.7,0-1.4-0.1-2.1-0.1
			c-0.7,0-1.4-0.1-2.1-0.1c-5.5-0.3-11.1-0.8-16.5-1.7c-0.7-0.1-1.3-0.3-2-0.4c-0.7-0.1-1.3-0.3-2-0.4l-1-0.2l-1-0.3l-0.5-0.1
			l-0.5-0.1l-1-0.3l-1.9-0.6c-0.6-0.2-1.3-0.5-1.9-0.7c-0.6-0.2-1.3-0.5-1.9-0.7l-1.9-0.8c-4.9-2.1-9.6-4.7-14-7.4
			c-1.4-0.9-2.9-1.8-4.3-2.8c0.2,0,0.4,0,0.6,0.1c1.6,0.2,3.3,0.3,5.2,0.4c1,0,2,0.1,3,0.1c0.5,0,1,0,1.6,0c0.5,0,1.1,0,1.6,0
			c0.6,0,1.1,0,1.7-0.1c0.6,0,1.1-0.1,1.7-0.1c1.2-0.1,2.3-0.2,3.5-0.3c2.4-0.3,4.8-0.7,7.2-1.2c0.6-0.1,1.2-0.3,1.8-0.4l0.9-0.2
			l0.9-0.3c0.6-0.2,1.2-0.3,1.8-0.5c0.6-0.2,1.2-0.4,1.8-0.6l0.9-0.3c0.3-0.1,0.6-0.2,0.9-0.3c0.6-0.2,1.2-0.4,1.7-0.7l0.9-0.3
			l0.8-0.4c0.6-0.2,1.1-0.5,1.7-0.7c0.6-0.2,1.1-0.5,1.6-0.8c0.5-0.3,1-0.5,1.5-0.8h-2.8c-0.4,0.2-0.7,0.3-1.1,0.4
			c-0.6,0.2-1.1,0.4-1.7,0.6l-0.8,0.3l-0.9,0.3c-0.6,0.2-1.1,0.4-1.7,0.6c-0.3,0.1-0.6,0.2-0.9,0.3l-0.9,0.3
			c-0.6,0.2-1.2,0.3-1.8,0.5c-0.6,0.1-1.2,0.3-1.8,0.4l-0.9,0.2l-0.9,0.2c-0.6,0.1-1.2,0.2-1.8,0.4c-2.4,0.4-4.7,0.7-7,0.9
			c-1.1,0.1-2.3,0.2-3.4,0.2c-0.6,0-1.1,0-1.6,0c-0.5,0-1.1,0-1.6,0c-0.5,0-1,0-1.6,0c-0.5,0-1,0-1.5-0.1c-1,0-1.9-0.1-2.9-0.2
			c-1.8-0.2-3.5-0.3-5-0.6c-1.5-0.2-2.7-0.5-3.8-0.7c-1-0.2-1.8-0.4-2.3-0.6c-0.3-0.1-0.5-0.2-0.8-0.3c-0.6-0.2-1-0.5-1.4-0.9
			c-0.5-0.3-0.9-0.7-1.4-1c-0.7-0.5-1.4-1-2.1-1.5h-5.2c1.7,1.1,3.4,2.3,5.2,3.5c0.7,0.5,1.4,1,2.2,1.5c2.2,1.5,4.5,3,6.8,4.5
			c1.4,0.9,2.8,1.8,4.3,2.7c4.6,2.8,9.4,5.4,14.5,7.5l1.9,0.8c0.7,0.2,1.3,0.5,2,0.7c0.7,0.2,1.3,0.5,2,0.7l2,0.6l1,0.3l0.5,0.1
			l0.5,0.1l1,0.3l1.1,0.2c0.7,0.2,1.4,0.3,2.1,0.4c0.7,0.1,1.4,0.3,2.1,0.4c5.6,0.9,11.3,1.3,16.9,1.6c0.7,0,1.4,0.1,2.1,0.1
			c0.7,0,1.4,0,2.1,0.1c1.4,0,2.8,0.1,4.2,0.1c1.4,0,2.8,0,4.2,0c1.4,0,2.8,0,4.1-0.1c1.4,0,2.7-0.1,4.1-0.2c0.7,0,1.4-0.1,2-0.2
			l1-0.1l1-0.1c2.7-0.3,5.4-0.7,8-1.2c2.6-0.5,5.2-1.2,7.6-2c0.6-0.2,1.2-0.4,1.8-0.6c0.6-0.2,1.2-0.5,1.8-0.7l0.9-0.4
			c0,0,0.1,0,0.1-0.1l0.1,0l0.2-0.1l0.4-0.2c0.6-0.3,1.1-0.5,1.7-0.8c0.6-0.3,1.1-0.6,1.6-0.8l0.8-0.4l0.4-0.2l0.3-0.2l0,0
			c0,0,0.1,0,0.2,0c0.1,0,0.2-0.1,0.4-0.1c0.4-0.1,1-0.2,1.7-0.3c1.5-0.3,3.7-0.6,6.3-0.9c1.3-0.1,2.8-0.2,4.3-0.3
			c1.5-0.1,3.1-0.1,4.8-0.1c0.8,0,1.7,0,2.5,0c0.4,0,0.9,0,1.3,0c0.4,0,0.9,0.1,1.3,0.1c0.9,0,1.7,0.1,2.6,0.2
			c0.9,0.1,1.8,0.2,2.6,0.3c0.9,0.1,1.8,0.2,2.6,0.4c0.4,0.1,0.9,0.1,1.3,0.2l0.6,0.1l0.6,0.1c0.8,0.2,1.7,0.3,2.5,0.5
			c0.8,0.2,1.6,0.4,2.4,0.6c0.8,0.2,1.6,0.4,2.3,0.7c0.7,0.2,1.5,0.4,2.2,0.7c0.7,0.3,1.4,0.5,2,0.7c0.6,0.3,1.3,0.5,1.9,0.7
			c0.6,0.2,1.2,0.5,1.7,0.7c0.5,0.2,1.1,0.5,1.5,0.7C368.6,24.6,369,24.8,369.5,24.9c0.4,0.3,0.7,0.4,1,0.6c1.3,0.7,2,1.1,2,1.1
			s-0.7-0.4-2-1.2C370.2,25.3,369.9,25.1,369.5,24.9z"/>
		<path class="st2" d="M277.5-16c0,0,23.2,16.6,13.5,48.5c0,0-2.3,5.7-1.6,10.8C289.5,43.3,262.3,10.6,277.5-16z"/>
		<path class="st3" d="M318.5,28c0,0,22.7-6.9,35.5,13.2c0,0,2,4,5.3,5.8C359.3,47,325.1,49.3,318.5,28z"/>
		<path class="st1" d="M336.4,6.2c0,0-6.7,32.3-39.8,34.5c0,0-6.2-0.2-10.6,2.6C286,43.3,306.1,0.1,336.4,6.2z"/>
		<path class="st4" d="M361.6-8.2c0,0,26.1,20.2,13.4,50.9c0,0-2.9,5.4-2.3,10.7C372.7,53.3,342.8,16.3,361.6-8.2z"/>
		<path class="st5" d="M292.5-2.5c0,0,18-15.5,37.8-2.2c0,0,3.4,2.8,7.2,3.1C337.5-1.5,307.1,14.3,292.5-2.5z"/>
		<path class="st6" d="M103.7,13.3c-0.2-0.5-0.4-1-0.6-1.5c-0.2-0.5-0.3-1.1-0.4-1.7c-0.1-0.3-0.1-0.6-0.1-0.9
			c0-0.3-0.1-0.6-0.1-0.9c0-0.6,0-1.3,0-1.9c0-0.2,0-0.3,0-0.5c0-0.2,0-0.3,0.1-0.5c0-0.3,0.1-0.6,0.2-0.9c0.1-0.3,0.2-0.6,0.2-0.9
			c0.1-0.3,0.2-0.6,0.3-0.9c0.1-0.3,0.2-0.6,0.3-0.9c0.1-0.1,0.1-0.3,0.2-0.4c0.1-0.1,0.1-0.3,0.2-0.4c0.2-0.5,0.5-1,0.8-1.4
			c0.3-0.4,0.5-0.8,0.7-1.1c0.5-0.6,0.7-1,0.7-1s-0.3,0.3-0.7,1c-0.2,0.3-0.4,0.7-0.7,1.1C104.6,0,104.3,0.5,104,1
			c-0.1,0.1-0.1,0.3-0.2,0.4c-0.1,0.1-0.1,0.3-0.2,0.4c-0.1,0.3-0.2,0.6-0.3,0.8c-0.1,0.3-0.2,0.6-0.3,0.9c-0.1,0.3-0.2,0.6-0.2,0.9
			c-0.1,0.3-0.1,0.6-0.1,0.9c0,0.2,0,0.3-0.1,0.5c0,0.2,0,0.3,0,0.5c0,0.6,0,1.2,0,1.9c0,0.3,0.1,0.6,0.1,0.9
			c0.1,0.3,0.1,0.6,0.2,0.9c0.1,0.6,0.3,1.1,0.5,1.7c0.2,0.5,0.4,1,0.6,1.5c0.2,0.5,0.4,0.9,0.7,1.3c0.5,0.8,0.9,1.4,1.2,1.8
			c0.2,0.2,0.3,0.4,0.4,0.5c0.8,0.4,1.6,0.8,2.3,1.3c2.1,1.3,3.8,2.9,5.5,4.7c1.7,1.7,3.2,3.6,5,5.4c0.5,0.4,0.9,0.9,1.4,1.3
			c0.2,0.2,0.5,0.4,0.7,0.7c0.3,0.2,0.5,0.4,0.8,0.6c0.5,0.4,1.1,0.8,1.7,1.2l0.2,0.2l0.2,0.1l0.5,0.3c0.3,0.2,0.6,0.4,0.9,0.6
			c0.3,0.2,0.7,0.4,1,0.5l0.3,0.1l0.1,0.1l0.1,0c0,0,0,0,0.1,0l0.6,0.2c0.4,0.2,0.7,0.3,1.1,0.5c0.4,0.1,0.8,0.3,1.2,0.4
			c1.7,0.5,3.4,1,5.3,1.3c1.9,0.3,3.9,0.6,6,0.8l0.8,0.1l0.8,0.1c0.5,0,1.1,0.1,1.6,0.1c1.1,0.1,2.2,0.1,3.3,0.1
			c1.1,0,2.3,0,3.4,0.1c1.2,0,2.3,0,3.5,0c1.2,0,2.4,0,3.6-0.1c0.6,0,1.2,0,1.8-0.1c0.6,0,1.2,0,1.8-0.1c4.8-0.2,9.8-0.4,14.8-1.1
			c0.6-0.1,1.3-0.2,1.9-0.2c0.6-0.1,1.3-0.2,1.9-0.3l1-0.2l1-0.2l0.5-0.1l0.5-0.1l1-0.2l1.9-0.4c0.7-0.1,1.3-0.3,2-0.5
			c0.7-0.2,1.3-0.3,2-0.5l2-0.5c5.3-1.4,10.5-3.1,15.7-5c1.7-0.6,3.4-1.2,5.1-1.9c-0.2,0-0.4,0-0.6,0c-1.4,0.1-3,0.2-4.7,0.2
			c-0.8,0-1.7,0-2.6,0c-0.4,0-0.9,0-1.3,0c-0.4,0-0.9,0-1.4,0c-0.5,0-0.9,0-1.4-0.1c-0.5,0-0.9,0-1.4-0.1c-0.9-0.1-1.9-0.1-2.8-0.3
			c-1.9-0.2-3.7-0.5-5.5-0.9c-0.4-0.1-0.9-0.2-1.3-0.3l-0.7-0.2l-0.6-0.2c-0.4-0.1-0.8-0.2-1.3-0.4c-0.4-0.1-0.8-0.3-1.2-0.4
			l-0.6-0.2c-0.2-0.1-0.4-0.1-0.6-0.2c-0.4-0.2-0.8-0.3-1.1-0.5l-0.6-0.2l-0.5-0.3c-0.3-0.2-0.7-0.3-1-0.5c-0.4-0.2-0.7-0.4-1-0.5
			c-0.3-0.2-0.6-0.4-0.9-0.5l-0.2-0.1l-0.2-0.1c-0.1-0.1-0.3-0.2-0.4-0.3c-0.3-0.2-0.6-0.4-0.8-0.6l-0.2-0.1l-0.2-0.2
			c-0.1-0.1-0.2-0.2-0.4-0.3c-0.2-0.2-0.5-0.4-0.7-0.6c-0.1-0.1-0.2-0.2-0.4-0.3c-0.1-0.1-0.2-0.2-0.3-0.3c-0.2-0.2-0.4-0.4-0.6-0.6
			c-0.2-0.2-0.4-0.4-0.6-0.6c-0.2-0.2-0.3-0.4-0.5-0.6c-0.2-0.2-0.3-0.4-0.5-0.6c-0.1-0.1-0.2-0.2-0.2-0.3c-0.1-0.1-0.1-0.2-0.2-0.3
			c-0.5-0.8-1-1.5-1.3-2.2c-0.3-0.7-0.7-1.2-0.8-1.7c-0.4-1-0.6-1.6-0.6-1.6s0.3,0.5,0.8,1.5c0.2,0.5,0.6,1,1,1.7
			c0.4,0.7,1,1.3,1.5,2.1c0.1,0.1,0.1,0.2,0.2,0.3c0.1,0.1,0.2,0.2,0.3,0.3c0.2,0.2,0.4,0.4,0.5,0.6c0.2,0.2,0.4,0.4,0.6,0.6
			c0.2,0.2,0.4,0.4,0.6,0.6c0.2,0.2,0.4,0.4,0.7,0.6c0.1,0.1,0.2,0.2,0.3,0.3c0.1,0.1,0.3,0.2,0.4,0.3c0.3,0.2,0.5,0.4,0.8,0.6
			c0.1,0.1,0.3,0.2,0.4,0.3l0.2,0.1l0.2,0.1c0.3,0.2,0.6,0.4,0.9,0.5c0.1,0.1,0.3,0.2,0.4,0.3l0.2,0.1l0.2,0.1
			c0.3,0.2,0.7,0.3,1,0.5c0.3,0.2,0.7,0.3,1,0.5c0.4,0.2,0.7,0.3,1.1,0.5l0.5,0.2l0.6,0.2c0.4,0.1,0.8,0.3,1.2,0.4
			c0.2,0.1,0.4,0.1,0.6,0.2l0.6,0.2c0.4,0.1,0.8,0.2,1.2,0.4c0.4,0.1,0.9,0.2,1.3,0.3l0.6,0.2l0.7,0.1c0.4,0.1,0.9,0.2,1.3,0.3
			c1.8,0.3,3.6,0.5,5.5,0.7c0.9,0.1,1.9,0.1,2.8,0.2c0.5,0,0.9,0,1.4,0c0.5,0,0.9,0,1.4,0c0.5,0,0.9,0,1.3,0c0.4,0,0.9,0,1.3,0
			c0.9,0,1.7-0.1,2.5-0.1c1.6-0.1,3.1-0.2,4.5-0.4c1.4-0.1,2.5-0.3,3.5-0.4c1-0.1,1.8-0.3,2.3-0.4c0.3,0,0.5-0.1,0.8-0.2
			c0.6-0.1,1.1-0.4,1.7-0.6c0.6-0.2,1.1-0.4,1.7-0.7c5.1-2,10.2-4,15.3-5.9c0.6-0.2,1.3-0.5,1.9-0.7l0.5-0.2l0.3-0.1l0.2-0.1l1-0.3
			c1.3-0.4,2.6-0.9,3.8-1.3c0.7-0.2,1.3-0.4,2-0.6l0.6,1.7c-3.2,1-6.4,2.1-9.6,3.2c-5,1.8-10.1,3.7-15.2,5.7c-0.9,0.3-1.7,0.7-2.6,1
			c-2.7,1-5.4,2-8,3c-1.7,0.6-3.3,1.2-5,1.8c-5.3,1.9-10.7,3.6-16.2,5l-2,0.5c-0.7,0.2-1.4,0.3-2,0.5c-0.7,0.2-1.4,0.3-2,0.5l-2,0.4
			l-1,0.2l-0.5,0.1l-0.5,0.1l-1,0.2l-1,0.2c-0.7,0.1-1.3,0.2-2,0.3c-0.7,0.1-1.3,0.2-2,0.2c-5.2,0.6-10.2,0.8-15.1,0.9
			c-0.6,0-1.2,0-1.8,0c-0.6,0-1.2,0-1.8,0c-1.2,0-2.4,0-3.6,0c-1.2,0-2.4,0-3.5,0c-1.2,0-2.3,0-3.5-0.1c-1.1,0-2.3-0.1-3.4-0.2
			c-0.6,0-1.1-0.1-1.6-0.1l-0.8-0.1l-0.8-0.1c-2.1-0.2-4.2-0.5-6.1-0.9c-2-0.4-3.7-0.9-5.4-1.4c-0.4-0.1-0.8-0.3-1.2-0.4
			c-0.4-0.2-0.8-0.3-1.1-0.5l-0.6-0.2c0,0-0.1,0-0.1,0l-0.1,0l-0.1-0.1l-0.3-0.1c-0.3-0.2-0.7-0.4-1-0.5c-0.3-0.2-0.6-0.4-1-0.6
			L123,33l-0.2-0.2l-0.2-0.1l0,0c0,0,0,0-0.1,0c-0.1,0-0.2,0-0.3-0.1c-0.3-0.1-0.7-0.2-1.3-0.3c-1.1-0.2-2.8-0.5-4.9-0.7
			c-1.1-0.1-2.2-0.2-3.5-0.3c-1.2-0.1-2.6-0.1-4-0.1c-0.7,0-1.4,0-2.2,0c-0.4,0-0.7,0-1.1,0c-0.4,0-0.8,0-1.1,0
			c-0.8,0-1.5,0.1-2.3,0.1c-0.8,0-1.6,0.1-2.4,0.2c-0.8,0.1-1.6,0.1-2.4,0.2c-0.4,0-0.8,0.1-1.2,0.1l-0.6,0.1l-0.6,0.1
			c-0.8,0.1-1.6,0.2-2.4,0.4c-0.8,0.1-1.6,0.2-2.4,0.4c-0.8,0.1-1.6,0.3-2.3,0.4c-0.8,0.2-1.5,0.3-2.2,0.5c-0.7,0.2-1.4,0.3-2.1,0.5
			c-0.7,0.2-1.3,0.3-2,0.5c-0.6,0.2-1.2,0.3-1.8,0.5c-0.6,0.2-1.1,0.3-1.6,0.5c-0.5,0.2-1,0.3-1.4,0.4c-0.4,0.1-0.9,0.3-1.2,0.4
			c-1.5,0.5-2.3,0.8-2.3,0.8s0.8-0.3,2.3-0.8c0.4-0.1,0.8-0.3,1.2-0.4c0.4-0.1,0.9-0.3,1.4-0.5c0.5-0.2,1.1-0.3,1.6-0.5
			c0.6-0.2,1.2-0.4,1.8-0.5c0.6-0.2,1.3-0.3,2-0.5c0.7-0.2,1.4-0.3,2.1-0.5c0.7-0.2,1.5-0.3,2.2-0.5c0.8-0.2,1.5-0.3,2.3-0.5
			c0.8-0.2,1.6-0.3,2.4-0.4c0.8-0.1,1.6-0.3,2.4-0.4l0.6-0.1l0.6-0.1c0.4-0.1,0.8-0.1,1.2-0.2c0.8-0.1,1.6-0.2,2.5-0.3
			c0.8-0.1,1.6-0.2,2.4-0.2c0.8-0.1,1.6-0.1,2.4-0.2c0.4,0,0.8,0,1.2-0.1c0.4,0,0.8,0,1.1,0c0.8,0,1.5,0,2.2-0.1c1.4,0,2.8,0,4.1,0
			c1.3,0,2.5,0.1,3.6,0.2c1.7,0.1,3.2,0.3,4.3,0.5c0,0,0,0-0.1-0.1c-0.3-0.2-0.5-0.4-0.8-0.7c-0.2-0.2-0.5-0.5-0.7-0.7
			c-0.5-0.4-0.9-0.9-1.4-1.4c-1.7-1.9-3.2-3.7-4.8-5.5c-1.6-1.7-3.3-3.4-5.2-4.7c-3.9-2.7-9.2-4.2-14.3-5c-5.1-0.8-10-1.1-14.2-1.2
			c-4.1-0.1-7.5-0.1-9.7-0.1c-2.3,0-3.5,0-3.5,0s1.2,0,3.5-0.1c2.3,0,5.6-0.1,9.8,0c4.2,0.1,9.1,0.3,14.4,1.1c0.6,0.1,1.3,0.2,2,0.3
			c0.6,0.1,1.3,0.3,1.9,0.4c0.2,0,0.3,0.1,0.5,0.1c0.2,0,0.3,0.1,0.5,0.1c0.3,0.1,0.6,0.2,1,0.2c0.3,0.1,0.7,0.2,1,0.3
			c0.3,0.1,0.6,0.2,0.9,0.3c1.2,0.4,2.4,0.8,3.5,1.3c-0.3-0.4-0.7-1-1-1.7C104.1,14.2,103.9,13.8,103.7,13.3z"/>
		<path class="st7" d="M4.7-1.5C5.1-1.2,5.6-0.9,6-0.7c0.5,0.3,1,0.6,1.5,0.9C8,0.5,8.6,0.8,9.2,1.1c0.6,0.3,1.2,0.6,1.9,0.9
			c0.6,0.3,1.3,0.6,2,0.9c0.7,0.3,1.4,0.6,2.2,0.9c0.7,0.3,1.5,0.6,2.3,0.9c0.8,0.3,1.6,0.5,2.4,0.8c0.8,0.3,1.7,0.5,2.5,0.7
			l0.6,0.2l0.6,0.2c0.4,0.1,0.9,0.2,1.3,0.3c0.9,0.2,1.7,0.4,2.6,0.5c0.9,0.1,1.8,0.3,2.6,0.4c0.9,0.1,1.8,0.2,2.6,0.3
			c0.4,0,0.9,0.1,1.3,0.1c0.4,0,0.9,0.1,1.3,0.1c0.9,0.1,1.7,0.1,2.6,0.1c1.7,0,3.3,0,4.8,0c1.5,0,3-0.2,4.3-0.3
			c2.2-0.2,4-0.5,5.5-0.7c0,0-0.1,0.1-0.1,0.1c-0.5,0.4-1,0.7-1.5,1.1c-0.5,0.4-1,0.8-1.4,1.2c-1,0.8-1.9,1.6-2.8,2.3
			c-3.6,3.1-7,6.3-10.4,9.3c-0.8,0.7-1.6,1.4-2.4,2h1.6c0.5-0.4,1-0.8,1.5-1.3c3.4-2.9,6.9-6.1,10.5-9.1c0.9-0.8,1.8-1.5,2.8-2.3
			c0.5-0.4,0.9-0.7,1.4-1.1c0.5-0.4,1-0.7,1.5-1.1c1-0.7,2-1.4,3-2.1l0.4-0.3l0.4-0.2L58,5.6c0.5-0.3,1-0.6,1.6-0.9
			c0.6-0.3,1.1-0.6,1.7-0.9l0.4-0.2l0.2-0.1L62,3.4c0.1,0,0,0,0.1,0l0.9-0.4c0.6-0.3,1.1-0.5,1.7-0.8c0.6-0.2,1.2-0.5,1.8-0.7
			c2.4-0.9,4.8-1.6,7.4-2.2c2.5-0.6,5.1-1,7.7-1.3l1-0.1l1-0.1c0.7-0.1,1.3-0.1,2-0.2c1.3-0.1,2.7-0.2,4-0.2c1.3-0.1,2.7,0,4,0
			c1.4,0,2.7,0,4.1,0.1c1.4,0,2.7,0.1,4.1,0.2c0.7,0,1.4,0.1,2.1,0.1c0.7,0,1.4,0.1,2.1,0.1c5.5,0.4,11,0.9,16.4,2.1
			c0.7,0.1,1.3,0.3,2,0.5c0.7,0.2,1.3,0.3,2,0.5l1,0.3l1,0.3l0.5,0.2l0.5,0.2l1,0.3l1.9,0.7c0.6,0.2,1.3,0.5,1.9,0.8
			c0.6,0.3,1.3,0.5,1.9,0.8l1.8,0.9c4.9,2.5,9.5,5.5,13.9,8.8c1.4,1.1,2.9,2.2,4.3,3.3c-0.2,0-0.4-0.1-0.6-0.1
			c-1.5-0.2-3.3-0.4-5.2-0.5c-1,0-2-0.1-3-0.1c-0.5,0-1,0-1.6,0c-0.5,0-1.1,0-1.6,0c-0.5,0-1.1,0.1-1.7,0.1c-0.6,0-1.1,0.1-1.7,0.1
			c-1.1,0.1-2.3,0.2-3.5,0.4c-2.4,0.3-4.8,0.8-7.2,1.4c-0.6,0.2-1.2,0.3-1.8,0.5l-0.9,0.3l-0.9,0.3c-0.6,0.2-1.2,0.4-1.8,0.6
			c-0.6,0.2-1.2,0.5-1.8,0.7l-0.9,0.3c-0.3,0.1-0.6,0.2-0.9,0.4c-0.6,0.3-1.1,0.5-1.7,0.8l-0.9,0.4l-0.4,0.2h4.1
			c0.1,0,0.3-0.1,0.4-0.1l0.9-0.3c0.6-0.2,1.2-0.4,1.7-0.6c0.6-0.2,1.2-0.3,1.8-0.5l0.9-0.3l0.9-0.2c0.6-0.1,1.2-0.3,1.8-0.4
			c2.4-0.5,4.7-0.9,7-1.1c1.1-0.1,2.3-0.2,3.4-0.2c0.6,0,1.1,0,1.6,0c0.5,0,1.1,0,1.6,0c0.5,0,1,0,1.6,0c0.5,0,1,0,1.5,0.1
			c1,0,1.9,0.1,2.8,0.2c1.8,0.2,3.5,0.4,4.9,0.7c1.5,0.3,2.7,0.5,3.7,0.8c1,0.3,1.8,0.5,2.3,0.7c0.3,0.1,0.5,0.2,0.8,0.3
			c0.6,0.2,1,0.6,1.4,1c0,0,0,0,0,0h5c-0.5-0.4-1-0.8-1.6-1.3c-0.7-0.6-1.4-1.2-2.1-1.7c-2.2-1.8-4.5-3.6-6.7-5.3
			c-1.4-1.1-2.8-2.1-4.2-3.2c-4.5-3.3-9.3-6.4-14.5-8.9L137,2.2c-0.7-0.3-1.3-0.6-2-0.8c-0.7-0.3-1.3-0.6-2-0.8l-2-0.7l-1-0.3
			l-0.5-0.2L129-0.8l-1-0.3l-1-0.3c-0.7-0.2-1.4-0.3-2.1-0.5c-0.7-0.1-1.4-0.3-2.1-0.4c-5.6-1.1-11.2-1.6-16.8-1.9
			c-0.7,0-1.4-0.1-2.1-0.1c-0.7,0-1.4-0.1-2.1-0.1c-1.4,0-2.8-0.1-4.1-0.1c-1.4,0-2.8,0-4.1,0c-1.4,0-2.7,0-4.1,0.1
			c-1.4,0-2.7,0.1-4.1,0.2C84.7-4.1,84-4,83.3-4l-1,0.1l-1,0.1c-2.7,0.3-5.3,0.8-7.9,1.4c-2.6,0.6-5.1,1.4-7.6,2.3
			c-0.6,0.2-1.2,0.5-1.8,0.7c-0.6,0.3-1.2,0.5-1.8,0.8L61.4,2c0,0-0.1,0.1-0.1,0.1l-0.1,0.1l-0.2,0.1l-0.4,0.2
			c-0.6,0.3-1.1,0.6-1.7,0.9c-0.6,0.3-1.1,0.7-1.6,1l-0.8,0.5L56,5.1l-0.3,0.2l0,0c0,0-0.1,0-0.2,0c-0.1,0-0.2,0.1-0.4,0.1
			c-0.4,0.1-1,0.3-1.7,0.4c-1.5,0.3-3.7,0.7-6.3,1c-1.3,0.1-2.7,0.3-4.2,0.4c-1.5,0.1-3.1,0.1-4.8,0.1c-0.8,0-1.7,0-2.5-0.1
			c-0.4,0-0.9,0-1.3-0.1c-0.4,0-0.9-0.1-1.3-0.1c-0.9,0-1.7-0.2-2.6-0.2c-0.9-0.1-1.7-0.2-2.6-0.3c-0.9-0.2-1.7-0.3-2.6-0.5
			c-0.4-0.1-0.9-0.2-1.3-0.3l-0.6-0.1l-0.6-0.2c-0.8-0.2-1.7-0.4-2.5-0.6c-0.8-0.2-1.6-0.5-2.4-0.7c-0.8-0.3-1.6-0.5-2.3-0.8
			c-0.7-0.3-1.5-0.5-2.2-0.8c-0.7-0.3-1.4-0.6-2-0.9c-0.6-0.3-1.3-0.6-1.9-0.9C8.7,0.6,8.1,0.3,7.6,0c-0.5-0.3-1-0.5-1.5-0.8
			C5.6-1.1,5.2-1.3,4.7-1.5C4.4-1.8,4-2,3.7-2.2c-1.3-0.8-2-1.3-2-1.3s0.7,0.5,2,1.4C4-1.9,4.3-1.7,4.7-1.5z"/>
		<path class="st8" d="M268.2,26.6c0,0-28.4-2-36.9-34.2c0,0-1-6.1-4.3-10C226.9-17.5,267.2-3.9,268.2,26.6z"/>
		<path class="st6" d="M242.9,23.4c0,0-5.6-27.9,23.3-44.6c0,0,5.6-2.6,8.5-6.8C274.7-28.1,272.1,14.4,242.9,23.4z"/>
		<path class="st9" d="M218.9,29.5c0,0-14.6,20.6-43.9,12.4c0,0-5.3-2-9.9-1.3C165.1,40.6,194.3,16.3,218.9,29.5z"/>
		<path class="st10" d="M69.9,36.1c0,0-28.6-11.2-24.3-35.9c0,0,1.4-4.4-0.4-8.2C45.3-8,81.4,15.2,69.9,36.1z"/>
		<path class="st11" d="M109.9-17.9c0,0,20.9,23.9,4.8,45.8c0,0-3.5,3.7-3.7,8.2C111,36.1,89-2.8,109.9-17.9z"/>
		<path class="st12" d="M251.5,11.9c0,0-26.3,10.9-48.3-14c0,0-3.6-5-8.4-7C194.8-9.1,236.9-15,251.5,11.9z"/>
		<path class="st13" d="M81.3-24.5c0,0,20.9,23.9,4.8,45.8c0,0-3.5,3.7-3.7,8.2C82.4,29.5,60.4-9.4,81.3-24.5z"/>
		<path class="st14" d="M111.8,13.3c0,0,18.7,8.9,14.8,27.7c0,0-1.1,3.4-0.1,6.3C126.6,47.3,103.4,29.2,111.8,13.3z"/>
		<path class="st15" d="M215.6,32.6c0,0-21.6-11-18.2-41.3c0,0,1.1-5.5-0.3-10C197.2-18.8,224.4,6.1,215.6,32.6z"/>
		<path class="st16" d="M214.6,19.7c0,0-15.7-12.7-7.5-32.8c0,0,1.9-3.6,1.6-6.9C208.6-20.1,226.5,3.6,214.6,19.7z"/>
		<path class="st17" d="M113.4,0.4c0,0,16.9-9.5,34.5,5.8c0,0,3,3.1,6.4,4.1C154.3,10.4,126,17.7,113.4,0.4z"/>
		<path class="st0" d="M18.5,31.3c0,0,3.7-19,20.7-19.5c0,0,3.2,0.3,5.5-1.3C44.7,10.4,34,35.6,18.5,31.3z"/>
		<path class="st18" d="M141.5,12.7c0,0,16.9-9.5,34.5,5.8c0,0,3,3.1,6.4,4.1C182.4,22.7,154.1,29.9,141.5,12.7z"/>
		<path class="st19" d="M184.2,34.1c0,0-20.2-15.1-11.3-44.2c0,0,2.1-5.2,1.5-9.9C174.4-20,198,9.7,184.2,34.1z"/>
		<path class="st19" d="M177.2,16.3c0,0-24.2,7.1-42.2-17.5c0,0-2.9-4.8-7-7.1C128-8.4,166-9.3,177.2,16.3z"/>
		<path class="st6" d="M149.5-11.4c0,0,25-3.6,39.2,23.3c0,0,2.2,5.2,5.9,8.1C194.6,20,156.9,15.5,149.5-11.4z"/>
		<path class="st20" d="M74.5-0.5c0,0,33.7-1.9,44.4,30c0,0,1.3,6.1,5.3,9.7C124.2,39.2,76.3,30.8,74.5-0.5z"/>
		<path class="st13" d="M13.7,31.3c0,0,10.1-16.5,26.3-11c0,0,2.9,1.4,5.6,0.7C45.6,20.9,26.7,40.8,13.7,31.3z"/>
		<path class="st7" d="M100.5,34.5c0,0,22.4-11.9,40.5,6.9c0,0,3,3.8,6.9,5.1C148,46.5,112.4,55.7,100.5,34.5z"/>
		<path class="st21" d="M74.1,30.1C74.1,30.1,44,20,47-7.1c0,0,1.2-4.9-0.9-8.9C46.1-16,84.7,6.6,74.1,30.1z"/>
		<path class="st13" d="M53.8,47.5c0,0-6.2-14.3,7.3-26.4c0,0,2.7-2,3.8-4.6C64.8,16.5,68.3,39.4,53.8,47.5z"/>
		<path class="st22" d="M87.4,46.6c0,0-29.3,9.3-41.4-12.6c0,0-1.7-4.3-5.5-6.2C40.5,27.9,83.2,23.2,87.4,46.6z"/>
		<path class="st21" d="M4.7,45.6c0,0-3.1-22.2,23.4-38c0,0,5.1-2.5,7.9-6.2C36.1,1.4,31.1,36,4.7,45.6z"/>
	</g>
</g>
<g id="Layer_2">
</g>
</svg>
