<?xml version="1.0" encoding="utf-8"?>
<!-- Generator: Adobe Illustrator 21.0.0, SVG Export Plug-In . SVG Version: 6.00 Build 0)  -->
<svg version="1.1" id="Layer_1" xmlns="http://www.w3.org/2000/svg" xmlns:xlink="http://www.w3.org/1999/xlink" x="0px" y="0px"
	 viewBox="0 0 666.6 676" style="enable-background:new 0 0 666.6 676;" xml:space="preserve">
<style type="text/css">
	.st0{fill:#8D8D8D;}
	.st1{fill:#a28178;}
</style>
<g>
	<path class="st0" d="M338,537.9l-2.8-2C336.1,536.5,337,537.2,338,537.9z"/>
	<path class="st1" d="M305.7,35.3c-169.8,15.3-295,165.3-279.8,335s165.3,295,335,279.8c169-15.2,295-165.3,279.8-335
		C625.4,145.3,475.4,20,305.7,35.3z M360.2,641.8C195,656.7,49,534.8,34.2,369.6s107-311.2,272.3-326
		c165.2-14.8,311.2,107,326,272.3C647.3,481,524.6,627.1,360.2,641.8z"/>
	<path class="st1" d="M585.5,200.8C538.3,117.3,436.8,79.2,436.8,79.2s2.7,84.2,11.2,128.3c8.5,44.1,42.9,75.8,45.6,133.9
		c2.2,46.1-15.6,78.3-42.8,74.9c-5.8-0.7-12.3-3.9-19.1-8.7c-1.3-5.5-8-50.6-22.8-102.2C446,170.6,402.4,59,402.4,59h0
		c-6.6-26.7-18.7-49.1-40.8-56.7c-38.1-13-52.7,32-46.8,85.2s67.8,183.3,78.5,209.9c-4.6,17.2-10.1,34.1-17.6,53
		c-3.2-4.3-13.2-14.3-15.8-17.1c-12.9-13.4-28.7-30.6-40.7-31c2.5-22.7,9.7-57.6-9.2-74.6c-22.2-20-45.2-3.7-82.9,13.3
		c-37.7,17-68.6,24.9-92.8,26.9c-24.2,2-31.2-17.1-32.8-32.1c-1.7-15,3.3-61,43.6-99.7c28.9-27.7,57.4-49.4,91.6-47.2
		c46.3,2.9,38.6,47.7,31.6,76.3c-7,28.6-57.2,62-66.1,66.5c-8.9,4.5-17.3,5.6-20.8,4.5c-3.5-1.1-8.3-4.5-0.9-18.6
		c7.4-14.1,28-39.4,35.4-50.2c13.4-19.4,14.4-42-3.8-42.6c-25.6-0.9-31.2,20.7-32.4,25.4c-1.1,4.6-2.4,20.5,7.2,24.4
		c8.1,3.3,14.2-16.6,14.2-16.6s-11,11-15.1,3.8c-5.9-10.3,3-32.3,21.7-33.8c14.1-1.2,14.4,19.5,8.4,29.9s-42,38.2-49.6,48
		c-7.6,9.8-12.2,32.6,17.6,37.4c29.8,4.7,74.3-43.6,85.9-63.1c11.6-19.4,38.1-74.4,7.6-105.2c-18-18.2-81.4,3-108.3,26.4
		c-25.5,22.2-64.9,48.2-86.7,125.6c-21.8,77.4,37.7,73.6,74.8,61.3c37.1-12.3,105.3-68.4,132.8-43.2c14.4,13.2,9.9,31.6,9.7,54.1
		c-30-0.9-62.3,15.5-80.5,59.3c-21.3,51.3-11,88,4.9,133c-26.5,21.5-53.4,36.4-79.7,33c-26.3-3.4-32.3-2.6-44.4-24.1
		c-4.4-7.7,1.8-31.9,10.2-45.6c23.8-38.8,79-92.2,17.2-119.4c-34.7-15.3-60.6,0.5-69.2,24.5c-8.7,24-3.5,52.6,13.1,97.5
		c16.6,44.9,58.7,109.1,103.5,110.7c35.3,0.9,57.9-9.5,75.9-21.5c0.4,0.7,0.7,1,0.7,1c51.4,72.7,126.7,122.5,179.3,36.8
		c26.6-58.4,13.3-110.8,6.4-150.9c4.5,3.2,8.8,5.4,12.8,6.2c25.6,4.9,64.6-13.6,64.8-91.4c0.1-77.6-48.3-96.5-56-141.6
		c-7.8-45.1,4.1-73.4,4.1-73.4s119.7,37.4,136.2,178.4c16.4,141-49.7,197.9-66.1,209c-14,9.6-55.4,30.5-60.2-19.6
		c-4.8-50.1,28.1-49.4,38.3-42.2c12.6,8.8,15.8,42.2,1.9,48.7s-14.1-14.3-14.1-14.3s-15.5,25.8,7.5,29.1
		c36.8,4.9,50.9-78.1-3.4-73.2c-54.3,4.9-47.7,94.5-16,100c31.7,5.5,72-15,107.4-86.1C629.4,392.1,632.7,284.3,585.5,200.8z
		 M73.6,429.1c-2.9-30.8,5.7-72.4,41.4-77.5C171.6,342.5,94.3,456,94,490.8C90.7,488.1,76.4,459.9,73.6,429.1z M350.3,161.7
		c-25.1-55.8-2.1-119.3,17.3-102.1s60.8,78.9,30.6,217.5C397.8,275.7,376.3,219.5,350.3,161.7z M413.5,392.2
		c-8.6-8.3-17.3-17.8-25.4-27c5.2-11.9,9.8-23.7,13.7-35.4C406.2,349.7,410.6,372.2,413.5,392.2z M298.8,413.1
		c17.2-56.7,19.7-100.5,19.7-100.5c8.4,0.3,20.6,9.2,40.4,30.1c2.2,2.3,9.8,12,13.4,16.4c-9.4,22.8-21,46.7-35.3,71.9
		c-26.6,46.9-52,77.7-75.5,97.5c-4.8-6.4-11.1-14.5-13.4-18.4C259.7,496.8,281.6,469.8,298.8,413.1z M225.4,373.3
		c7.7-24,19-61.3,72.4-61.4c0,0,1.8,40.9-12.8,88.5s-45.4,77.7-46.7,79.1C224.7,454.6,218.7,394.2,225.4,373.3z M138.3,546.4
		L138.3,546.4C138.3,546.4,138.3,546.4,138.3,546.4z M138.2,546.4c-12.1-8.4-21.4-18.5-26-25.9c0,0,20.5,21.7,50.3,23.3
		c29.8,1.6,60.8-12.6,74-22.8c1.9,3.9,6.5,12.3,10,18.7C197.7,572.5,158.8,558.2,138.2,546.4z M356.7,588.7
		c-37.5-4.7-67.4-25.4-89.5-51.6c0.2-0.2-0.4-1.1-1.4-2.6c27.3-23.7,59.9-61.2,96.3-120.2c8.3-13.4,15.5-26.8,21.8-40.2
		c10.1,13.3,21.3,27.9,32.2,40c1.7,16.4,2.8,33.1,2.8,49.4C418.8,533.7,397.1,593.8,356.7,588.7z"/>
	<path class="st1" d="M640.4,213c-8.4-19.8-18.7-38.8-30.7-56.6c-11.9-17.6-25.6-34.2-40.7-49.3c-15.1-15.1-31.7-28.8-49.3-40.7
		c-17.8-12-36.9-22.4-56.6-30.7c-23.9-10.1-48.8-17.3-74.2-21.6c5.7,6.8,8.9,13.2,12,20.9c141.4,31,247.6,157.2,247.6,307.8
		c0,173.8-141.4,315.1-315.1,315.1S18.2,516.5,18.2,342.7C18.2,176,148.3,39.1,312.4,28.3c2-6.7,5.2-13.6,9.3-18.7
		c-40.9,1.4-80.6,10.1-118.1,26c-19.8,8.4-38.8,18.7-56.6,30.7C129.3,78.3,112.7,92,97.6,107c-15.1,15.1-28.8,31.7-40.7,49.3
		c-12,17.8-22.4,36.9-30.7,56.6C8.8,254.1,0,297.7,0,342.7s8.8,88.6,26.2,129.7c8.4,19.8,18.7,38.8,30.7,56.6
		c11.9,17.6,25.6,34.2,40.7,49.3c15.1,15.1,31.7,28.8,49.3,40.7c17.8,12,36.9,22.4,56.6,30.7c41.1,17.4,84.7,26.2,129.7,26.2
		s88.6-8.8,129.7-26.2c19.8-8.4,38.8-18.7,56.6-30.7c17.6-11.9,34.2-25.6,49.3-40.7c15.1-15.1,28.8-31.7,40.7-49.3
		c12-17.8,22.4-36.9,30.7-56.6c17.4-41.1,26.2-84.7,26.2-129.7S657.7,254.1,640.4,213z"/>
</g>
</svg>
